<mxfile host="Electron" agent="Mozilla/5.0 (Windows NT 10.0; Win64; x64) AppleWebKit/537.36 (KHTML, like Gecko) draw.io/24.7.17 Chrome/128.0.6613.36 Electron/32.0.1 Safari/537.36" version="24.7.17" pages="2">
  <diagram name="Página-1" id="TvltaOGzXCYzKVYK65cy">
    <mxGraphModel dx="3434" dy="2689" grid="1" gridSize="10" guides="1" tooltips="1" connect="1" arrows="1" fold="1" page="1" pageScale="1" pageWidth="827" pageHeight="1169" math="0" shadow="0">
      <root>
        <mxCell id="0" />
        <mxCell id="1" parent="0" />
        <mxCell id="KWAuoRxqSmageYxoOzQl-31" value="+&lt;div&gt;&lt;br&gt;&lt;/div&gt;&lt;div&gt;&lt;br&gt;&lt;/div&gt;" style="rounded=1;whiteSpace=wrap;html=1;fillColor=#F2F2F2;" parent="1" vertex="1">
          <mxGeometry x="-480" y="-30" width="1930" height="870" as="geometry" />
        </mxCell>
        <mxCell id="KWAuoRxqSmageYxoOzQl-3" value="" style="rounded=0;whiteSpace=wrap;html=1;fillColor=default;" parent="1" vertex="1">
          <mxGeometry x="230" y="135" width="790" height="480" as="geometry" />
        </mxCell>
        <mxCell id="KWAuoRxqSmageYxoOzQl-27" value="" style="rounded=0;whiteSpace=wrap;html=1;fillColor=default;" parent="1" vertex="1">
          <mxGeometry x="-330" y="135" width="187" height="480" as="geometry" />
        </mxCell>
        <mxCell id="KWAuoRxqSmageYxoOzQl-4" value="" style="rounded=0;whiteSpace=wrap;html=1;fillColor=default;" parent="1" vertex="1">
          <mxGeometry x="-30" y="685" width="1050" height="100" as="geometry" />
        </mxCell>
        <mxCell id="KWAuoRxqSmageYxoOzQl-32" style="edgeStyle=orthogonalEdgeStyle;rounded=0;orthogonalLoop=1;jettySize=auto;html=1;exitX=1;exitY=0.5;exitDx=0;exitDy=0;entryX=0;entryY=0.5;entryDx=0;entryDy=0;flowAnimation=1;strokeWidth=3;" parent="1" source="DFUhws0RuYqCm8shGMYr-1" target="KWAuoRxqSmageYxoOzQl-26" edge="1">
          <mxGeometry relative="1" as="geometry">
            <mxPoint x="-166.5" y="375" as="sourcePoint" />
          </mxGeometry>
        </mxCell>
        <mxCell id="KWAuoRxqSmageYxoOzQl-17" value="" style="shape=image;verticalLabelPosition=bottom;labelBackgroundColor=default;verticalAlign=top;aspect=fixed;imageAspect=0;image=https://upload.wikimedia.org/wikipedia/commons/thumb/e/ed/Pandas_logo.svg/512px-Pandas_logo.svg.png;" parent="1" vertex="1">
          <mxGeometry x="360" y="182.13" width="221.54" height="90" as="geometry" />
        </mxCell>
        <mxCell id="KWAuoRxqSmageYxoOzQl-18" value="FONTE DE DADOS" style="text;html=1;align=center;verticalAlign=middle;resizable=0;points=[];autosize=1;strokeColor=none;fillColor=none;fontSize=20;fontStyle=1;" parent="1" vertex="1">
          <mxGeometry x="-336.5" y="90" width="200" height="40" as="geometry" />
        </mxCell>
        <mxCell id="KWAuoRxqSmageYxoOzQl-19" value="INGESTÃO DE DADOS" style="text;html=1;align=center;verticalAlign=middle;resizable=0;points=[];autosize=1;strokeColor=none;fillColor=none;fontSize=20;fontStyle=1;" parent="1" vertex="1">
          <mxGeometry x="-60" y="90" width="240" height="40" as="geometry" />
        </mxCell>
        <mxCell id="KWAuoRxqSmageYxoOzQl-20" value="PLATAFORMA DE DADOS" style="text;html=1;align=center;verticalAlign=middle;resizable=0;points=[];autosize=1;strokeColor=none;fillColor=none;fontSize=20;fontStyle=1;" parent="1" vertex="1">
          <mxGeometry x="485" y="90" width="270" height="40" as="geometry" />
        </mxCell>
        <mxCell id="KWAuoRxqSmageYxoOzQl-21" value="" style="rounded=0;whiteSpace=wrap;html=1;fillColor=default;" parent="1" vertex="1">
          <mxGeometry x="1110" y="135" width="190" height="480" as="geometry" />
        </mxCell>
        <mxCell id="KWAuoRxqSmageYxoOzQl-22" value="&lt;div&gt;INTELIGÊNCIA DE NEGÓCIOS&lt;/div&gt;" style="text;html=1;align=center;verticalAlign=middle;resizable=0;points=[];autosize=1;strokeColor=none;fillColor=none;fontSize=20;fontStyle=1;" parent="1" vertex="1">
          <mxGeometry x="1049.27" y="90" width="310" height="40" as="geometry" />
        </mxCell>
        <mxCell id="KWAuoRxqSmageYxoOzQl-25" value="" style="shape=image;verticalLabelPosition=bottom;labelBackgroundColor=default;verticalAlign=top;aspect=fixed;imageAspect=0;image=https://streamlit.io/images/brand/streamlit-logo-secondary-colormark-darktext.png;" parent="1" vertex="1">
          <mxGeometry x="1108.55" y="305" width="191.45" height="112" as="geometry" />
        </mxCell>
        <mxCell id="KWAuoRxqSmageYxoOzQl-26" value="" style="rounded=0;whiteSpace=wrap;html=1;fillColor=default;" parent="1" vertex="1">
          <mxGeometry x="-30" y="135" width="180" height="480" as="geometry" />
        </mxCell>
        <mxCell id="KWAuoRxqSmageYxoOzQl-48" style="edgeStyle=orthogonalEdgeStyle;rounded=0;orthogonalLoop=1;jettySize=auto;html=1;flowAnimation=1;strokeWidth=3;exitX=1;exitY=0.5;exitDx=0;exitDy=0;" parent="1" source="KWAuoRxqSmageYxoOzQl-26" target="KWAuoRxqSmageYxoOzQl-40" edge="1">
          <mxGeometry relative="1" as="geometry" />
        </mxCell>
        <mxCell id="KWAuoRxqSmageYxoOzQl-38" value="Planilha" style="shape=image;verticalLabelPosition=bottom;labelBackgroundColor=default;verticalAlign=top;aspect=fixed;imageAspect=0;image=https://cdn-icons-png.flaticon.com/512/8243/8243067.png;fontSize=14;fontStyle=1" parent="1" vertex="1">
          <mxGeometry x="15" y="330" width="90" height="90" as="geometry" />
        </mxCell>
        <mxCell id="KWAuoRxqSmageYxoOzQl-40" value="" style="rounded=0;whiteSpace=wrap;html=1;fillColor=none;dashed=1;strokeWidth=2;" parent="1" vertex="1">
          <mxGeometry x="280" y="305" width="690" height="280" as="geometry" />
        </mxCell>
        <mxCell id="KWAuoRxqSmageYxoOzQl-8" value="Silver" style="html=1;verticalLabelPosition=bottom;align=center;labelBackgroundColor=#ffffff;verticalAlign=top;strokeWidth=2;strokeColor=#C0C0C0;shadow=0;dashed=0;shape=mxgraph.ios7.icons.data;fontSize=14;fontStyle=1" parent="1" vertex="1">
          <mxGeometry x="691.9" y="365" width="50" height="70" as="geometry" />
        </mxCell>
        <mxCell id="KWAuoRxqSmageYxoOzQl-9" value="Gold" style="html=1;verticalLabelPosition=bottom;align=center;labelBackgroundColor=#ffffff;verticalAlign=top;strokeWidth=2;strokeColor=#FFD700;shadow=0;dashed=0;shape=mxgraph.ios7.icons.data;fontSize=14;fontStyle=1" parent="1" vertex="1">
          <mxGeometry x="870" y="365" width="50" height="70" as="geometry" />
        </mxCell>
        <mxCell id="KWAuoRxqSmageYxoOzQl-37" value="Landing" style="html=1;verticalLabelPosition=bottom;align=center;labelBackgroundColor=#ffffff;verticalAlign=top;strokeWidth=2;strokeColor=#14E8FF;shadow=0;dashed=0;shape=mxgraph.ios7.icons.data;fontSize=14;fontStyle=1" parent="1" vertex="1">
          <mxGeometry x="330" y="365" width="50" height="70" as="geometry" />
        </mxCell>
        <mxCell id="KWAuoRxqSmageYxoOzQl-5" value="Bronze" style="html=1;verticalLabelPosition=bottom;align=center;labelBackgroundColor=#ffffff;verticalAlign=top;strokeWidth=2;strokeColor=#B08D57;shadow=0;dashed=0;shape=mxgraph.ios7.icons.data;fontSize=14;fontStyle=1" parent="1" vertex="1">
          <mxGeometry x="510" y="365" width="50" height="70" as="geometry" />
        </mxCell>
        <mxCell id="KWAuoRxqSmageYxoOzQl-10" value="" style="shape=image;verticalLabelPosition=bottom;labelBackgroundColor=default;verticalAlign=top;aspect=fixed;imageAspect=0;image=data:image/png,iVBORw0KGgoAAAANSUhEUgAAAXEAAAGQCAYAAABYn1CDAAAACXBIWXMAAAsTAAALEwEAmpwYAACz3UlEQVR4nOydf3xMd77/X2fOmTNnZpJMCBJJRIT8EIQglIqWVkuXlpaWpUvLll0uXbrc6i2XXvbyXXZZeumypaW0tLS0lJYWpX6GICQkESTyQxL5MXN+n8/3jzG7bm9/ZGbyY2Zyno9H/9k1J58zc87r8/m8P+/3+0URQqCjE4gU16gpZ4qVC70jmO4RwXRmU49HR6choHQR1wkkFA2cXdLCvsmXXl+RyU+3gMABCnNSzGsf7cD+ycoayhkDhKYep45OfaGLuE5AQACm0qHFnCmUJr97VZhfUquhFUv98/+/KxGEBxnwUhK3tE80u95mNhRRgNKEQ9bRqRd0Edfxe+7atYSCCqXf5ivCpgvlCloZKdDU//13KgHKZIL+4QxGx3NTYlsyR1tZDTmNP2IdnfpDF3Edv6VK1KLyypRH9+WJK74sksNb0hSMhl/+nKgB91SCJyONJcPiTHPiWjPf2EyGwoYfsY5O/aOLuI7foRBwZ29JE0/dlqYeKZFTBRkw0+5fh1cBzggMDDdm9Ilm1/dqx25mKD1eruNf6CKu41ecuyNPPHlDnHqyTOl3VyDgDIDhR0IndUUjgKABrTgKfVszJ/rGmtb3bGvcXH8j1tFpWHQR1/ELCqrUfl/mCMtOF8vpZSIBA+/E+4doxHnK2dpEIS3CePTJBG5eext9ov7+go5Ow6CLuI5PUymQmA8vOrafvSP3q1YINALUo3b/Hwick0MIQ6FXW+OJF7pZxrbgqJsN+Cd1dLxCF3Edn0RQie3gdXHxx1eFmQ6l6Z5RC0PhuSRu9ZBOpgUcTVU12UB0dH4CXcR1fAYCMLJKTBeK5bHvnHdsKLJrsP5YrmDjjgm1CkEnG41X+1gHd2zJHG7SAeno/ACmqQegowMADpmE3ahU0t+/xO/6vlRBS4ZqcgHXCAAKSAyh8VCkcbuN09MQdXwPfSWu06Q4ZBJWVqMmfJEnrvgwT+oXAoDzIF2wPiEABBWIslLoF2Hc+3AH0+pOLZmDTTsqHZ0fRxdxnSZBVGEtqlJ6nrglzdyQI45mNYIQpmlX3gDAqwSgKTwZacwYEMuuSGnLfmj4hfJ8ZxgIJpaGvbHGqaPjQhdxnUbnRqWSfvqWNPnALXnizVoVIQzVoBknvwQFQNKAEoVgaKSx6slYdl5SBLvXZqJ+MXxSYteSz90SJzokEtarHbs5tgVztBGGrKPzT3QR12k0imrU1FMF4tTjRfLUy1UaTBTQ1ItvAqBUIki00RibYFrYJYLdGR5kyPqlz/EKbN8XCNO/vy3//kipEkURoGuoAf0jjev7tDetjwymMxph+Do6uojrNDwOhYR9fV1YcOKW/Pur1SpDNNSpx0lDI2qARAET4k07H4szvdU6iM6iqV/ubHixRB59MEdYcrZcTbDLBOz9e5E1gDIASSG00q+d8e3HOnGLLQxV3tD3odO80UVcp0H5LFtYczRfnH6H18Cr+NHugo0NAWBXCbq0YDC1l+WJ2FDmaF16jFcIJG73Jce6E3fkIZUiAUX9eOGRSpy9XNqaDUjvYFr7dCI3o/7vQkfHiS7iOg3C6Tvy5A8v8htu16rOVD0fQSUAx1B4qbtl8eMd2IXEGdH52dW3pML6Tb44f8dVfn6V6N7NGCggOojGC93MU9LaGjd6NXgdnR9BF3GdeuVWtZr23gXHnnMlSrgvrLofhAIwtKNp/7hu5rF1qb7UCJiSWjV51Wn7hYtlCqxeBPBVAvQMZ0p+090yol0IfdrjC+no/ABdxHW8RiNgimvUbntyhFV7bkjpRuIbMW8CZ8FOMEOhU0u6fEpP6+CIIMMvem2qBIwoE9umTMe+T/KktBAKYOrhfmQNkClgRCx7dEQCNysimL5oqEMMXkfn59BFXMdjNAKm3KHGnS+Sx797RVhQ7tAQYmzadEEX8v2JJNlG24cncbN6R7F1CmXUilr4xRJl9H+fdaxRZQ2Wet5OEADVMkGYxYCXOnOLu7c1ftjKSufoYq7jKbqI63hESa2afKNcSX/vqrDuzF0V0aYft0RrbNT7/cFTWtBIb2dc2T/WtCqUM/xiF0KHTMIKKpV+H18VNh0qksNaMlS9trr9sXEWiQQJoTR+35WbFhvGHA0Pon8xtVFH54foIq7jFhWCFnelSBr+ZYG09HCJYg2jKZgMzhVmU0IAVCsEkVYDRrRnN/Zqx25sH8rUqR94boUy6Lsb4uzPb8rDHRLxyCXIUxQNKFMJBoUz9ifbs/M7R7J7W3KGvMYbgY6/o4u4Tp2oEknU5TvSc6eK5KlfFsrJLACTD8S9AWepvAMUXuxk2j8gxriyfUvjUWMdUgarRBL1ba7w+re3pOmXqlQEGZpuNyFqgATgyShjVp+2xvVJEca9Lc26mOv8MrqI6/wsKgFz4Y40/ki+NPf7UiXZoRCYDA1rzFBXVAKUKQQDI4x4PtE0Li7MeDiIpUp+6XMawHyTJ84/WSC+8n2FGkVp+GfBTlPiyl9XDBT+0N28fFg8N6+px6Tj++itaHV+koJ7ar8PLzq2X6tUYyokAgMFcD4idlUyQdsgA2Z1tczrHmHcGsIZSn4p3xsAsu4qIz+7xK+5UqVG3ZOcExJ84J4AZ/+WUNaAV3tbpqWEG7c39Xh0/AN9Ja7zfyjjtYQPL/LbzxRJqXbV+b/5wsobABTiLG0fHmfa/6t4bk5riyGHqkNmR5lDS9ibLaw6fksaek92PvO+ck8AUKUQDItlsyb3sA4OYqnyutyTjg6gi7jOA4gqsX6WLaz94LIw0RfyvH+MpJaMfXyKeXRiGLO/Lv+eAMyxAnHmexf5FfdE4lPCDTjz2DmWwh/7Wsd111ffOh6gi3gzhwCMoBDroTxxwdYsYbbjgYZOvgCBs99KCyOFMV3NCwd1MC2tS9iEEDC3q9XUf1xwHDxZrNistG+tvAFnFOeJOPbgb7pbn65L7xYCMIpKmJ3Z4rvBNCkdnmiepREweo5580YX8WaMqBBrVpky8v1L/JarlSqsBoDyEaXTCKBRQCRHIS2K3Tu6q3mStQ4dATUCppLXYg7niwtWXuIntjFQPjUpqcRZ/dmlJV01qrN5Srdw4866fE5SibWoWu3559OOI7mVCiiKQkIojUndzBM6t2Z2mxhKN6Ropugi3gyplUh4UZWSuveauGpHgZQQzviO0BEAvApEmimkRTCHH+tkfiuuBV0nc+JKXou5flcZsiaT31BQraIN6yMzEpz3JWlAh2ADBsewax/pyP2pLqYTBGCqeC3y82vCir9nCaNb0tQ/WwC4jCzGtGdzhsebZkXamIy6ZOfoBBa6iDcjZA3c9TL58e9uSbM/KZAGaYpvWKK5EFTAQAOPRjBZA2NNy1Oj2K11CZ04FBJWVKn0/Dhb2LC/UI5pYaDqpddJfSFpAE0DT0SzRwfFsUsTWhnrFM93KCTsarE8/KOrwqbzFQqC6R9vaVCtEBgYCs+2Zw8/3I5d2am18au65MnrBAa6iDcTskrlkVeL5eE7b0iTyxwaQhnKp0InlSpBnzAGIzqZZiVHGHfXpVQeAPIrlPTjBdLMT25IoyW5castfwlCgGKZoH8bBqM6mWZ0acvuDK7jSvlGpZr+bb4wd99NaXitRH6xhwshwD2FoLXFgNGx7MakCOPe5DbG3fVxHzq+jS7iAU5+pZJ+4bY0/sBteeq1ahU2umF7grhLjUJgMhowvRu3OCXC+GF4cN36h1QKWsyJG+Ksr25Is7OrNZgN8Kn74lUCnqbwamdudc9odlNkSN3s2mQN3JF8Ye7BXGnR+XvOcwp3qkg1AlSpBPEhNJ6INq7vHs1u7aD7fgY0uogHKOUCifsqh1985o48PrdWA0V8w1UHcGaJCPd7hkxK4I6OijdNCbXSN+sSAiAAc+SGOPtQrrggu0q1iqpvtL11QQhQrhCktWHwSop5cLsWzCmWrtuh47UKdcgXV/g/n7mrpFS7CpE8RCUAoYCOQQb0bmvc+niCeUEYR+ll/AGILuIBhqjC+uU1Ydm3N8TphQ4NsuY74g04D/iKRYJHIo3Cb7ubB0cE05l1zay4WaX2+/CSY0tmmRpnVwjon7BHaypEDVAMwMwU89L+MezqYJOhzoeM2y46th0tkMaWiAQG1N99qfdb8kZZDHgk1rT2yXhunomGnskSQOgiHkCcLpInb850bCiza03eVfDHkDQgiKPw267meX3bses55pfddQBniGHTefsX39yQBsm+eGNwCnhaG6b8pZ6WIVFuON0XVKn9NpyxH7pepXJqA98bBaC11YCJKZYpaZG6VVygoIt4AJBboQ56O8N+6Fq5Cs6HDvYexGgAHosxHXy2i3lKKEfV6dASAI7clOa+e8GxrEYkPhXzfpBgI4Vnk7iVTyVw8+qSTQMAgkJse7OFVR/lCBOJ2rj5+YIKxIfR+H2qdXDHlnVL39TxXXQR91MUDdxdh5rwUZbw/md5YkpoA5sYeIJKgCAjhc4t6MKnO3MzklvXLVtCJWBuVan9Prjk2HH8jhJu9pGuiQ/iurfkFvTNF3taR0YGGeq0+tYImBuVSvrGC/yBjDKZsf5E2mBDo93PZnk6zpT5fDL3YisLnVOXqlEd30MXcT9DVgl3T9BivsmX5m+8Ikw0EgKzLwW94fSSZBmgSwhdNaCDaeXgONPiunyOAExZrZpwtECa/Y+rwmSD6nv3phIABiDeasDQBO6NRzuYltb1sxW8Fne+UJqwIpNfZFB84954lUCmKEzuzG1+NJZdGmo23DTSlC7mfoQu4n5EcY2aklEkjd+eI84ttGto4SN+li4UAggE6GKj8Ug74+r0OG55XaoSAaBGJOE5pdLQTVnCpqxKFS18bGfh7PUNtDVTGBLDbh/ciXurjdVQp3RISYW1oELu/+4l/osvixQmzuQ7OfqAM6PmjkTQ0UbjzX7WJzq1ZA429Zh06o7eT9wPKLVrydnF0tD9BfKyE2UyYzNQaGn0HRXQCFCjEkRbDXiyHbu1Zzt2c12FQCHgLt+RRp66Lb/ybp44qA1NIcyH7g1wHshKAIZFGzPSO5hWpLQ1fmioY+y7qEZNPVUgTd2QI0ylFIJOHOVTh84Ezom3V0saI+JMi1tb6jYx6fgO+krch6kUSMylO9LoYzel2QeLlaggCj53cCmoAKGBZ9qzhx+OYVd2DGMO1zUvOrdSGXS2QJy884Y8vkrUYPOhFgAualWCaCuNMQmmxX3ase/YOEOddhaCCtvpAnHy1wXi4u9KFWso7Vurb+BfhUFPxbBZTydwM+LCmKN1PZjV8R10EfdBCMB8myfMPX1bnny2Qo2zN7J5b10g90vle4QxGNeZm5TU2rjXyv5yl0EAuMuThO/yhZnHC+XpFysVWAy+FToBnLHvcoXg+Y6m00/Hc9MjQuiLdT34u1Wlph3IEZYcKpSH2H2sta8LWQMUGvhDd8vCXlHGjXWdnHR8D13EfYxzd6SJh6+L8y9UqAk1MgHjYwUtFJw+kDBQmJlqWTqgHbuSM1JVdelprQHMqVvS1H3XhGXZ91SrrxUiuahVCFpYDZjX2zouPozZZzbWPZ/9mzzx9f25woKCWg0gvtUKwEW5RJAUxuD1vtY+EcF1n5xkDVzePfXRhJb0V/qK3XfQRdxHuF2tpu3K4tefLVFS7Yrv2YcBzu13sUTwUmfu4LNJ3JQQzlBE19GQoLhWTdmaye84WywnyMT37g24H9vXgF8ncXtf6MxNYBnKXlfDhTKHlrD2tP1cdrliVXz0/sh9Y+k/9LCsHdLRtNBirNvOCQDuCVrMn0/UZt+u0rheEUzGqGTz1OgQ+nRDjlenbugi3sTwMrFtyHAcPnpbSvWpE68fIGpAQksaM3pb+8fY6NN1XYkpGrjtl/ltn+YIIwHfFDfAGV5oFWTAH/tYh3VqyXzljlvOtwXS3FVn7Mto+O79KQQINRvwh96WMV3aGHe7c3/f35anrzxVu4Y8ODlRQHo0mzEl1TKorjsVnYZBF/EmQCNgVI0w+3LFP797iZ8OH2vi5ILgfqm2xYDnO3PzBrQ3razrylvVwFwokcevPufYVGFXwfli3OQ+LA2M7MRtHt6Zm8XRdRMkjYAptWvJy7+vvZBdrsDqg4eyAP65Lng40pj1Yg/LiDCzoc5NsOwyCdt+id/2cY4wJOhH7k/WANDAS13Na4d1NL1GGyhFt4prfHQRb0Q0AkZUiPVyqTL6T6ftGxyihiDGt3K9AeeLrxEgwkyhT1t274hk86yWdeyAJ6uEK6nVum3P4rfvK5DifC3f24WrMVTPVszNUV3NU+LdyI1WNMLtuy4u23iRn2kggC/qt+s3jLQYMCLetHRQR+6tuhpFqARMQaWS/vY5x6GcShXczywwCJxnCBaTAa+nWad0acPsNLkRhtLxHl3EGwmHTMKulMrDd2YLm74vVRDmo+LGa0BLE4UB4czhgR255Ymt6u4qX81r4V/niYu2ZAuTZQU+l1EDOOPCDg1IDjVgUDt25SPx3NK6eHc+yKUSefSuLH5dRoUaRjTf20Wp97dQD7dhcp5K4uYktTburetneZnYjhVIs9dnOhbIKurcDle7n83zUBsGoxO5SZ3bGPe6E3PX8RxdxBsYXiG23DJ5yPHb8szPCqR0g0Z8MrQgaQAPYES0MaNXpHHjQ+1N6+sa966RSHhWsTxyV46w7nS5ghY+ZjzhQlAJONaAZ9oZd/btYHrHm8rEcp7EfX9DmP7NbXn2mXIFrXzEKalGIYgOojEyjl2Z3pFbGcLWrWIWAG5XqWn7svllH92QB4W4aUbhQlAJNAOFp9uzR/tHG1d3bG08aK5jt0odz9BFvIFQCZirpfLw84XS+B03pNF2iSDUx8rkAeeq7a5C0LMljdGdTLO6Rpk+rmupvELAZRVLI48XSDP3Fsr9KB/sdQI4V4mlCkF6G6MyKt40rUc0u5Wh6qfZU16FMujcLWniplxxoioTBDdRbIUQoFAmGBPDZj3RyfRGl/C6W7NJGqxnb4mTdmWLa85VKF63cyAA7skEVpbCmFh2Z48odmtSG+Peup6n6LiHLuINwPVKdcjxXGHm8VJleH6NimAfXJkSAJUyQQuzAa905hZ3DjfujbbVPWXsZpXa70iuMPdIkTwyv1bzyQkKcJoIG1kKM7uYF3dta/y4bTCdWd9/Q1JhzSmVhu3Pk5Z9dkuKa0U3rlEzrxKINIU/djMv7tWO3dzSjcPLcl6L++Iqv+LATXlkpaj9openO7jaMXQIptG/DbO3f0dudacWtN6XpZ7RRbweya9S07/LFWafL1NGXq3WYKJ8s5hF0gAHgDEd2MNPdDS9EWVjMupa8FEjk/CvcoRFJwulqVeqNTDwzXvUCFChEoxox2Y9ncjNaN+COeFOq9Vvb4hzI0KYzMSWdJ3OBABnLvWFO/LYdy/xy4rszomtoalWCLqFMZjY1Tymc7hxtzur3XPF8sR9V/hlpyvUcLoB7ftUAogESAoxoEdrZvfDHbmVHWy07vtZT+giXg9USyTq61zhzW9vSFMLHRqIj1bqEQAOFUhqQWNyd8uohDB6P+NG29GTt6Wpe64If82tVTlJ9U3xBpyTFMsAU7qZlw5ob1rpzgFbYY2Wui3DvvNypRpnZSgMimU3PtPFPINB3SYAjYC5x2sxO7P4TbvypXRLA03kGgEcBBjZgT06qrN5SmurIcedz++8zG86kCdOLBdJo/2OGnGaXzit4tj1j3Xk3nInZq/z4+gi7gWSBuuRfHHuJ9nCggpBg+bDX6VKAI6h8OtkbuWvErg59zPj6lZtaddSPjjv2HG2VE6QtYYeqXcoBOjZhin/bS/rwPA6top1cTBXWLTjirDgnvivH5KigLhgA37d3TKmWxvjTneud7lMGbn+rH3X7VqtXtMQNQJYjBSmpZpn9Y8xrXbns2UOLeHvp+xHLlYo4Q1tB/dzGCigJWfAs4nc4oEdTMtZg+776Sm6iHuAooHLKZeHbrzA78qpUHzyMO9BCAEGxbKnx3W1jG7hhjWaXSJhB3KFJduyxamq0ngrNk+xsRTGpVgWDm7P1smEwsWdWi3l/fOOPd/dkWN+LKWOEGcr2ufjTTtHJJlfDanjwS/gnOg/z+FXbL8sTK2PN81AAR1ttDKtT1D/dsEGt8rezxVJE//nnGNTheA7vyWvEiS0ZDC5u3lUQphxv+4u5D66iLuBpBJruUPruO0yv+OjXCkh2uR7B5aAM2xC4Mzx7RLGlDzT2TytS2tmd50/T8DkVSjpfzlrP5RdoaKFj/X3duEqaAlmKHRtw+RN6WUdFGqq+yTFy8R2rkia+OcMfpUqkV9s81ujELS2GjAr1TKpS7hxd12NngHnAeI7Z+xHrparUbUeTIgqAUKNFB6PY7e/0M3yYl37mQNAlUCivrwmLNucLYw3w/dCfRoBbosEz3dkc8Z1MY9piMPnQEYX8TogqcR6164lfJojrN2eK/YLoQAL7VvN/V3I9ysRk2y0/ZEOpuWPdjAtdTe1S1KI9d+/rq7Nq9FAwzdj3wpxlst3CqKFUV3M03pFGjfX9bOyBq68Vk14/7Kwa0+BGNfGjcIr9X664ug4U+a4zty4UAtdwNJ1DwV8f0ua/ukVfk1urQZZA35pflQJQBmAFBtdNTrFMinZnckYYAoqlX6bLvL7vrsjW0N9sDrYBSFAjUaQ2pLBnx4P8dVh+iS6iP8MGnF6Pn5/W/r9B9ni9FpR89keGdp9a7T4YAMebWdc+3AHbnUri3uHXQ/iUEjYp1n8mi9vSGPLRQKzj1Qlug5n21koPBFr2vhYPLewrnntAFDucPpcvnNFWFTNax7nddcoBCaTAVM7c8v7tGPXh1nqntZXwWtxh68L87+9LU/Or3VmMf3YJMJrQJiJwpOx7PZnks0zLG5UltplEnapSBq98gK/roZ3tnfwVUQN4IwUhrYz7h+TYpkUZKRKmnpM/oQu4j9BUY2aerVEHvHJNXHRlSoVoQzlkytSwNm7wsYZMKI9u7NPO/adTmH145GoEjAZRdLEfTnCsmNlaliwoWm34rIGiAB+1c54+rE40+KENsb9dQ0rqARM3l150CfZwoa9t+SYNkbvf0+NAJUKweBIY8nwjqZXEyPYfRyNOoVYCMDk3lUGfXtD/ONnBdIQouGfPUpcLXEHtKbLhyVw81Ij2c3u7KYKKpV+R25Ic9dcFUZG18N9NiT3ZIJEG41nE0xvPNyBW6UfcLqPLuI/oFokUScKxN9/d1uadbpctZoAn3RmoQDwKnBXI3gxznRicCy7uH2Y8URdRcQdymrVhAPXxSXbroujjaRpeoXUKAQdbDR+05mb0TncuNsdJ5o7tWrKyRvS7z/NF6eW878c+3YXXgWsRgrDY9nd6bHs8vYtmBN1/WyNRMKvl8qPf5orrv+qSLaGMRQ0ChjbybTziU6mN1oH0XXeTUkarBcKxbE7roobzpcrjZKn7ikETmu4R9oYS57rYp6S1Jqpc38Xnf+NLuL34VViO5onzj1fKE04WaHGyIrv+Vm6IATIEwmeimQwOoEbF9vKeNSdkEKVRKIUlZjcaUvKK8R2tUQevvqcY0sZX7+VfT+HogGlKsGL8dzRUQmmaW2C6TqnDWoAc+aWNPmLa8KK8xWqtSHj+9oDBS2PtmdXPh7PLTDV0WsUAO7atYTMO9LYz29Ii8Z35iZ1DjfudqfnSIVA4g5k80v23pDG2mXyi7H2pkQjQK0GjIw1nhjT1TLBnVAUAGTdVUZ2aMEcNjfAgsUf0UUcwPFb0sxvcoX5Wfe08Jr7noi++g7UKgTESGFud/MbqVHsFhtnKKprvrdMwH1+lf/r9wXSVAtHVT3fxTzBnQ53BM4zgm2X+W2f5Ekp4WzDfkt3JYLYUBr/0cc6OCKEznTXiWZ3Fr/+21vy0HuNaHMnawDHAJ1tdNVz3SyT3MkKUjRwdkkLCzYZStxp5Xq1TB7+0WVhy+UKxaZqvpd98iAaAVQAk7txq5/oxM2vq6m2i6+uC4v2XBMXRJipwkc6csv7t2PdypMPRJq1iF+5qwzfeYnflFulhvmqJZoLjQDVGvBsB/bEc8nmSWEWQ547L/rZYnnitvOOTXd4DYLqLGKxsRTGdTYvfjTO9Cd38nNllXBniuTJ/368dk0ruv5jrooG1ACY2c28elAH01KriSp3x9PxxC1p+rvnHWuqZQKlCUTNleIZRFNIbctk/i4tqH9DxHqV+56e267wC6okAh+M+v0vNAKwDIXX+lon9Wxb92wiABBU2HZfcqzbmy+NFe9XKVkZCh1tdPnoruZJnVs133BMsxTxO7VayocXHdtOFsvJqo9XIAKABqB9MI2XUi1jurZm3KoaLKzRUndmOTZ9Xyin/FiFHq8SPN6ezXylp3WgOzZbBGDK7FrCn07UXs6rVOvcd/qXEFSgR2vaPrG7ZURcC+Yo5cZExSvE9peT9uyzd+RwXzrMC2YpjO9mWTg41r0ipJ+Dl4ntnXP2I18VSCm+XmwGOFMl29lovDkgqKM7YTzAWWW69YJj19EiOfnHIpy0AegbYcx6oZtlXNsgQ7PLMW82Iq4RMHaJhB3MFZa8d1WYTPmoJZoLgvulyUYKTydxy4fGc2+4sxqVVGI9lCcu2HSJnyupP+8+I2kAa6KwLD1oYEwoc8KdTAhBJbZPrwhrP70mjJc173YywSyF4R1N64clmue5e0B77KY0+29nHSsU1XeqER9E0oDe4Uz5b3taB4YHudcO4EFUAubmPaXfvKO1RySR+OSh+4O41OWRGDZjcqplkLu9xW9XqWkrT9lP5VQqP3sOI2sAoYHfJHEbh3Tk3rCyVHlzcRcKeBEnAFMramHHb8kz383i51c4Gqe7nKcQ4lTqCI5Cj3Dj0RdTLaPcyQ+WVGLNr1DTN2Q69l24q8BWxwIPjQCVGvBvKeb1T3Y0zXPX/PbCHXnstkv8tuvVKuBGAzCFODM7eoTROU8nW2bEt6x7q1KNgLnr0BLeu+DYc+i2FGelfbeYBXDuekxGCv/exzqldxS70e3Py8T2Za647G+Z/NQWTZzuWRckAoQZKYzqzK0ensDNcuezsgbuWpk8dP4J+y4iEZjqmGRwTyZoaTHgpWTz0v7tjKuDTAa3QnH+SECLeJWgRd2oUNK3XBG2fV+iIJz1zTJ5wLliETQglKXQtzWT8VgCt8CdOJ+igbtTrXQ7lCctWJstDG/LUB6FOO7JBH0jjMK0VEv/iBD6ojur8js1asoXV4Q/f3NHHmK/f5j4U6jEWczSsyUtDGzPrhzciXvLHaMGu0TCzhVJE9+9JKwodWiw+GgmkQuFAEFGCgPbMoefSODeiAmtexqiSsAUV6vd1mU4jp8sljlfXoQA/+o10znEgIk9LCM6t6n74TngLFT6vkCaviLTsYhT4XZvdo0AJRLBQ+EMJnTmxsW2ZI66k5LqbwSkiFcJWtTte2ra57nCql0Fcky4kfLpbaeoAYQCBkUwWX2i2fUPtTe97a54XimRR/79irCopFZDKy+zRkQNCDNTeKmLeU7vaHajO6tymYA7e1OcvCtHXHOhQkHwj+wEqhWCSKsBj7U17nwkwbw82s1GTtll8tAD18Wln9ySUkMpyqfDYoDzflNaMhjeyTSvX6xptdGNyYqXie3MbWnyu5f5FeU8qbezh4ZCvZ998ni0MWNMV/OE8KC6p4QCQKldTT5wTVyy4aowspWXPrSSBpTIBKPaG2/+qiM3KzqUPh2IYh5QIi5rTruwYzel2QcK5TRVhU+v0Jz5sgQpLRgM68C+0SOa3dKCM9S5gVO1RKIuFkrPHbghLv2uVLHa6jFTRNacPTue6cDufTKeeyPCzaZE+ZVK+tF8ce77udLwYDjPH+T7WSePRzA3n4gzzU+JZD90Z7K6y2sJF25LYz/MERfl1qgI8/EVqUqAYoVgaoJpb3oH0/IOLRi3jBCKa9SUL68JSz7Nl4b7oiHzD1Hutzt+IcG09tE405/cFczr5cqQjy7z739TJIfX527DoQI0DTwRZTw9IIZdmRzB7jYGULfEgBHxrFJ55MkCaerRYnnoHV6D1eC7oRMAsKsEnNGAsfGmzQPbs8vbBNM57sTuLhbLo4/eEOceKpLT3HEldweNAHYN6NuKtg9P5Ga5G8etlUn45SJp5MoL/Lr8Gg2dggx4OZlb3DPaPQsxADhTKE3+OldccKRUiWGbqGq0rlAAKu7HZl9NMc/oFsXudKcfCAGYs4XSxL3ZwqqTd1Wr1Q/i36IKtLYa8EqKeVqPKHaLOymVCgF35pY4efsVYU1+tdaAzzJBW7MBA9sa96dGsZu7tzVur/+/1Pj4vYjfqFLTv80V5p6+owy/4fBdSzTA+XJLGlCpEYyKZTNHJnDTwoPpLHdampbYteSvc/hFRwrl0Xf4xilMEjSgDUchPdq494UUywSOdi8V8Walkna5VBmd3JrZHR3KnHYnJ71CIHF7sxyrviuShxc5CMw+vLMCnPHgIplgfEfT6eEJplntQpnT7kzOgkpsu7P4dQfzpbFlIvlnPxVfhcL9c5S2RvsrPSyDIkPoDHeyQngFtgPZ/JJPc8XpVVLDZxa5rOKizBT6RRr3P9qRWxrr51ZxfivivArb+xn2PZklcnqpSKBqvivegPPlvisT9GzDYEqKeURsKHPUnVizQsDtzxGWHcgVZ5YIGpRGvl+XtVZiKC1M7xvU1918XFkD5+4W9sQtafqeq8Jfr9eojObjlYiAM1yk0MD0rubl6bGm5Va27llFgLN+4e2TtSevVamc7OPPM+AU8BsCwdQu3MGxXczj3KmoBZxnV1suOHYdKZTTGrvSVCOAwQC0MVFICTcefTHVOsJfy/j9TsQFFbZ9Ofyy/dfFqfdk4hSXph7ULyBpQAhH4dedzcsHtmeXm41UlTurs2sVypB/nHccyK1UQdD092umgbFdzcuHdeLmNcT1KwUS81GmY8s3hVK6PxRjAc7D4A4hBvyut3VYYhhTZ3NlF/uuC8u2X+LnOtSm/33rAgFQLBOsHBA0JTWS3equI09RjZr611P2c7mVKgyN1BLhx3DVY4QaKQztZFo/LMH9GoWmxm9EXCVgMu5IE/9xnt9Q7Khfz8IGhQLSo9iMcSnmsa3M7vX3dsgkbP05+5GvC6Tkxmo4VVcIgAHRxszJPa1P1Ff/Z42AuVIqD195xrGrwqH5dNz7QRgDkB7NnhifYhnjjnUb4Dw32HjOfuDYbTnFt37hn0YjAGeisPjhoMFxLZnDbn6WuVQij/5/Z+zbHD5kEwc4D2YjLAa83MM8JbWte+1/mxKfF3FFA3ezUun3PxmOQ5nlCoJp3z6wBO4/5DQQH0JXPdfNPKWrGwa7hIDRCMHBfGnJ3y845mo+XFkqaUDHEAOm9rYOi2/JfOVOifyDEAKmStAiN1/k93yaL6a09IPf2PXWhHMURnU2L3wszuRWST0hYK5VKI+vP2Pfl1ut+XQKrAvXPae2Zkp+28sysLW17m1yAWdI7Zt88fXlZx0LQg3O8JyvoRGgRiXo0YrBb7qaR3VqxRx0pxtlU+CzIi6qxHq3Rk3YfU1c/1GelNbC4Jt9vR9EuR9n6xxMC/1j2dVPxHMLadR9mykqxJpboQzZepnfdbZMQbCB8skH/UEcKoHZZMCbfa3jUiLcP+23yyQsr1wZtOS0fUe1w7cdaFzIGmBkgH5tmKznu1snRAUZMtz5vF0iYUduiHM3XObnqorvP9eAU9yCjBSGtGd3/qqzeY47XqaA854/uSps2HCZH9nQ3S/rA0kDbikEc1PMW0clcVPd7bbYmDBNPYAfIqqwltUoyWeK5MnLLgpTQ0EQ7uMvtno/fSkhhMaj0caNA+K4lW0sde+P4fJC/PaGOPeD69JwlhCE+NI+80dwVZh2DKHxWAy7NjKEPufO51UCprRaTf7surhm23UhPYymfF7ACYBalaCrjUZ6DLv2V0nmV93dchdUKv2+vCYuez9PTA9nfLsIzYWoAdFBBjyfxM3r72axEuDsf/LeRceeo4VyuD8IOOD0qn2sBY12QfQpA0WpTT2en8OnVuKF1Wrq6VvS1N354tSbNd5XHjYGlTJBuNmAp9oZd6a2M23u7KZDSUmtlnz5jjR6+zVxUX6NilDa91ffouYsqx7dgT2YHsuuTGhldOsgr0rUos7dkia+d1VYUmL3n9W3AGBopDHzV0nca+5a4EkqrBmF4oT3soR1lytVtPGDZxtw5rs/FmUsfCaBm5EcbtztzmdVAiarRB75bqZjx/UqzefTJV3cUwh6tWQwpadlcMcw92L+TYFPiHhxrZqScUsaf6xInn2uXGEsBt/2BQScQlZNgNHtjKcf6WBantCa2efOlkvWwB2/Icw8dkue/XWxHG4z+H75OCFAqUzQrw2DZzuZpnVuy+4OZut+qKkBzLUy+fGvc8XF+27JaUa43xejKeBVoJWFwph4buXD7dmV7lYiunL7P8qXRhPV6aXZ9G/dz0MIcFMmmNWZ2/lYPLcw3Ope50VBhe1onjD7o6vCglLB99sFuHBowCMRTN64bpax0aG0W+0gmoomFfEaiYSfKBBnfn9Lmn6mQrVRpGEqD+sTjThn6i4taLzYxTwlsTWzN9hkcCs741KpPPpYrjj762K5nyDD5wtYAGcHPpGm8NtEbnN6e3alu2X4VSKJ+uoav+jrAnnybYezKs/H52kQOA+5erViMKGrZUR8K+Yrd1PpTt6Sph7MFZccL1XCrD56mPcgFJw93SsoYEVfy7Subdmd7uZ/3xO0mM+uCGv33ZCG84rvt8t1YVeB/hFMye/SrP3drShuSppMxL/KExcdyRPn5NZqVofSePZZ3iBqgGYAftvVvPaxWHahmTVUuVOdVlSrpR7M4RefLlaG37JrPm0D54IQoFIl6N2awbQeloFtbfQ5d0/rL5cpIz/MdGzJqVKtkvbzvc19BXI/S+HlLuatIxK46RxL2d2rvITti6v8iv354uQywbc9Lx+kSiZIaEHjD72tgzuEMUfdbeNaXKumrD9jP3KxXLW505K4qZE0YGgH9sSkHpZh7lRQu8i6q4xMblV3K776pNFF/GSRPPWzLH7NzVqN4RUCyg/EmxCgXCZ4oj1bOC3V0j/YZCiiDXV/uGUN3Lf54ut7coQFxbzmFwVKwL8a7f+um3npgPamle5WIEoarO+dt+85dlMeVKsSUPCf++ZYCv/e1zquW7hxp7vmArdrtLT3z9l3XShXolQ/+a0BoFYFBkUZ815MMY9yd6cFOCfrv35fu6tS8p/fGnD2MRqdwO2f1N0ywpM02c+v8it2XRNnh5sNytPJ5hl9I43rG2KcP0WjiXhBldpvx2V+y5liOU7z9YDgA0gaEG0zYHqqdURSK2a/uz/yjXtq+rsZ9n2Zd1Wrr8e8H0QlQJcwxv5yqmVYbKj7vSUuliqjV52s3VEt+dGPDWfY6OFotnB6b2svd+L9Ls4WShP/ds6xqVYkfrMKJXC2j302zrR7VFfzFKub4RMA+OK6uOLvGY7Z/vSMA07j8Tl9ghY+1sF96zxeIbbPsvi1O6+L43F/sjZQQO8IY96YLuYJ7W10nXvGe0ODijgBmAqHFvNxFr/pixtSOg3f7wcB4J+l7SEsheeSuOVDOnIL3YmFagQMLxPblkv8rk+ui+lBBv+4bxctWApPJ3Irf5XAzXHncwRgJJWY3rvg2PN5njTITxIwADh/cxNNYXJ38xuPdjAtdzeMUCuR8E+v8GvevSqMblFHNyVfgMBpRPJ8Z27xkE7cQnc/zyvEtvmCY9++PKmfr59nPYhGAIuRwsQUi2cCLhPb51f5Ve9kCRNDfxAfdPVUfyqWPfpcsnlSS4vhZkO6CzWIiGsETLWgRX5/W5r+bpYwt1bQYPWDQCiB88dtxVHoFW48+lwXp6u8G59nBJlYzxbJk/96wbGC5/3jvgFnCCGUpZDcks4bn2odHelmAYuqgTl3R5r4zgV+Q3Gt5heHtYDz92YMQGIL2v5KL2t6VAjt1n0rGrjbVUra38/zh04Uy4w/pMW6UAmQGGJQxqRYJqVGGLe6+/kyu5aw5rT93IUyxeovh5eAMwe8pYnC3H5BwxJbud/npkYk4V9fFxb9+SI/NfJnDjvsCkEQZ8BLydzyh6LZtSGcoaghfD/rVcRdK+/7lmibvi9VEGXyjxJqWXOuvHuG0VmD47m3UsLdqz50yCTs1j0l7cOrwr6vb8tobfT9+wacVaaggC4htDAkwbRwQHvTSoMbqwYCMMU1avI3eeLrm3LEsRb4bpuAHyJpQFsLhSdiTesfj+cWuhs+qZFI+IVCafz/u8CvIJIGM035fOogcH+lSAGPtzVmvJBqHdvaTLlVPq8RMPkVSvr6M/ZDV6r8Z8ImcCYndGtBKxN7WEYkeCDg5Q4t7v1Mfs+WXDG5I/fLv7dGgEKR4KE2DCZ05ibFtmSO1vfKvN5EvFLQYnLLlCG7rwsbvi5WEH7f49HXH2pJAxQK6N+aKXk0ll3aLZL9MNiNhk4awBRXqd2+yhMW78yThkN19k3xdQicBzqRFhpD2xs3PxLHLW1tda9Bl10mYZfvSKM3ZwnrsqtUtPCDQiXAeVBt14D0CKZwRAL3ateIuve2cVFYpaR+liOuff+a2C/Sh71bf4hDJbCZDBgXb1o9JMk83+SGeQMAyBrhTt6Ufv/eJWFFoUOF1U/ihIQAMoA+bZiSiT0sw9zdcQFAca2Wsv2iY9sn+VJyW1PdJ2wKzsmjRCF4LILByE7clI6tmYPuuHj97PW9FfEaiYRfK5GHflcozfritpxq1PxDxDQCVCgEPcMYDItlF3Zpy+6OcLNH9l2HlnD2ljTxi3xx/pUqFSF+0LgJ+Ff14RORxqzBcaa3ukW4n4FxrVwZcixPnP1BgTTU4gf5/S5E1Zlx89skbnWf9ux6dz0gBRW2y0XSyM2X+U251f4jYoCzvqF3K0YZmcDN6NOOdTuDgpeJ7Yur/Iot18TJWgO5STUEBE4jiCfbGU+/0NUyoZWbixXA6eu644qw5dsiOayl0fMdl6ACsgF4KtqY8XAUuyo+3LjfkwP0B/FYxGUN3OUS6bmTN6WpB4vkdEEmMNP+caBTJRNwJgovJ3JrUyONW911X5E0WE/fEicfyRfnHilTo0zwjyZGgLP3R5SVxrgkbmHPKOOmUDdXA1Uiifo+X/j9lwXS/MxKFS2M/vGbA0CpRNAvnMHYJG6cJz6LpXYt+atrwqI9+dJoQSF+EzbSCFCmEDwfy54enmSe1T7U/ayJUruWvOOCY9OnhXJaCOU/+d+AswpzdCd2/7OdzVNCPDBKvlwqj1x/zrErv1qFuR4mbQJnFhRnpDAk0ni0bwy7vks4+7Gnvp8eiXh+pZK+P0dYllGm9CsRCFj4fiUa4FyBVhGCZ2LYzF914l6LaUEfd7c7WU6FOnT/VX7ZubtKyl2B+LQR84NoBKhUCJ7raDo9KpGb0jqIznG3+vBiiTx6f7aw7ESZEgfiH0U7gDMGnC8R/CGZ2z003jTP3RaqgPNF/jiL35RZrtoI8Z9sI5UAMgVMTOQ2DonnFrrb7xxwpotuP2/fdu6exgT7yfPu4p5CMKOHZe0THU1veFLEc6ZQmrzlIr/hVq1W7785Ic4eROEchdTWzImhCdw8d820ATdFvMSuJe/O4tedL5bTyyQCf6rIqlEIOoTQeKWHZUJyG2a3u+JdKZCYXVmODWeL5CHFAoEB/jFxAc5Z32YxYGYPy7QebY1b3L13h4KwL67yK766IU4s87FG/r8ErxIEmQ14vbdlXGJr4x4T4969awTMZ9nCmn3Xhamue/eX23e5z0/rYZ43oL1ppSeZEbuv8uv2XROnlgr+s/NwUa0Bc3tbFj7S3rTUneI8F0fyxbnvX+aXVYrO972h0O4nF7RmKfSIMB4dmWye5k6vmjqJuKDC9tlVfu2XueL4WplAg/88yBpxxkmmpJhXPx5nWuDJbHwoX1yw8zK/qEIi8KcKPEIAgQBPdWBPTO5hGcLQlOjui3y1TB6+PsOxp6hG86vf3dUqt0+4sfzlHuYhnhxk1cok/K8nay9fKFHCAP+5d8D53LcxGzCzr3VEUiv3Omu6ePtU7anvCuU0SfOveycEqNCAvz0aPCqpNbPXk8nr+5vi9DUZ/BpBbryiLQLAAGff9ic7mrY+nWSeXheruJ8U8fu7ZeWzbGHNR1eF6Y15M/VJn0hj3pSe1kHuNrEHgBtVavqmc459meWKv6R7/xONAG2CDHg1zTosPoz5yt2UJkEhts9zhBUbLwuTrX7Q4+VBCAAzQ+GFJG7lE/HcG57EGi+VKaP/82jNDkrznx3XgyS3Yuxz+gd1dCfTykWlQGLe/r72VMZdJdzf3nmVADazAQseDhroSaWxpMJ66LqwYOUFfq6NbrrnXiMAZ6TwfBK39ulEboZLj3/s3/4fEScAo2nAhRJ5/D8yHZtuVvtHxzkXGgFMNNDWYsBLPa2jurR2rykNAZhKhxbzxTVhxbZr4kiW+E/es+uXDGYoPB7L7nwm2TzN3RJqWSXcjXtq+l/OOg7kVSgI8ZfOTXDeP00BHYIMGNfdMs7dXH8CMIQAWzMdOz64KowM9rOZWyWAhQYejzPtHZ9iGcO4ad4AOLOO1p2xH8jxo/xv4F/PfhurAfP7B/X0ZOclKsR6NF+c+59nHQt+roinsXDltceEGPByimVS93DjVoNTi/+XmP8vEedlYiuqVnvuyhYO7b8tIYSi/KLfM+CM/9EU0DHYgPRY08qh8dw8d11XqgUt6kalkr4qg992o0pFmJ9V37E0kBrG3BzRmZveubXRrS00AZgaQQv/JFvcsPkqP7SFwX9+e8CZ7x/GURgYbdz7XFfLFHfNm1UCpqBSSd9w3nEo867qNwfWgPNllwgQY6Ywvrt1xkPRxrXuXkMjYM7eFif+v3P8BkEkfpEm7ILAWYXZP4K5+WIPy4i2Qe4376qVSPjXucKby87z06N97L1XNKCaEAyNZjEqkRscGUKfMxv/FRamCCGQ75sRH8oX39x5QxpEq8Qv3FYA58pbIEBckAGPRBs3pnd0zxoNcIYO7txTUt7PEvbsL5RtEYz/CJhGAIdG0LUFjUei2ZWPxpuXWhm4tfq2SyTsRqWSvv6CY1dOpYoQP/ntAWf8s0olGNCaqXq8k2lB/xjTanevISjEdvymNOv9LH5ROU/8xoEGcE7eIoCBbZibY7tbxsZ40HTJLpGw4wXizBWZ/AKz5j87T8D5/FMU8Gi08fSYLuZJbdzM+weAapFEbb/o2LYhW0zvUIcqzKaiViFQaQqjY9nDgzuY3oppwZwwGiBQ1+/Kgy4Xy899ki9Ov1WjoaXRP6ruAGfiPMMAI9qz+we0Z1fGtzK6ZZkFADcqlfSzhfLEdVeEyRwh9ZIH2ljwKgHHGjAi2rj34TjTyo4t3beSKqpSU7+8LizdfUMaavCzF5hXCWiGwuj27O7HE80L3S3WAoCiajX14DVh8Y58abjRj0JngHP3YWKApzuwO3+VZJ7jbs4/ABTVqKlfXxMXrL8mjIzwk2I1FxpxFvGMjTftHN7Z/KrNg/TJklo1edcVYcOOXLFfKy+KeBoLQpyWee2CDXi2g2ltlwjjx9Q3+cLcR7+tXfas1eA3qWOyBpSrBE9GGUtGxZumtQ8zHnU39lvq0JIzborj9xVI86/cc1Zb+svk5SreSA83CqMTTVMS2xj3mt3MupFUYj1+Q5z1Ra645NI9DRaD/6SLEjjzf1NaMHg2wTQrLca0kXWzfBwATtwUp395XVz2balibcX4z+8POGOlrTkK45PNb/Rvz65yN3USAC6VyKM/uSJsOFYi237Yic/XIXCW0c/sbl7Yp71pvbvhMwDIr1DSP7jE7zheLIf7U+Ut4NyBfWLX8M0jQfMoh6TZvr4uLF58np8Z62OxoB9CCFAkEXRtSeN33cwTolswp1tZ3CuhVQi4UzelVw7ni/PP3FXC4Werr1qFwMga8NvOptW9o9mNER7E/65XKEMOZAtLjpUoabWSf8U/VQLUasCzsezRpxK5OdE2OsPdzJtKgcQcyOaXfl4gja8QNFj87AUWNKCjjcaU7uZRSW2Me909+wGAw7nC/J3Z4pKbtfVThdiYaMTZh2R5v6AZfWPY9Z6kEOZVKIM2ZjgOZFWqjA+cYbrNDYlgQQ/z6sc6cQsoQggEhdgOXRcXLMpwzG7vo0JeqxDQLIXfJZtX9olm14dZDXnuvrzXK5Qhe64Kf71YpiRXyv5hCedCux/7HRRpLHkh2TzOFQ9z5xoyAffFVf7PB/PE6TcdBKyflU9LGmCkgempljf6tfNs9XmlXBm+M9OxKaNCDTP4UbGaixqFYHA7Nu+l7pZhnrwDggrb7ouOdV8USGPtsn8VbgGAqgGKkcKqgUED27VgTngygV0slkdvznTsuFGjNWgRT0NRIBEsTLWsHNzJtJhjqKp/ZqcICrEdvCYs/vMFfma4D01NKnH2PniqPZsxOpmbFB5EZ7k78woqsX10kd9y6IY03K4679d37vCXUe7HPl/qZl46MNa03JOCpRtVavqGM/YDedUqJ6n+J16SBsS3pPFvva3929lot3rduNh1hV/3Za44tVwkfvX7uyiWCGZ0t2x9Nsk0hTFQbqcP3rFrKR9ecGz7vlhO9qeiNReyBshGCv8zKLiPJzswwCngfz1j31El+GfdS4lM8Fp38+oh8dw/Cxf/V4qhoBDbF1eFFRuyhMlBPrDF1gC0CzJgXFfztF6R7EZPZt1jt6TZG845VjgUXz+y+HEIgK6tmaqXuluGeZJ5oAHM++cduw7mi8MlrQEG2AgIGvBsgmn/pO6WYZ58/i6vJWw979hx4o6c4k/WgC4IAWoI8JdHgkcktXbfIhBwhg/ePuM4lF+t+t3qG3B2n0wIozG/f1D7FmbPWrhml8lD//OEfZ8s+aeA16rAlGRu41NJ3JwHF3L/p9hHVGH95KJjw47r4timOOsgcK4SgxkKT8WbNj6VYJ5Tl9LTH5JbqQ7adsmx40yxEuYvHQZduOzhWnEUhidwK5+Kd88mzUVepTpo/Rn7oZwq1W/c1l24nspWZgOmp1nHdG3NuN3zG3C2DXj7rGNPQY3mN61TXRA4Bbydjcb8/kGJ7vZ7B5z53xeLpdFLTjm2KRLxm9RZFwTO3XjPNkz573pb+7jjtOVC0cCdviVN/uOJ2jVt/ajr5oPIBHi+k2n7s90sU0z0/z7EZ374j0007E8mmd8otWvJR+7IKY01axM4C3ZasRTSIo1HhyWa57QLNpx25xoaAWOXSNiB68KS964IkyniPy1igX99BzYjhR5tmKxJPa3DPGkXUCVoUYfzxTc3XRGmUqp/HdwCzu8gmKHQI5zJmtzT+oQnnfdqJRL+3Q1x5vIL/Hwb/Kf3tQvt/rPbP9qYMSnVOizIg57TvExs3xWIs986xy9obYBfCrgGYFh79vAL3S0vhrDuPweSSqznCuVJs4/Xrmnno+d9v4RGgAERTM7geO6tHwo48DO9U0rsWvL7GfY9x4uVuIZckTt76wJhJgpdQ+m8xxO5BZ74/dklEnalVB656bKw4Wql4ld9rgFnvI+mgZRQumpIPPdGv3as21V3sgYu9678+KZLwp5TpTLC/CxtztWsLC7IgGeTuDkPx5pWuxv3JABz656S9vEVYcMnN6TkCD+qe3ChEGf16bPx3PLH4rnFnqRPVji0uH3XhGX/kyWMjvRD8dKI01xmeJxp+5OJ5nktOPcXMw6ZhB24Li75S6ZjarifpVC6UJyVqHkv9rSOCP+JIsaf7WJY4tCSt2Q4dh0ulBIaIg1L0pxef33D6PKBsablfWLY9RztZr6zBuv1MnnIoXxxwfv5UmpbhvK71bddBdpbDRjSnt04qJNpsSe2Tber1LQLRdLYtVeE2QaF+F3anEIAhgYejTSefiqBmxPrQV9lu0zCsu5II/9ygd9Qbtdg87cYEpz5311b0sqzSdyU1Ch2qzt+py5u3lP6vZfJ7zlYKIeF+6mA0zTwYiK3emhn8zxPesDYZRL2yWV+wz+uCCNb++F3ADit9AZFsTkTUi2jfkrAgTq0oi1zaAlbzzt27b0pJYfVU0WTRoAalSDRRuOpDqblvaLZjZ7E+3IrlEGZRdILH+RKU6t4DaF+9tLKmrNkekSM8cTjcaaFca2NR2m498AKKmyXisTRO7PFDd+WKohm/W/l6VCBcAuF8Uncwt4xpo2ebJtvV6tp3+SK89+/Lo60wv9CB4CzgOnpWFPGM0nc1HY22q1QIuCsgbhQJL2w4SK/6Va16ncTOeB8J1iWwh96mGf0amfa6EkHytJaNfnzHHHFJ9fFof7UxMsFBaBcJhgew2aN72EZ1foXamHq1E+8nNfitl7gd+3ME1PcMQj9MXiVQDNQeCmJ29yvHbsqIoS+6G7WSblA4r7PF6Z/c1uafbFSQ5AfVRu6qFEI2ofQmJDEzUmJNH4YYnLfNiq/Ukk/kivO/eyWNFxR/C/uSwCUSAQjY9mc0UncpKhQ5rQnGUhnbkmT91wXVp0qU6xBfmIR+CAaAe4oBPNSzGsHxnHLQz0IHdhlEnbomrBg53VxZo1E/MZ1yQUFpza0CqLxaqp5XEpb1q0OlC6KqtXUrZmOnUfvKHH+1H3VBQXgjkgwOs6UOb67eVSY+ZcPcuvs7FPJazFbM/ndH+aKqZEeCLlGgHyRYEwsWzi2MzcuIoTO9CTf+XiBOPObfGn+uQolXNP8xyLMhaIBJSrBxATu6HOJpkmhFvqmu8IlqLAdvi7MP1wgzs2u0sBS/tXz2uX+XQ1gXg/z0n4x7NueTGL3RBLzVQ6/+It8aWKlRPwuA8clXDxDYfXDQSPiWjGHTW66LgHO3fKuS/yGQ7eldEXzvwUNBaBaIYgNpfHmQ0E9I23ut5EFgOJaNeUf5xwHTpcq4f5UyOeCAlAkErzQ0ZQxPsU8sq6plG7Zs1XyWsyWTH73x3liajhbdyGvlAlaBxnwZh/riPYtmBMWN/ucAED+PSX908v8uvN31eSa+wYV/vYjVcoEMTYab/a1DvR0EiuoUvvtvOTYdLZUSRBV//F6fJAKmSA5jMEfelkGRocypz3ZMt+4p6R/kMnvuHBXCVf9ULgA5/PQsw2D2WnWLm2C6RxPilduVCrp75537LtcoVop+N874QodDGhrtP++l6WPJ10IAWce/JrT9kM3azX46/dQIhE8F2fKmOCGgAMeGCVX8Frc+xccuz6/IaX8Ugxa0QA7gFndzSsf7WBaajZSVZ44zOy+IqzbmyuMldR/5VD7E652ob9J4rY+lcDN8SRdTNbAHbguLNl5VZhtl/2wYgXO365SIXgpidv5dJJ5RrDJ/e+BAMzpW9Lkv51zrBMU/6y8dB1mPx3Hnhjb1TzWk+6DGgFz/o48ft15x6YKh+aXkxjgnNBHdnBv5flDbt1T0xZ+V3Oqive/NgIu7skEv4plM1/sbhnVsg4hlAfxyO3+Lq8lvJ/h2HW4UE7+ud7Lfdoa837T3TKijRumny40AuZyqTzy7QzHjjs1ml9lnDyIQoCEUBovp1qGJYQx+939PAGYu3Yt7k8narNzK1SY/PCgBnCG04JMFP6tp2VSryh2syfXEBVi3ZDhOLwnT0zzp57nD0IIwBopTOjMLR/ckVv8Y3m/v4Sigfs6T3zzbxmO+WY/jPu6UAgwvAN78Lmulpc8aSNLCJi8SiV9wXe1hwTRfwVc0IBBUcasF1Mto1qZ3U/w8EjEAWcr1/fOOfacKJbjXF+eBmeBQozVgGe7mKf1iWLXu3tdRQNXLWiRa8/ZTx26JYe18sM8X8C52mphovBUnGn9sETzHHdfVgIwskJMx25Jc/7rlGNRC9o/QycEzmKjnm2MeS90M49tF+J+1oVGwNyqUtOWfF97/M79rAt/3IsQAJFWA37d1Tytb7T77wbgnMj+cd5x8KNrYj9/TZ0jAGgDMCrOtHVUN8tUT/LgNQLmYok8esY3Ndsi/Kwe4kFUAvSLMOb9pqdlhLtmNi48FnHAmUf+91P2I+fuKmGEAhKDDejXjl07JN680OKmu4xKwAiSZvsyT1r2ziV+Mgf/qrZ0IWuA2Uihb2s68/F4bmGXNsbd7l5DUom1qFrt+dczjiOXyhW09LcTu/tIGtDOasDjsezaJxPNb3jSPoGXie34LWnWsjOORcEG/53INAB9WjM3X+humRBrc9/AF3AaGPz5lP3y5TIFwYx/TmQaAYJYCi8kccuHJnBveHIOIKnEerlEGTnnaM2WVn66IwOc30WPVkz5b/tYB/5cHvgv4ZWIA0DOXWXoR5f4LfGh9P6HO3Krot0slQeAGlELv1KqjPzgirDuSqWCEMY/08RqNIJ+rRj7Q9Hs2sfjuYWeFClUCVrUoXzxzfeuCFPhhyXzgHObLAEYEsFkPp7g2URGAKaoSu227TK/88tbUlyoHz4TgHOlBQMwpgO7fVgXy2s2D3LgVQLmWpk89C9nHXtKav07tBhuMeDZeNPiIfHcQk+uIarE+nm2sGrDZWFykJ9+D4DzuegQYsArvawehVkfxGsRB4DbNWpadLD722SVgLlaKg8/nC8u+OyWnGqG/+U6A870qJacAc+0N24d0NG8IirY4HaKlKQS65USecTn18W/HilWwv0x9x1wfhftg2g8FcuufSyBe8sTxxVBIbYLRdLYrZeFdbk1Gqx+eg5QqxBEWA2Y1JmbN7Ajt9yTa/AKsZ28KU3fkMkvscvELyd1Cs7vIjqYxoyeljHdIoweNTMTFGL7PFtY8X6WMNnox2cBkga0DzHg9z0twxJbG70ScKCeRNwTCu6p/c7cFCfvKZAml/Aa/LFIQyFAqUIwItJ484mOpvndItmPPVl9l9Rqyd/kCvN35Uvjq0QNwX64RdQIUCQTjIgyFj6dyM3oHG7c60nJeJldSzhwjV+yK08aLanwK9PiB7krEzwWaSwZmchN6xLu/k4EcGaC7c8Rlu3KFUcrGvwuDx5wCu1diWBgpLFqbDI31lPRKndocftyhBV78sSR/ppSCgCCStAuhMacPtbBcR544v4YjS7iggrbl9n8ku8L5ekZlSqsfhrnrFEIWnAGTE7mFvaKZjeFepAepRBwJwrE3391XVx8plK1cpR/fheiCmgM8EoSt7p/rGmVJ+1CASCzRB67+zK/7kyFajPCP78LV/Xl7xK53UPiuTfCgzyLdd6qUtO2ZTp2fl+qxFDEP78LCkCeQPB8LJs3IcU8qm2w+1aCgLM+5f3zjj1f3ZZT/M2NygUFwK4QRNtovPGQtU+7UMbtyMVPXrsxRfxkoTT1YLawJPOeGib7abxXu+809GiUEWM6cwNjPLSIul2jpX10wb7lUoWacFckfrvi5FUgOtiAKSnmSd3bsh8yHhTuSBqsn1x2bPjmhjT2jkD8MqQGOA+1wQDTu5kXP9zetNJsdL+YCwAulsij/3HOsSPfrsHoh0VtLgolgle7cJsfj+cWeJoDftehJWy54Nj1baGc7I9VmC54lSAyhMbCfp5XpP4UjSLiN6rU9I8uOLZcrVRjqvzQ18+FQgCapvBKd/Pix2JNb1HOuJzbAv7ldWHJZ1eF+aWi/1nFPQjvzG/NebmnZYiNMxR58l2U2LXkv5+1H7l4Vwnz522ypAGtzBRm9LJM6NGWdbuVsovPr4srPsh0zBY0/1x9uyiVCV5J4nY+k2yeZmXdr9AGnKG1/zpWk11U67Sk8tevQ7gv4G/2C+oZVc8CDjSwiDv7+QpLPr0mTvXXKkMXogb0iTSWzO5rTTR7UC4PALeq1bT3zzv2XLyrhKt+/HW4qmYndzcvfbIT94an1zl2S5r9zln7CkGtv7E1BRoBurSg7dP6BvVvG2TwKGQgKMS2McNx8FCBlObP4k0AaBQwpQu3fGii2aMUQsAZQvnj4ZqCSofm15OZrAGRwQbM62vtH9OCcdtesS78H2ef+uTWPSXtqwJparXkn6tvl1i14AyY1N0yo1+00W2jBsBZwPRNvvD63y8KCxTFP78L4L51HoCElrQwPS2or6eCJWvgNmfYv9h3Qxrkp4knAP5VyPRQW2PmK2lBAz3Jg3fhUEhYYY2aylDOnHI/fURgYSi8kMStHJbIzfP0GjnlytD/PmnfV+XnAq4SZxbKjN7WJxpKwIFGCKdcKZOHbzjn9Dj0l62yqzjDxlB4ONp4cLSHZcEqAVNSo3bbcZnftLtASmnlx5VlMgHCjBSGdDRtHZVs9rjKLr9SSd9wznEos0L129RBwPmChpkoDOtkWj+qs3lafVxT0mDdlcWvP5grji+X/asro0qA1hyF8V3Nc9JjTSs9vc7VMmX4a9/W7OHgv6E1wLk7ax9swJSelhGdWxv3NuTfapSY+OVSeeQ/Mhy7XB3GfBmVAAYD0L0lXf5MknmapzmtlbwWk3lHHrvsvGMZkYlfpg0Czu9Do4BuNto+trtlQnJrZrcn17FLJOz0bWnqPy7xSyoEzS8NC4D7doIa0LslbX+2m2VKShvGo77XP0dWmTJy+wXHlotVqpUivt9uWdSAJBuN55K5aX08bCcga+CulsrD3zpeu4MQ/92JAM5nJCbIgJdTLaM8KXRzl0bLTrlSKg//y2n7ngqe+OQMS+C0Q+oQTGNYLLuyX6xprbvdxABAUmG9WSn333FVfPeL21JUOEP55P3WBUEDWpooDIlhdz6VxM3xxDYOAG5Wqf0OXRcWbMmThgbDP7OSAGdXTpECRrQznni2q2WKJ43d6kqloMV8mS0s+/qmNLZE8N3spRoV6BlGK1N6WQd3CPWsnYCsgTuUK7y59gI/n4X/r8Bbmin8Ic06onObhl2Bu2jUFMOzhdLEP512bILiW0Iua4CdAL/uyO7vH8OuSvCwIKGoRk09eUOcuiPfaRdn9fUl1E/gWm12b0kroxK5aSmR7HZPwicAcPKmOPWTa+K64yUK2pr88/sAnBN8C5MBz8ebVj8ezy3wNH3QHRQC7mKR9NyOq8Km8+UKY/WhgjhCgGKZYFIn08EhCdzCGBvtUcxXUGE7dF1YsDWLny34aX98FxoBwFB4Pc3zTp2e0OjFPueLpPHzv7dvMftIClWJRJASRuOlZPOkhHDjfk/KxFUC5nyhNP6L68KK70qUMCtN+cS9eYJKgHsqwbhOpsNPJ3IzPG3SX+rQko9cE+ZuyxMnyjKB2U87DwJArUrQKZjGi93MU3pGsptpg2cZF55SWqsmf5krLnnvqjAyxAeeLY0ANQDGdWD3j+xinupJP3TAGWL79Aq/bm++NFpQ/M9S7kFUAvAGYOlD1gk9Ij1PMfWEJim7v1Qsj/7Dd7U7QpqoEo0CIKhAsUYwt6t544D27MrwYM/E6na1mnYwR1h8pEgees8PLcJcUHCuNq1mA17rYZnSOdy429P83vPF8vi9V/hVJ++qYZyfWcf9EIcG9AtnSiZ2t4yIDKEzDB4UdgHA4XxxfoiJKuwV6dkKjVeI7XKxPPrPGY4Ndl5rsna8GgEqNOC1FG7lIx25pVYPXLoAZ0vd98479uy9IQ1i4BsLOk9RCVBNAX95OGhMVw/P0LyhSURcu9/46tVjtbuCG1nICYAyiaBPGwbTUy39I210hpGm3K4y1ADmeIE4c2eWsKLQoYEQ/47lFYsEQ9uzJTN6WXoFmQwlnoiVqMK6P5tftj9fnF7qxy4rLhwqMKIje/TXXS1jPHEhcrHuVO3xE3eUfmYGGBZnWjs00TzP5GF2T62oha856zi7v0AKj2jk8JRKAIoGpnQxLx/c0bSY9cAPFABqJBL+97P2I8cK5QQa/j3JqwSooYC/DggaldTGuNfTSd4bmqwBFgGYS8XyyPnHa3eYGqlSTyUATQO/TuLWPxbHLfT0xbwnaDHvX3DsPnJbTgX8+yRdJYBAAa/1tLzxcAy7ytMXs7hWS/kg07HjdLGcoPh5dgHg7Mb47w8FvfFoe3app9e4J5KYvxyrybpapVpdrxkB0LsNc3NiqnVEhId59pJKrN/dlGb9+ZxjCddIiyCNACaGwm9TzG88Gmfy+DuxyyTsP76puXurSvXrRQ/g/E5EA7C0f9CYrhHG3Z4WNnlLk4m4i7OF0sTlpx2b1AY+7KQAdAqlld/0sIxI9KJ/77Gb0uw/n7avMBL/XkEAzjYCUcEGzO5jHdihBeNRZgEBmKul8tCVZxx7yu0aGB/NoqgrhABBHIWFA4IHxnqYbQEA2eXK0DUn7fuK+f+bVqtoQJjVgNm9LSOS2hj3e/ry51cq6StP2Y8U1mgNHk8OYSlMSbXMeCia9ajgDXBWcM89VH33To1/F/EATgGnGQpzG/kQ88dochEHgBMF4vR1F/g1dpmgPjXAdWetTBSGxJk2PptsnuLJdTQCplbSwleesmd/XyRb/dXf0QWB0zVpeJxp+9PJ5hmexjXtEgk7nC8uWHrOMTPS6L+plIDzpTRQQOcwxv5a/6COwR6YWbs4dkOcvfY8v0L6mepcV+ve+T0tqwd1MC329PzBLpOwz7L4NZ/ni2NFtf53QARAW47C1L5Bo7q08qxGAABuVKrp//ldzZFawbcy0zxBA2A1UpjW3TyjX3uTx5NafeETIg4AR/PF2Zsu8SuqpPoRclEDQlkKqa2YrGe6mKd5msMqyMR24rY0fc15xxJN8d8cZ8D5QqoESLDReDrBNKt/e9NqT66jaODuOdSYVWcdF74plLlIk/9mngDOHUkQQ+Gpjuz20V0sL3nSiRFwWsl9fV1YvPKSMLNlHVqmUgCKRIJHo4zCrF6W7qEW+qanf/vULWnqx1eFdbnVKijUj5gLGtCzJW1/pW9QemSQ+0YngHOnllehpC85VnuoWgoMAbexFCZ1Nc9J7+B5ZWp94jMiDgBH8sW5/7jIL6v14sdWCCAC6NOCrhrYwbT8kTjTck/MCRQN3K0qJe2TLGHD/ttSgo3275WmrAFGBng80nh0WLJlTjsPbPQAZzrl8RvizBUX+BWq1HRZEvUBASARoL3VgOc7c3P6tTet9qStMOA09vgym1+2OlscHufGgaMrK4hmDfhjD/OslEj2Q093AbeqtbSDOfySL29JQyQvFhyEAAKAQeFMzqTeQcNamimP+sMrBNzFO/Jz687Zt5QJ/p1CCPzLH/TlbuZ5AzuYPHJqagh8SsQB4HiBOHP1eX6VqhC3VhMEgF0liLLSGBpj3Dgwjlve2mrI8WQMlbwWc+a2NHl7trjgjkNFkJ8H8Cpkgp5hDJ7pZJrVK8a02ZtGTYJKbP9z0n78i1tScgs/fisJnO1jHwpnCkd15qYltvY8Np1dJg/dcUXYcqhIDmvlYY6pRgAHAUZ2YI+OSOBmtA3xzEBBUGE7e1Oc+Ol1cdU5D0y2VQJUacBLCezOZ7pYZnhSN3H/OszxAnHm3y84d9f+2iPeBSEAbaQws4fZ4x1sQ+FzIg4AZ25Lk187VruhTR0fQIUAVRrBU5HGnKHx3LykNsa9nq6ozhVKEw/nifMPlSgJLPHv8ImiAeUawYtxpsOPdTIt9PTw8odUCiTm8HVhweosYXIrP/QCJQCqVYJfx3N7n0rg5ng62QPA8RvizPevCKvyq1V4e1ZC4DTZ6NaSxpgkblJKFPuhJ3Z/gPPQ8+vr4qL388RBYQaqTgfOsgawRgrPd2I3PpVonuNpVaqigTucJ7z+4RVhQZkfm3w8SC0BFj9kndI7mt3Y1GP5IT4p4gBwMEdY9OZZx4IY9udfjFqFIIwzYEo387wekcatNs7gdrdBwJkOdjCbX3zgpjTxlt3pc+ln2vS/qJIJWlkNmNbVPKd7JPthiAddGH8OQSG284XShD+ecqxpBf+Z7BQNqCHA4r6WGSmR7HZPD3V5BbYvrjhWfJQrTZbq2cBY1ICWLIWhHditwxK5eSEmz57papFEXSiSXlh3iV9x167B9jOLIkkDCA3MTDEvHBjHLTd6GJtXNTAfX3Zs2p0rjXfIBKyfPBc/x02J4L/SLIsf78QtbOqx/Bg+K+KSSqzH8qU5807bF3X4ESEnBChXCMZ0NJ14Nomb0iqIzvF09X3khjj36+viAlfXOH+OnhA4TXqfjDIWju1qHhcTypxoqAIEjYC5ViY/vvS0Y9/dWhVBjO/Gxyk4w21hQTTe6mftHx3KnPb0eyms0VJ3XXJs/PaOnAqtYVJN1fsprD3C6PIxXS0TElt5lharETA37yn9tl/it31ZKEe1Mv7fxYmsAREWA6akWib1iDBu9aatwHvnHXt254rD/f09cpEvESxLsy4c0IFd4WkNRUPjsyIOOIX8aL44Z8EZx6Ko+6sIV8k8GAr/0dc6pUcEs9WTiksAKBdI3Lbz9p1nSpTUGj+2jXOhEkAC8HIyt35YAjeP89CByF1u3lP7vZPhOHS6VOZsPhonL5cIHo02lr/ax9ol2GTwOH3wSpk8fPN5fo8rC6QhIXDGykNZCmO7mhcPiTN5vBIUFGLblyMs+0eWMJXFvwRWJUCQkcIf+lon9IgwetzzQ9JgXXWiNvNUsRwH+H+xFwAUygSLe1sWpncw+ayAAz4u4oCztevhXGH+ivP8fBsN3JMJnu1kOjE51TLESFOip4dRpwulye9n8hvuOHy/x3ldIHCupl5KtUzqGWFs9OKDSoHEfHDevvPALTnNl2KgBIBdA17pal4/LN40x8R4/jJ+f0ucvu48v8YukkYv9NIIkBrBlMx+KMhje0AAOFcsT3w3w7Gp+P5zH2424D8eCe4S7kVbXVkDt+Cbav56ZcNPbI3FPRWY08O8dFBHbilLe9bBs7HweREHnLP8/iv8sn23pOmv9rYO83RrCQDlDi3uw4v89j0FUloQ7f8rBlfhTo82xryXe1qHhHmYDqYRMJpGGNpAKZSHYQa7TMI+vsxv+vKGOFz2Ad9MQoBgjsLL3Sxz+sWwHqcPCgqxHc4V5//tIj/Xiqar1FUJYOMo/PGhoBGdWzEe96rmVWJb+739XEGVGuetgAsqsf3XkZri7HKV8/cKZsD5PikEmJzMrX4iyTzf0xbMjYlfiDjgXJEzNERPcr4B54t47a4yZOlp+44qh4YgH9321xVX4U4UR+HpZO+22opKuM+vCX9elSlMXzUwaEznNsa9nhadAMDuLH7dZ9fFqU1V3EHu/9elJW0fn2IZneBFm4VKXov58DK/fUeu2C/MB54ZQgCeAL/txq39VTz3GuNhKBFw5nF7mv0CAIXVauqfjtWeK3I0fNl/Y0DgDDO9kMCtH55sftXTw93Gxm9E3FM0Aqa0Rk3+NEdcszFHSG/HNn0/Zm+RNGfZb2oYnTch1TrK00ZKGgFTXKN2e++CY883d+SoYJpCsUTwWqpl7ZOdTG94E1P/Nl+cuzdHWHa1SoO5Eb00tfvu1o9HG0+M7GqZFmH17LsBgDvVaspfz9gvnC5R0OoXsqQaEwKgRiV4tK2x8DfdLSMigumLjdk9jwBMQaXab/0Z+5Er99SAyEBxCfiYeNPGp7tYZviLgAMBLuKVghaTXSKPWJXJrym3awj112bf93G9vJ2CaIzoZFr6SEfTco72TGgFhdjO3pYmfnBFWJVf878LmuwqwehOpv3PJZunhHiYsgkAuZXqoI8yHe9/UyxHhTRCyqakAWaWwm8STMsHxpuXWxl4lD4oa+CyS+XhK885dpTWqLD6aNZN7X07wV935mb1imY3N8ZBtkbAXCqWR797wbHteo0GcwAIOODc3k9I4DaO6GL2KwEHAlTEVQLmepn8+Jd54rLPb8opQQb/T3dS77cTGBJpzBwWz82Lb8185emh7p0aLeXQdf7ND/Kk0YwKmH6wUnZVMw6KMmaN7WYeFxHsWfUg4HT42X2JX/fJTSndiob7Hapkgm5hDMZ35iakRnvurFIrk/BjeeLsd68KcyWpfvO/GwJRBRQa+HUcu3NwJ/NbbYM933nUhXNF8sQN5x2bbtSofh+SdFGtAr/vyq0dlmR+zd8EHAhAEa8UtJhvr4vz994QpxY7CMwBcHgpaQDLUPh1omn94I6mtzwt/gCcWTn7soUV391VbcE/U21J4HS16XU/rpzY2vO4crVIoo7lC7PXZwmzKRX1uv0mBChVCEa1Z7Oe7cxNiQllPPJ6BICSWjX5i6vCij0F0lCDH5l8aASo0YCHW9FVwxK5OWlRDVNV+HWusGBXtrgov1aF1d9XRfe5IxO8kWpZPjieW+wPh5g/RsCIuAYwF+7ILxy4Jiw9VabEEIKAOGyxqwRxNhqzelufaBdKHzd5mK8qarB+kunYcPi2NLbI4WxcVRcEzdkg6qUelkk9Iz1PXVQ0cKdviZPXXuDXVAsEXD3EyRUNsFPAjC7c6gGxphUtzJ55PQLAtXJlyEeX+PfPlinhNOWfE79DJYi0GDAomt3+bIpliifuQT/Frix+3Uc5wlRert9JuCkplQn+o5dl8cA4brmvpxH+HAEh4g6ZhO285Nh06KY8vEZ2ZkT440v4Q4okgpeTuIPjupjHmFnP4505FerQnZmOTRkVSjjxwEXJ2aoV+E2KZfHjXmTBEIDJKlWG/89Z+66CGu8OPAWVwGQyYG4vy5TubY3bPS3G0ADmzG1p8tZL/LrbtZrfPzsaASgD0KMFXTKmu3VSQkva4x2Uiw8v8Vs+zhHGa43kwNXQuFoAT0ziDo9PMY/yJu/eFwgYEf/gIr9ja7YwqLUPZRF4iqwBKg3894DgUYmtmL3elEEfzBUWfXxFWFAhevc7a3A+/MPiTAdfTrU84c21yhxawuoTtRcuV6qcJ7slh+qMf0/tZfXKfUfWwB24Jix5/zI/Ww0ASzkXCgE6hNJYOigkyOTFClMDmD8fq8nNKFViAsFyz0W5RPBCAnd0XFezV96pvkJAiDjgjLt+kOnYsSdf7OfP8TpBBQZGG/NeSrUMCTMbPCrcAYBaiYR/mOl4/4sCaUh9ZvhJGjCoPZv5Sk/LQG9WMHaFhK09WXvubLES484TqAEYEGHM+k0v64iWnGeFTYDTbX1DhuPw53liWqAc0AFOAU9rayz8w0PWLp5mLgHO5ICVx2uyTxcrcfU5vqbGrhKM6GA68esUy5j6bgrXVASMiAPO0u9tFxw7D96S0hg/2ha7fgGOpjCpm3nho3GmpZ5WFwJAbrky6G9n7YdyKhsmg0DWnCu9xY8ERwR5YWOmAcymDPsXX92Qhkjqz2/VCQALQ2FoLLt9XHfLOE//JiFgynktbsmJ2uxrdxVYAkTAtfsNswbFsKd/n2bt4821qkUSteGs/dDxO3JCgIS//1mJOaQde3pcd8voFhzl8fmJrxFQIg44m1ptP2/ffvi2nEb5gZBrBKANQLcwpnxsV/O4TmHMQU+vZZdI2Onb0tQVFxxLDAoatI+zSoAIqwFz+loHx7VkDntzrb05wqpPs4WZpT/Re1q+774zIpFb+FicabGnf0fRwF0plYcvP2PfUcMHRptUwDmpWhjg2QRu47NdzNO8cV0vqdWSN5yxH/quVA73dzMUFwTOLKZB0cbTY3tYx4Z5sYPzRQJOxAGgnCdx2y/Yt399W07z5YWWrAGtzBSGxZo2Do7nFoeaPF8dFFapqfuvC8veyRGHtGsk02JJA6IsBkztZRnXJdy405vdQ0axPH5HpmPT2XsqY7svHi63m8cimJynu1hmxLekPZ7gBIXYjt2QZq+54FhAB0ibVMDZe7wtR2FsV/MbA2NNyz2t3CQAc+uemrbjomPTgSI5wVe7UXqCQoDHoo2nx3a3jvW0t5AvE5AiDtwX8kz79n0FUlpd0+kaC0KASoVgQDhjH5XETenelt3u6bUkDdbzt8UJm7KEddmVKlqxjVtdKKhAK47Ci13Nbzzcnl3lTcvOomo1dedFx6bPi5QUlhAYjRSe72DaPjTJPC/Ui+1vJa/FfHldXLYtWxhrRGBkWACAQwU6BRswqbtlQvdI44ferMCvlCnDN5537LlUoXjtUORLOFSCYe3Z02NTAlPAgQAWccAZI9+e6dj+cZ7YL8zY9KXTrl7oGgO8HG9a36e9aX1UCO2RizjgbEB0PF+c9d51cSKjNZ27jqQBDA28mMStHRLPLbR46JYDAPcELWbXZX79mbvK0BfiuXn9Yk2rvamiK7in9Nt5Wdh05I6cEEgCLhEgKZTGSynmYYltjF6lEWaVKSM3nLPvunxPRaCswCkA5TLBc3GmE2NTLGMDKQb+QwJaxAGgSiRR2y86tm3JEdMjTU0r5MUiQc9WDCZ25SYkh7O7vUn/On9HGv/ZVWHtyTLVZvGBqlSFOIX80Ujj6Yk9rcM8tT0DgBpRC68WSWRbLxs7Xbgjj912ybHt8j0NnKHpv6P6gleBzi1p/KGvtXtbL1oiAMBXucKiL66JC7Krnf1zAkENXHngExJMR8d2s4yzBUgWyk8R8CIOADUiCd9+id+2OVsYFNUEQq4RoEwlmJLI7X6ik+mNNkF0jqdbX16B7WAOv2Rvrjj9rkh8qipVu+8s9FBrpuTlXtYnPO2uWB/suyYu++QKP7dUDAyjXheiCgyINub9rpelf5AXDkUA8HmOsGJrljCbr2eP0KaEAlAoEkxM5A6P7WoeFwh54L9EsxBx4F9C/uE1YVDLRuxmKGqA0Uhhdqp5Vu9odqM3MePb1Wra+xccuy6UKVGKD1fPqcR54PmH/kEDO3hRjOMJvEJs75137Dl8U0qXtcA5wKTgdLV6NIYt/OND1k6MwfM+4gDw6VV+zY6r4nRRJQGzQwGACpnghfjmI+BAMxJxACirVROWnLBn599TG2V1JhOgTxumcGKqdURksMHj2De53xfmb+fsW6r4pjFa8ASTAZj1UNCU3m2NDdKQ6YdUClrMkmO1BQVVgWMT5qJCJni1l3X1U51Mc7ztHf7OafuRw7eldFWrr9H5BuL9+oU3+lkTWwfROU09nsaiWYk44DwM/MtJ+7m8KrVBQxFmhsKTHdido7taJnnTHU1WCbc9S9j2j0v8SH9sKUBRwG+6mlf+KoGb05B/J7tcGfrWsdp9otz4/pcNiast8JTu5tW/iue8EnCVgNly3r5rT540PECiJ/9EIUCcjcYf+lp7epMs4I80OxEHgBuVSvq6s44j1+6p9brdJgSAAYi1GDCuh3VSzwjG465/qgamktfi3jxWk11wT0WwjxoT/BIETiF/PpHbPDyRm1XfxgUaAXP4hjh/7VnHIn/tPvhTKMRZpTqnj3VCaqTnTvQAUMFrcTsv85u+KJDSjQis70klQHwojWm9LANjWzCNGr7zBZqliANAboUyaGOG40B2pcrUh5ALGtCCpTAo2rj/mS6Wqd6kNPEysZ28LU1fftaxhCMA4+fLJkKAag0Y34nd+0yyeVqIyVDiqRnzg9SIJPzTq/y6ndfEkQx894zAEyQCxAUZMDHFMi4l0rjTmxzwCl6L25Hp2LQ9X0pv7efuVj9EJUBiC1qZnGp5oqOXlcP+SrMVccDZY2RDhuNQ9j3PQysaAWo1IK0lLQzpaFo4sINpuTdjKqxWU/fmCKs+zZPSLT9j2uBvaAS4qRD8ezczhieZg7zt31xm1xI+vuTY9EmB3C8kgL4nV/gkuQWNyamWJ7xpwwA4n6d9V4UV7+WJgyICTMAVAiSG0piSahncMax5CjjQzEUcAPIrlfS3zzhDK+720hBUgGGAkbHs3sGduMXRIfRpT8cha+AyCqWJu7KFdZkVKnwh97u+UAkgA3gi2pjxdBI3vV0oc9qbleXVMmX4x5ccG74qUcIDbWUpaUDfCKZwQjfzqHahjMfPEwDkV6rpGzPsB74vU7iWvpSLWg9ImjOE8vveloEdmmEI5UGavYgDwO0qNe3Pp+yncisVmOsYW6lWCOJDaIxL5malRrGbvWnLWi2SqM+v8n/+4oY0tlKsu+uOP6Dcd59/uYt5dXosu9zmhfEyAHx1XVi055q44Eq1ihZ+ek7wU1QrBE+0Y3Mm9rAMC7N43oYYAK7cVYa/f96x62y5wgRKFaYLXiXo2ILBa32sfaJtni+cAgVdxO9TUqMm/9f39sv5FcrPups7wycET0SzOeO7mUe1DqJzvMkYuFyqjPw0y7Hu+7tquBGBk9cMOO3TgkwUXkuzjuscbtztTfm8BjDvn7Pv2ndTHi7IgdOB0EWxRDC9m3nrsHjTPG88VAHg23xx7q5sYVlutXfuSb4GBcCuEHRoyeA/HrJ2CQ+ms5p6TL6ALuIPcNeuJvznd/bsG5U/3mdavW999VI3y8ohcewCbwp3VAJmbzb/18+vidNLhcATJV4liA1lsODhoMRWVkOeN+GTSoHEvH2i5tS5CjXccL9vdiBRphD8MdWy8vGOJq+eKQA4lCcu2HqJX3RPIgG1IAAAh0IQ24LBfz5sTWxlbT554L+ELuI/oKxWTXjrhFPIuQfeAlEDIoINmNc3aHCHUPqoN9kVZQ4t4Z2z9iOXypTwQLK9clEpEzzVgc2a0dvay0h7V1l4+a4ycv3J2l13hMCqLAScWTslCsHK9KApPdqyWxkvdiqAs4x+51Vhtl0OvHdaUJ0C/mYzK+SpC7qI/wh3atSU5d/bL9y4p8JocLazHJPI7Z3Y3TLC22t/XyhP33zesaZcCLByOdzPrCDAv/W0LB7cwfSWt5WFB68Li96/LCwQlMB7RlUCWE0UZva0TEmNZDd704udAMzuy/yabdnC1IA6JLiPrAGxoTTmPuR9w69ARBfxnyC7VB763yft+1gD8NtU65Tekd6VjosqsX56RVj/YbYwPtBCAuT+f+EWA37bwzKhe1vvelvLGrjdlx3r3ssWJ3IBVsADOM9VQs0U5va1Dkto5V0bWUUDd/Aav+h/LglzTQjM78piovAffa3DErxsuRuo6CL+M+RWqoNsHFXYymzwePvmckz5INOx46siOaqFkQqoF027n33SN5zJG5diGetNmiUA3HVoCZ9c4jdszRPTwwMsfZDAuQLv3IJWXuphecrbHPAakYTvvcL/9e/Z4tgwOrAWBoDzuwozU5ja3TKpVzTrcfVzoKOLeAPCy8R2qVga/bfz/IZShxZQjinA/bJwGhgRZ9r6ZJJ5vjf2cgCQc1cZ+sElfufXRbK1qXu/1zcEzgnvoQgm74Wu5gkxocwJb67nEvBVV4SxMX7YU+eX0O4L+JQUy5S0dmyjNFDzV3QRbyBuVqn9juSJczdeF0eGoulcdxoKUQMirQa82Jmb1beD6R0anh/KEYA5d0sav/K8Y1O5Q4MtwPK/CZxWas90YI8+29U8xZudHQAU12opX+Xwi97OFkdGB6iAB5soTE+1TOkdrQv4L6GLeANw+rY0eVe2sO7MXYWx0VTAbXOrZIKHIoz233Qzj/C23Nkhk7Bvrgvz118VZhuUwJvsAKBKBV7pzG18LME7M2wAuF2jpW06Z9/3ZZEcFtnIfqqNgUqc/fdfT7OM6x7pufdsc0IX8XqkSiJRB67wS/YUSBPvCQRcABVaAM4V0l2FYEI8d/jpRNOMNkHeFVvcrtHS9l3hl316UxrEIXD6n7jQCHBLJvhTmnVh/w6mVRwNrzo4XimTh390id9yqkyxBYqV2oOoBJBpCsseto7o3Ma4t6nH4y/oIl5PXC6VR+65Iqw5WaZE0Qg8QZI1QKKBP/awvNE7mt0YxHrnmnKxRB790SX+/cuVKhdgRwUAnILEG4C3+lonpbRlP/SmWhUATt2Wpm6/xK/Lr9ECcreiaoCDBlYPDH4ivpV3B77NDV3EvUTSYP3qmrD4s+vC7Lt+5LrjDrxKEGqh8UZfy4hOYcavvC1K+TZfnLs9i19WJhAEoB5B1oBaA7BmYNCw+FbGr7zNlz9TKE1+9wK/oYTXAvL7UgnA08DfBgYPjgtjjnqTntocYZp6AP5MBa/FfXSJ3/L1TakfhcBbfQNArUIwIJItmdLTMriN1eBV+ERUYf3iKr9ie44wVdMQkIIkaUC7EANefyioZ6TNe4eZb/PFuf+4yC9zyIE54WkE0BgKf33YOkwXcM/QRdwLbt1T+nxbJPcjAVa844IAeCHetPe5bpYpQUbvwicVvBa37SK/fX+BlGY2BF5RCuAUpI42GjPTLP29FXACMMfyxZl/yXAsY3zYFNsbNAKYWAqv97GOSWitF/J4ih5O8ZJzhdLEtzMcm+4JgRNK0QjQkqPwXAK39MkE7g1vrkUApqRaTV5x2n4hs0yBLcAKeIB/FfGktzVmvdjTMsrbFEJZA3f2ljj5P8841gSRwBRwlQA2E4UZPS2TekbphTzeEIg7tEalZxS7+eVu5llWlnJWL/o5MgGSQmlhem/rOG8FXNbAXS2Vh/7ucM2Fq+UKQgNUwCkAT7YzHh2fahnjrYDzMrHtv8ov++0x+5rgABVwjQAmGvhNZ+4NXcC9Rw+n1ANp7Uzv3HNo7d+/KsxWNP8MFagE4Akwqj17eGgSN6+dl+Xz1SKJOn1LnPxf5/hFLQ2AOQBT4jQCqBTwQkfT9mdTLFNYg3eWc7USCT90XXhzyQV+emfOH5+iX4YAYGjgxc7c8gEduZVNPZ5AQA+n1BMKAfd1jvDm/1zk5xv9qGkTBWf2CWcyYFKCaeUjnbilViNV7s01S+1q8u4rwrpP8qT0YENgnheoBFAMwKsp5jf6d+BWmbz1DHVoCV9c4Ve8e00c3iYAdyyAU8BlAvyum3npYwncWwzlXZaTjhNdxOsRhYD7NleY+6dzjkUt/aAjPwWgTCLo0oLGy93ME7pHsR8avMwOuHZXGfLxFf7d48VKlClADzBFFYCRwhu9zdP6tDOt9/Z6JXYt+f0Mx54DhVJcaCAmzd+nQiV4vadl4SMdueW6gNcfuojXM4oG7niBOPPfT9qXRfv4iqpYIhgdy2Y+05mb1t7LhkwqAXPmtjT5oyv8urxqDT5+6x7hsgdrE0zj9TTLE51aGw97mxKXfVcZ+vFlftPpUiU8EIt4XNyWCf67r3Ve//am1d7WGej8b3QRbwAUDdzJm+Irs0/YV7X3wQZFGgFqCDAxwbRzeJL51RAT5ZWno6jCeiBHWPrJNWFmdQDaggFOAa9SCDqF0nitj3VgbD04rGeVyiM3nXfsyq3WAvI7c1EgEazsZ53VN8b0ji7g9Y8u4g2EooH7/qb4+9e/t69o60PLUo04D5Z+m2Je+FhHbrG313PIJOzdDMe+QzelNIMfnQW4S7VC8GiksXBSqvWpiCCD1+4y1+4qQ94+az9wsyawBfyOTPCnh6xzHooxva0LeMOgi3gDomjgjuWLs5edcywJ8pH4cKTVgN/2so7q0prZ7e21yuxawn9/X5udW6EGnNHzgygEeCTKmDm+u2VMK4t3KYQAkFEkjV96yrGFKIFTW/BDCIBaDZjX0/LGgA6mlbqANxy6iDcwigbu8HXh9fUX+QUUmkbICQCaApJbMFXT+wX1DOOoPG+upxEwV8qU4UtP1e7ieQImgAWcooDBUcajv+kVNMLMeNeFUCNgskrkkfOO1+4wB2gVJvAvu76p3cyLB3Xi/qQLeMOi54k3MIwBwqB47k+KRrj3rwhzJbVxX15ZA0JYCkNi2d2/7m4Z4232iagQ67Gb0pzlZxyLgg0IWAEnBGAZCiPi2O1PJ1tmeCvgsgru/B1p/IJT9g2WABZwDQBrcOaBD4rn/qRnoTQ8+kq8kVAIuC+v8ku2Z4uzBZU0yorcrgLxwQaMSuLmPdLBtNzb61ULWtTOLP7dbTnikBY+FOevbxQCWFkKz3Y0rR/VxTzN2+tJGqxH84Q5fzzlWNSRDTyTEBcEgJECJnTmVj6RZH5DF/DGQRfxRkQFuA8vON7/KEcc3ZAxZI0AtQQYEsHkjOhsnpXQivG6udCte2rae5mOPSeKlXBLgJlduKAA2FWCMLMBU1PMs/q3N6329po1Egn/Ll+c/acMx9xAM37+IaIGjO5k2v3rVMs4b+z6dNxDD6c0IjQg/CrJ/KqgwPbRdWFIQxgnyxpADMC4juze4YnmWWEWg3fxb4C5fEce+cElfsfleyoCWcArZIJerRmMS+bGdW/rvTVYhUDiPrvsWLsjTxoa6AJerRA834k7+HSyeYYu4I2LvhJvAmolEr7zMr9p01VhaHg9+iQKGmBjKUxOMb/RN5pdazZS3sVxNXCH84Q3P7kqzC/kCcwBGv+mANwRCR6LNFZN7G4ZEduC9joHvFIgMdsvOLbvvyn1Y30kM6khoACUSASTkrj9o7uYJ3nr+KTjPrqINxEOmYTtzOI3vXNZGB5l8l7IJQ2ICTbg33pbn4gLYw7TXrrJ1EokfOclx6YDBfJQh0ICOoWwXCEY1Z7NGN3FPCkimPY6B/xGpZK+/SK/7WyZEgUEtoAXigSvdOH2jk42T7J42XNHxzN0EW9CeJnYdmTxW/5+WRge6YWQCyrQow1jf61fUKK31ZcAcJfXEv56ovZCdqXKkQBth+qiUiF4rj17YmwPy9hQzuCVEz0A3K5S094+Yz9+tVJl6AAufqIAFIkEv+3C7R2TbJ7g7a5Px3N0EW9ieJnYPrrMb3nvqjA8zIO4aa1CMKGLeeevu5rH1Md4rpYrw/90rHaPQ2mcDJqmRKOA5zqatj+fYnnR250LANy4p6SvO+s4kl2hBqSZ8YOUywS/SeL2Pt9FF/CmRhdxH8Auk7CPLvJbPr4uDLXUsQabwJmjPTPNOqNfNLu2PsZxIE9csvasY74pwAUIcH53T7Zn907saR3h7bUIwNyoUPrNOVJ7BApBADciBAA4VILnOnH7n+9mnuBt22Id79FF3EeokUj4Rxcd73+eLw35uW2469eKs9GYkmp5Ij6MOejt37bLJOzDS/y2z66LQwI59g040y+tRgpjk7nlw+K5ed5eTyVgbt9T0qZ/U3vcpAZm8y8XLhu6X3VgDz7fzfJisH6I6RPoIu5DVIkkaudFx7v7CqQhP1airxDAaAAGRbMnxnQzTwgze5c+CAAltWry5vOOfUfuKDGBamDsQtSADkEGDIs3LX2yk3fWc4BTwE/fkqYuO+dYY5AJ6ACeAF2l9MPaswdHd7O8ZKuHsxed+kEXcR/jnkhidl50bNp3Qxr04KpO1IDWJgrPJnArH+1kWmphvNvGagTMlVJ5+JZMfldGhYKGyFn3JWpVIMlmwCu9rCOSWjF7vb2eSsAcvyHOXHTaviLUQAX04S/gXED8KpY9+Fw3y5RQE+X1AbBO/aGLuA9SJZKorRccu766KaUxlDP/O9FmwG+6msd0jWR3e2tEoBEwR/LFuVuvCEtu16oIDnABL5MJRsWwmU8lca91aul9+KlaIlGnCsRX1lzgF/iTFZ+nqAR4KlZfgfsquoj7KPdEErP8u5rcYyUK83QMmze+m3lU2xDvc5glDdZPLznWfpQrTpQUIJAPMQmAuwrBszFsxtgUy9jWVu/byNZIJHz3ZX7d7jxxpAGBL+CCCnRtRSuvDwiO1mPgvoku4j7MXbuacKVUGd6trXFnfeQwl/Na3Jaz9l0HipUUMwI7/5sQoIoAL8Wbtv8qiXsthDN4vYKsEknUJ5ccG/bdkIZqAZ4/DwAOhaBzKwb//lBQxzCr9+cvOg2DLuI+jqKBq49+zJfKlNHvnbXvyK7RAnr1DTgFXATwQrxp53NdzFM4xvs85rt2LWFjhv3g2RIlprkIeGIrBgv6B0XbzN5PgDoNhy7izYC92cKq3dnCzHtS4DrJuCBwGjmMT+bWPpNknlEf16wStKi/nLRnXyhVrEyAZ/AAAK8SJIYxWPBwUHR97GB0Gha9i2EAQwBm0zn7nv03pKGBXj7vgjUAL3e3LHwszuS1fyjgTMFc9r39cn5l4FdhAs4sqM6tGLzeL6i9LuD+gS7iAUqloMVsPuvY91WRnGxpBuJDAFhpCv/2kHVSrwjj5vq4ZkmtmjzjUM1lVSTNQsBlAnQNo5VX+1i7tDB7fwaj0zjoIh6A5FYog/6R4ThwukxhQgO8jzXgXD0mhhjwcj3lgGsETHGN2u3Vb2rOaWJge4i6UAiQEkbbp/ayprcOor3O4tFpPHQRDyBUAuZ8oTT+/51zbKrhNbQw1l+vcl+EAJAIkNKSFn7fN6hv2yCD1ymYBGAyiqTxb520b6I1BHQVpguFAN1b0VUvp1qHRIbQGU09Hh33aAaPaPPALpOwr3P4Ra8et2+SRAIrE9gCrhHgngr8qr3x6Iy+Qb3qS8BP35ImLz9l38RoCOg+KC4UAnQLo+0v97AOaWejTzf1eHTcR89OCQBuVatph68LC97OFoe3MwauEa8LlQAGGhgRy+4dmWyeFmLy/gDOoZCwkzfEqZsvC0tq5MBuZOVC0oAuYbTy+97WPlH6Ctxv0UU8APifc47jn1wT+rUI8PJ5wCngMoCXO3PrhyZy8+ojB1xQiW3fVWHZB9nCVFVDwLeSBZxerIlhNGb3sXZpE0RnNfV4dDxHD6cEAM8nchPMJgNUralH0rBoBGBpYFZPy8JfJXGv1o+Aw/ZplrD2w2xhqtZMBFzVAGKkMKO3tY8u4P6PvhIPEG5VqWnTD9ecMgZoS1RXK9TZfayz+rdjV9fHNXmZ2P7njP3U90VyQnOowgScAi4bKawdFNxHj4EHBrqIBwgEYG7dU9L+8G3tcQRgTNfEUPiPAUHDEsOY/fVxPVkl3J+/t18/WSRHBboRhguVADBS+MsjQf3bhTKnve2GqeMb6CIeYORVKIMWfFd7iBcDQ8gJnE48//VoSJ/oEEO9rByrRC3qP47U3r59r3lUYQJOATebKCx+OGhwXEvmcFOPR6f+0EU8ALlaJg9fecqxp5zX/FbICZwVhMktaeXNgcGtzPUQ/waASl6LmXO4puCeXWsWRTyAU8DDzAbM7mMZkdTa6HUxlI5v0Uwe4+ZFUmvj3pm9LGPaWg1Q/HCO1ggACng4gsl7fUBwdH0IOAGY4ho1Zf63NQVVjuYj4AoB2loNmNnLMkYX8MCkmTzKzY+uEcadr/Qwj4u0GpyxUD9BIYAEYEQHdu+sfkEp9WVEcLlYHvnaoZoLJTX+uztxF5UAkVYDXulhHtc1wrizqcej0zDoIh7ApLRlt09NtYwJM/uHkEsaYGMpTE7m1o7uapnE0pTd22tq98vo3z5r32GXm0cfFOBfIZSpqZYxKW3Z7U09Hp2GQ4+JNwOulsrDl5y073H48GGnQgCLkcJLXc0LH4kzLWco740wJA3W4zfEWduy+CUlPEFzykKxmCi80dc6IqmNHkIJdHQRbybkliuD5h6rPQTJ9/LIVeJcgc/uax2T2Nq411gPTkYqAfN1rrho80V+fq1CAt7NyIWqAWApLB8QNLhjmJ6F0hzQRbwZcfOe0m/GN7XHWcV3HH5UAphZCgv6Bw1LaFU/OeAaAbPzMr/p02vCeF5tHlWYgPNAWGUorHo0qH9MKHOiqcej0zjoIt6McBUEvXyw5ngLCk3eKEvRgLAgA/48ODg6xGQoqa/ik7+dsp/79qaUSlGBb6X2ILdkgncfCx6R2Nq4Xy/kaT40k02mDgBQgBJlY04vfcg6rVpDk7aqVTQgtgWNlY+FRNhMhsL6Ep2/nKy9/HWBlGpoRgJOAFSpwKqHg6bFt9IFvLmhr8SbISoB832B+PuVZx2rqEbuGULg3PY/FGXM+0PfoC5MPcS/AWc/9dcPV9+9VaU1mypMwPldEgqY3csy66H2prdpShfw5kYzetx1XNAUlIfam96emWqZZ2KoRks/VInTaGFkJ9PuWX2sKfUl4FWiFrXoSM3dwurmJeAqcfaUmZlqmacLePOlGT3yOg9CU1AGxJlWT+7KLQwyNryQKwSwMBQmJJtXv5BimVAfOeAAcOuemrb8u9ob1ytVn02fbAhUAgQZKUzuyi0cEGdarQt480X32GzG0IDwSCduOQD845KwSGigrBVJA8LNFCZ0Mc/p2960njWgXgT82l1lyLoz9gPZ1RosdH1c0T/QCGBmKEzswi18pBO3nEb97Gh0/BM9Jq4DFeCO5YozV593LDOgfg8EFQKEWw14uat5Su927Ob6OHTTAOZysTzyg0x+R+Y9FdZmJOAEgAZgZg/LvAEdTat1AdfRRVwHwL8OOxefcqyy1ZMoiirQNtiAf3/IOjAmlDlhqIctPwGYEzel379/0bHqtoPA3MwCglUqsKCPfoip8y90Edf5JyoBc+aWNPm147Xr2hq9W4/zKkFquNE+LdWSHlmPJrzHbkqz38lwrKiSmk8Vpos7MsGf+wdN692O3agLuI4LXcR1/hcqAXOuUJr46rHaDVEeCDkFoEom6N3WKLzRPyjCbKyfPuAA8OElfsvea+J4h+q7PWAaikKZ4K8Dgqb0jGI36wKu8yC6iOv8H1QC5uxtafK847XrWrtZs14hE4xPMu//dVdutImpnwwUAPj7OfuhL/OkQc2tChMA7ioEyx7WBVznx2lmG1KdukBTUHpFsxuXPhQ0w+5GZaddJfhtV/PW8d3qT8BFlVjfOWc/sj9PGtScqjBdVMgEr/eyLE6NZLfqAq7zY+grcZ2fRFCJ7YurworNWcJk1vDTAqoSgDEA/9bTMufhWNPq+ir75hViW3m8NvtMiRLenIp4AOfEqRBgTIJp58jO5mkWI1Xe1GPS8U2a2auh4w4cTVU9mcDNez7BtBO4b5v2A1QCtOIo/FuqZU6/9vUn4FWiFvU/p+ynTpc2PwF3fc+jO5l2PqMLuM4voBf76PwsViNV/kyyeQYIsDtXHH3f/hKAs4gnKsiAaamWMd3q0f7r5j2135ZMx67vS5VwrpnFTwic3SVHdjTtfKaLeYZVF3CdX0AXcZ1fJMhIlTzTxTwDAHZeF0cbKaeAd2lJK7/pZh6R2MZYL33AAaeAb86w7zlSqoS1aC6NwB9AIfdX4F3MM4KM9eMvqhPY6DFxnTpjl0nYp1n8urVZwugnI41Vv021DGwbQmfW1/UvlsijP83i1x0pVcJCm6GA1yoEE5K4nc8km6fpK3CduqKLuI5b2GUSdqVYHtmhJXM4zGrIq6/rnrsjT1x/1r6piG9+VZgUgFKJ4JWu5u0jO3PTzEz95dbrBD66iOu4jUbA1EcJvYuzd+SJa0/bN1WIzcfM2AUFoEgkmJ5i3j4qiZtSn7n1Os0DXcR1mpRtlxzb9l+Xxtp9yPezsaAA3BEJfp9i3v5sZ25KfbXn1Wle6CKu02Rsv8Rv250jjP2x1MXmQKVM8HIX8/bnknUB1/EcXcR1Gh1Jg3VbpmP757ni8KYeS1NAAPAq8OskbuezydwUTo+B63iBnmKo06gICrFtOe/Y9Wm+NIj7mSrQQIUAEDXg6Tj26IgkboYu4Dre0syOkXSakipBi/oo07Hl42Ys4CoBHo5gbj6TxE0LZvU8cB3v0VfiOo1CSa2WvC3TsWPPLSm5JUM1OwEHnALeN5y5ObGHZUR4EJ3V1OPRCQx0EddpcErtWvLW8/Zde27LCa29NJvwV2QN6B3OlExKtQzTBVynPtEPNnUalKt3leG7LjrWHS5VoppjFSYACCrQM5yx/1uaNSXMUn8FUjo6gC7iOg3I9Qp1yPLvag4U8Roszc2K5z4OlaBHG6Mw9yFrpxDOUNjU49EJPPSDTZ0GI8ZmON4iiK67q0SA4VAIurUxYn7/oGhdwHUaCl3EdRoMlqbs/zkgKDQl3KjwavNScl4lSAk3Km8+HNTKwurNrHQaDl3EdRoUs5Gqmt/PGt2jjVGQtKYeTeMgaUCPNkZhfj9rtG7ooNPQ6CKu0+AEmQwls/taE3u2YapkErjRFQJAJkDPNkzV7L7WxCCTQc8D12lwdBHXaRRamA03f9fb0qdPG6ZQQ+AJOQGgAejThin8XW9LnxZmw82mHpNO80AXcZ1Go7WVzpnYwzIiuQUtyAEWWpE1ILkFLUzsYRnR2krnNPV4dJoPuojrNCqRIXTGhG7mUR1CDFACZDmuEKBDiAETuplHRYbQGU09Hp3mhZ4nrtMk5JYrg/58yn6o1K7Bn1PIVQK0sRrwWh/r4I5hzOGmHo9O80MXcZ0mo+Ce0u/NY7XH7QLxSyFXCWDlKLw1IKh/+1DmRFOPR6d5oou4TpNSVK2m/uGbmnOKSED7UXBP1QDGROEvjwb31EMoOk2JLuI6TU5JrZo841DNZc1PhFzVAIOJwprBwV30ZlY6TY0fvDI6gU54EJ31t0HB3U0cBV8v7FQJYOIo/G1QcHddwHV8AV3EdXyCiGA6c/nA4D6hZoPPCrlKgFCzAcsHBveJCKYzm3o8OjqALuI6PkS0jT79H/2sAyODDJB9TMhlAkQGGfAf/awDo2306aYej46OC13EdXyKDi2Zo//W2zKsQ7DvCLlMgA7BBvxbb8uwDi2Zo009Hh2dB9EPNnV8kuwyeeg75xz7btQ0bR65CqeA/zbVMiyxtXF/041ER+fH0VfiOj5JYmvj/pd7WEbZWApaE60zNAJYGQrju1om6AKu46voIq7js3QJN+7+XaplikY1fsMsAkCjgBk9LdO6Rxo/bOQ/r6NTZ/Rwio5PowHM+UJp/Ovf2TfZ6Mb7u1Uq8KeHrZNSo9itFKA03l/W0XEPXcR1fB5CwGQWy6NnHanZ1qYRzJZLFYJVA4PHpUQYd1KULuA6vo0eTtHxeSgKSkqEcefqR4LHlasN+7fKVWD1I7qA6/gPuojr+AUUBaVbuHHnigFBExwN4A5EADgIsGJA0IRu4bqA6/gPuojr+A0UBaV7pPHD/3zIOoU2oN4qO1UC0AbgPx+yTukeafxQF3Adf0IXcR2/ggKUntHs5ld7WmcEGymvjSUUAgQbKbza0zqjZzS7WT/E1PE3mKYegI6OuxgApU97dr1GCL0xk19VKRF4ct6pEKAFS2FyinlWn/bseoMu4Dp+iL4S1/FLDIDyUKzp7ckp5lkhRve7H6oECDE6BfyhWNPbuoDr+Ct6iqGOX6MBzKkCaeqaDMcayQ0lZ2kKM1ItM/QVuI6/o6/EdfwaA6D0bc+u/01X89LqOgbIqxWC33Q1L+2rC7hOAKCLuI7fQwHK4DjTW1NTLOvLJIKfCo9TAMokgqkplvWD40xv6YeYOoGAHk7RCRhUDcxnOcKav2Y4pkaw1P/KJacAFEsEr6Za1j+dwM2gDbqA6wQGuojrBBQuIV973jG1pfFfa/IKmWB6D13AdQIPXcR1Ag5FA/dZtrDmHxf5yZwBEDTg5W7mjU8ncjMYA4SmHp+OTn2i54nrBByMAcLwBG4W0Qg+uCpMfqkLt3F4AjdLF3CdQERfiesELHaJhF2rVIfGt6D3W1mqvKnHo6PTEOgirqOjo+PH6CmGOjo6On6MLuI6Ojo6fowu4jo6Ojp+jC7iOjo6On6MLuI6Ojo6fowu4jo6Ojp+jC7iOjo6On6MLuI6Ojo6fowu4jo6Ojp+jC7iOjo6On6MLuI6Ojo6fowu4jo6Ojp+jC7iOjo6On6MLuI6Ojo6fowu4jo6Ojp+jC7iOjo6On6MLuI6Ojo6fowu4jo6Ojp+jC7iOjo6On6MLuI6Ojo6fowu4jo6Ojp+jC7iOjo6On6MLuI6Ojo6fowu4jo6Ojp+DOPNh3PKlaGf5QhrqyQSSQFqfQ3qQQgBHcZReVEh9GmDgVLahdCno4MNpyKC6IsUAFAABSgN8bd1dHR0fB2vRNwuaWHXy5W4Up6AouprSP8XQpCsQk4mABRCJosaYGIopLVh0DPCuPahSOPbLcyGAsZAiQZKF3QdHZ3mA0UI8fjD5+/I4985Z99SJhA0oIb/KASAogG8RmAnwIBwI57pZJqREMbss5kNN2ldzHV0dLxAJWDsohauaqDd/SzLUHYrS5U3xLh+iFcr8aaEAmA0AEYDhRAAWXcVHCmW1/RoQeOFBNO8xDbs3vAgQ1ZTj1NHR8c/qRJIzN/POnKzqlTQbqxSDRTwWLRx+7hulnENN7p/4bci/kNMBiCKpVBYo+HfTzqWDYqQl4xOME3q2pb92GiA0NTj09HR8S9UQhiHoKHSroFxU8QdEglruJH94O811h9qLFgDEM1SyCyTmbdOObZ8esmxjldga+px6ejo+B8GyrnjZ9z8z0A1TKLHj46xsf5QY2OmKRhUgnezxYmbT9fuK6zRUpt6TDo6Ojr1TcCKOPD/2zvz+KyqO/9/zrnrs+XJnpBAIAEChkVBoqWu4D7aVkc79VXrVAd/6pQp7TgzOrWtrVqc0b60o9WxblOd0Z/tT9paB0cqClW0jOxrlAABAoGE5MnyrHc95/fHQxRpArn3WZKQ+369qFruvefc+9z7Od9zzndJj6IBCqw4ZM5/cWPirUMx1jjcffLw8PDIJqe1iPcjU2BzxKpYvjP5uLe04uHhcToxJkQcSN/oyjZz/tu7UkuHuy8eHh4e2WLMiDgAEA68tldfvLnNuGm4++Lh4eGRDcaUiFMCdKUY1h40vtOn8+rh7o+Hh4dHpgybiFsciNocsVP8SdqAztLHu48t/YyQSPC7g2ZjS6d5cRYu5+Hh4TGsDEuwDwEwLUwxv0J62WJcHew4zoEeg9d363x2W4phb4yBMw6/QFyH+RMAEuNY1WrcN7lU/GOBSttcXsrDw8Nj2BkeESfA7ArpD1+e7b/5VMdqNopiOhvXk2RTO6NWw8YO69tvt5njJJ52wndDQCBY0WbWXz+d1Xki7uHhMZoZtrB7i2FQC/x4VAE9qp/2lPlpU32p+PuGKvarhZOs857amvqvw1EGxXFqmvQgYpoc2zutG6rD4npJyF1Yfo/GayzO1eNnDoxDLPefnnldulKs/mjcbmAs/W4VqLStJiyszXY7rVF7flznFXGNVaRMFuYcok+mkaBCOkIq7agICNsUAYlst+uRfRIWL2nrsxsNmwf7UqzKtHgQAESBaEV+2iJQYoUU2lYdopvz2S9RIJrb7KyUkLwl4Bt1uVOKVLqvaJy87ycFwrrH1id3NXVarizyQpFgTZuxZGGt8oAkkIxEXGcItEXtc9qj9qyjcbshnmIVKZ2FbQ612+B1NkfF8cdzoG+cj2wCCAIqiRT6hdaJxeKaqSXiSpnmTnj6dFa986h1vUCgD/UcDoiSQOLTSsQVQZl0DHRMr85rPmrV79jbaV4W0XhdxOAlNk8vXc2plFbcOsd/VaZ9Z4C486h17e5O48q2bntuu85nJSwuxkyOlJ3eL/ELQEAkCEkEZQppqikS1s4Zr7xUWyisGfCaHOKRuD3rQK99gdNn4pdoZGa5uGwoqY+jBq/e2WFe6yRNMgfEoEw66orE1X7JeTY8ziFuP2rdkDRZiZN8+zaHUhMW1laFhM25TOvcmWT16w8Zd3T0WQ1dSV7frrE6kwF9JofB0seIBCiSCUQCBESilSmkeUKxsHZ8kbT+7CrpJZrFOgK9Gqtp6rSu7X8PKIHVq/OaHt15hlYOoC1mN246YnzTtE9urEoC0WqLxNVFKml12/dRJ+L9lASE5iXz/GcuWRXbygzn+cxlCqzusHAf4yJcrLBHDV696Yj5zeaj5pWtPVZj1IKasDiSdvoltFj6qnTgS4c3cSwA0nkWVIGgQMJdYZFgQqGwvnGC8kxjlfSC406dgkN9rPGJDYnHQw6y+dgc8CkE/3xu4JygLH5OxDkgvtmsPfpei76kXeOIW+kX/vgxdbLOqjLt95pW/a739ur3tiVYSY/JkbLSHzjBsV/u2O1ELaBP5+AAmoAGpdNqeHe/sWhGmbj+yw2+xeNDwvrjr2sxKDvbzU3PbU+hUBr6M7EYMC4s4MGy0LKhvDpHYvaspzYmn/Q5mDWaDKgvFnDLWf65fklwLOIMwP/7OPVqW58N0YGR02dy/M1MH8oDQlAWsi/iOzuta99r0e7dG7EbO4z098J5+p0hwOe+YwvAYTPtzsAB1eKY7euyZheIxh1v7CBPnjNRefaKqeq92TB8WvvsLz6+PvF4wXHvAeNAwuKDfcODwjmwM2JV7O+zXzyZMwbnQLFKcPOZ/q8WqdLYE3EAKA8KTfc2Bm5dvDr2yyrFuRD7ADR1Wdc2VssvkCFaHRuPmN/86JCxeN0ho9EmgMHSPzbw2VAgABBO9eEc113D5ui0gaPgaEmwxrWHzcZSH33+Lxt8/3BBjfyY0/saDItDjegcjDk6BwYB+pdH+klavOSJjxJbN7Wb1RzHNowH+AkyKRZyKMYaX9wQf2tXn12iHUsnRJDOWDkg5PO/AePAUZ2j85DZuL7dWvflaeoz101X7zz+FNMGunQO4sD1yWRAyOTg4CJw6mmzzaD2GAyGg3ymOgOSJgfjLr9RDsRMjl6DO5qpdpkcps2RHgqzVyWgNWrP/21T6vnN7VaDxjjYsZmaiJM3c/z7I6TfQ/QYHD0GV/c2pZas3Ksv+cp09UeX1CkPZNI/m0HoMtIDCoCM79481s+TXYNxQBYAm0HJoKnR7SdOAGt6mfibL1aKn07BnBCgwO5e+xenOtWweeDd/cZ933qrjz/0YfzF1a1GY5IBup0eTT+1CDOg34LlPP0BtyUYHl+XePTbK/r43h57QYaX/6wdhx090doF0gJ+z6po1/ojZvUJf5UVGCC+v1+/+74/Rtdtidgluu3+Gfefk7A4XtqeuuP+NbHehPn5NKFunkmuyUYb7t/L7N2hzSG+tUd7+Puron/6sM1sSB2zvDNpof++LAa0pxie3JS8/7EP47uOJlhDJn0lg/x7Nq434N9n6TGPahEHAFEgqasmKf/Sazn3IqcEiOnspA7oB/rs+fe8E43/bF38/s4Eg0Dy8xH39+9InOGeVdFVK/dq9+ep2VOydE2s/XCUOUqUP1RsDvHd3doP/3VD8uGo7nwqezJkCmxtt8L3rIp2xQ1eQfKYLnQsEjd4xYubEv/z9JbU3Zqdu+9GIsCqNqP+x2tiO/dGrKwZPKOFUS/iAoE1p0J8Lu7iXJkQ7Omzj02LB6Y0QJuLRNKnUpLTOqKDQQkADjy9JXXfGx+nnnQ9vc6Q/lv/5ebkW7sitpgLATcZ1DUt2t2PbE3d58eg+wkZIVLgSIzh/vdj7T0plhJpdoLIPD5PJMnqfrkh8dare/TL1DwYPn6B4GDUxoP/m1i1p8u6LMfNjShGvYgDACcE9UEK2+HXSABop1jRDIgkMqlIWHPKNe4cQkk678uLH2uL392r/TDfQs4ByAJJ7Dhq3rD6gH5lLsSVc4jrD+q337cxtTSM3Ah4PwIBWnptPL0hgYTBIQ/D4Hw6E0myute2JV/+Tasxp9hJSZwM8QkEkYSNBz9KvL2/x7ogbw0PM6eFiFMKqyZA4WJFZUjW9ZnV8iuBXJieDhAIwGzg15/o9zUdNa/NZ9syAXp1vvWd3dpryRwtQByK2nOe3Jp6vITkVsD7EQiwvcvCb/fqKMij0JzuJE1esmxH6sVX9hnzyx14/GQLn0DQFbfx8w3J97tTrC7vHRgGTgsRFyixKv0UFs/NxHhmubSswj/8j0qmQGvcxpvN2qNRjeUtgVeBRLByn46mbjsn02KTQX15a/J3PSnmOgrXDRSAZjr3A/YYnLd2pR5+dZ9+wbhhnN4ERYJtEQu/2Zl6no9yD7yhMPzKlAU459BzuHEiEFjzxssvjISPPSwRrDpi1WxoMxcNNeo1EyiAhMGxsd1E7ylcptzy7l7t/nePmNVO/NezRT6s/rHChsPmouc+1heVDfOslQMokgje2G8sWHvQ+NawdiYPnBYibjOorXEbUg53Hs+rkZ8YCRtgBICPAMv2aPdrJst5lSJCgKjBkTRzc/dJi5e8uCN1d5G3pDGqiRm84vktyef9JDPXOZMBCfuzoDmWwWunEuDlbcnHdYaA+6uMfE4LEeccOJBw5/JmD/EtqQzQbdUhOmRPBo50tOPxf7IlgzIFtnXb2N9rX8DzsMmZy8Hr959oT+pWdmZRjAOaDUQtjj6LI2FzmCf3IPXIEr/7OPV8e4LB7Vis2Ry9NjC9VMQN9Squm6piTqUIUSKIWtzVb0gARDSOFc2ph931anQw6teLOCAeTdizOzWOiQ6jNnXOcVaZCDKEqDsA+PI03/f/bV1i6UARgxxpEekX70KFYGJYSDAOAQAECnt/rx3o1TlEgox9rAsF4J39+mvTSkWfJOQv2U42sTjUFXu0GzNdB+dIW3CTCgWcVy39vrZQfFcWSKwraTds6TBv29BuFekWz4lfuwfQZ/Dq5Xv0a2QXvyPjAChw4xm+f71uurpUEUnq+J9Js7lvzX795v9s0h5JGTzo9DfkAP7YYiy+fKrv+z4BfSc5TkwwwH9c5B9FOlOqm9eGccA4xcjT/966G6I+Y9SLuGlz3x/2Ga+XubgTmwMhZei/0vzx0lM//QhLFXwWlivRtI/q5GKhbWal/JvJhcLKM0rF5YNdI5JidevbjDtW7zPubo3ZsFxGr6mU4N02E3fOhZLLLIy55P0Dxt1uIm374UjPwuqLBXxthv/WMyvEFz9/hIiFtcrd3Rqvf3NX6tnVB4yL4jlaFhrLvLYj+V9uwtQtDkwpFDbePtf/rSnF4rqBjvGJJH75FPXp6WXSB89vTPx8Z7d9kVMhP6oz/KE59fC1Z/juHOyYueOkl9Z+vfil4/+/bo3XPfmn2N6t3bYjA4AS4Oo6efk35wS+5Kyn7hj1yylHE2z2ioMGfC52qBIMmFYk3jLUh6AKpG9BjdRicqBMITi3XGy+fW7gnp9fXVj4z+eHxl8zRfnOyQQcAEp8tOXKKeo9D19WQL4x0/dYiUxcuUZSAkR1juZuK+MMgdmgfyZicsAGQGk6fww9SVTk/7bq33Lq298PO5Y06ZrJyrofXxQq+HMB/4xilTTffKb/4u9+IXhrlZ9mtM7q8XkiGqv7sNVY4EbAawvo9r+d679tMAE/npqwsP3WuYHvTikQNjr9+TQbaOl0HslpMy66dXjLZyzHqLbENYsXvbI99Y5ocxAXc2UNwLQSYflQk18BwGWTlPsqZXLDeXXqE3WFwmrHjR7H1fXqP8wol17/1w/j77cnGZxORwMU2NNjXzq7QvpVJv3IhH7hDkgE4/0E1SrdFlJJR8hHDxMCVIWETQOd163xusNRu2KgvzsVHIAB4OZp6u+/0uC7WaaIDeW82eXii4vPDXY+/GFseW+WQ/rHKh/s0+861bLBiXCkUwZ/ebLy09picctQz6stFLZcM0157NnNyVd0B/EKBMCBBKvfFbGunFYirnDW25HPqBVxk0H9w27tiRWthlouE8erSiYD5peKcOpHelal9MpZldIrDpsblImFwtq/me2788cfJX4hwdmUVKYEu7uHL8TYZIBfIrikUlzbUCa+PqFYWl9XNLSBbVeXeZXbwCGdAedXitrCOuXuoQp4P1OLhTdvn+O/6ycfJR7LuX/mGGBHu3mDwZy9txzAvDLx/36hVl3mtL3zJyq/Xt2iL9rRbS8c6jmUAEc1hn1d5oLTUcRH5XJKZ5I1vPVx6rlndmjfKHMh4ADQbXFcPkF6QhHJoJsd+YAAVkOF9PpfjJc2xx2uqwgEaEuwmhx17aQYDJhcKOC7Z/tvu/nswHUXTVYfGaqAA8D+iHV+0sVaCuNAuY/g0jrlrhI/bXZ8AQDnjJd/9pVaZVPUzTqWx6fs7bEXdCS549lUgUgwb4L8hkKRcnouAewrpqpPOp1EJSzgcK8953QM/hk2EXfjSxo1+IQP9+nf++XGxMand6a+EXTZe8aBgEwwu0L6VaZVfbJBUCYd86ukx4dcWuYYlACHYvlPxKfZQEOJYN11bmBu4wT5haA0cMWfkxGJ2dNMF5uaFoBzysSmWePkXzo/+zO+NE29NaB46+OZsDdiXtpjOQsA4wDG+cjaxvHyG27bPbtafjMok04n5wgADiXZZUfibJbbdkcqwzYqxQw+rkvjDaZ1kmr3gBg32Lj2qH12e589t6XHumJbLxMTJkcoA3+xlM1x0Xi5NeyjrqtpZJuigNBaFxTQkxq6vzsBEHG6IJkhJgMaygT847nBacV+2uLmGjGDV3Tr3HFeCw6gUCaYXiH9RqKZeeQU+Ujz5RNk/H6PhqAXaOSK9h5rdtzkAxYDGQxKgJoicbvswgrvRyQwzq6U3nz3gHHLUL8VSoD2FEckYU+uCua3VmeuGRYRZxxYd9isb4lEd56qfJHJgZjFETc5LJZOJTpoZZchEgfBFRPle8MjqNK9IpHeSh9BV9KZD3m+p1IpAnxnXuBMtwIOpJfDohYPO5VOzoEaH8FZVfJzbtvuR6TEurhGuvbpT7TX60+7CXbuSVkId6V4vdPzRAJMLZNO6Y1yKqaVSR+8vd+BiCMdBJbUWckpDx5lDNvrm7DSNRmHQn8lj2wkR4pbHDfUyJsnlooDFs91g24jcKDPvqCl21xwNMEaupLsz15um0OcGBbWKiLprS8RV9QVi6uV42oDEqSthZE8uz9qcDz4xeA/VAaFpkyuE02xqqTlvC4qIUBFQNhXIJODmbQPpPciyvzCx7PDFHGNu440HKv0aWxi1OT1Th+bSEjfxLCwJdP2KwJ0n5OFREKAjhRDLJF5zdeRxrDaIPn+bhgHKgIUF0+SHypSM1tKSZk8/KdDxndW7ze+t7fXUk37s3X+we5r3RGzDgA4sJhzYGqxgMZK6YUFtcpDJ/OnHglYDJheLGBelTTkeqSDwV3GqCkUqCkR38uk7eORRcTOLBGx+qCBnFS5OI2JJO26boM7ngnKBKnJRcLGTNufWSauMhh3FB9CACRt7lnioxWOdAXw62uVJ2aNkx27NgFpB37N5OE3mrUnX/pEu5HaHD6BgA4xBzY5/p8E2NNtoyliL/qPndqi6iAFt0dugYKozXHLJOUpUSBO91//jPaoPftURWQHQqQExT53HikDIQkkPqlAgMYAv4NK9B5AXOcVcYebmgCQZDz88vbkIzZDxk/caY5/iQBHEnx21ODVBTIZMUupmTJmRJxx4NJqaf1F9epDbs43bB7Y2WFdu3RD4uV4kqFAIsh0Dk5JOtMaAHQnWHrZaASKOOcAEQjOHy89lumGIgAQ4q7UnUKBcQUDBw+5gVJiFsjkZxbH32frmmMFzWThlA3H02mTwffqx9o/ZeM197uYPRHgtKv4MyZE3GTABVVS8/Vn+m8JuXCHi+ms4u29+tJ/25paVCGRtIBnmZEcPWgwoLFMBKXDm2iLApAF4qac6oBIFNqEEP1TjOPvy7N1UY9TMlxVsgRCEDUZdIsHRuyU1wWntYgzDiQ5cHm11HTTWf7rylwEh2g2wq9uT732esvwVisZTjTOcUaRAFkkiVMfnTv6E15lE1kgMbf5WzxGFxRAROdIGawEI6BSV7Y4LUWcIB2QYovA7dPUZ86vVR4rdSHgJoO6sjn1wKpW44LhrrE5nCQYUBcWvjPc0a25gLvMIukxOqEACBmdqZsH47QTcc6BAzrHuWUCbpnhu2VGpbRMEdxZkE3txrXLmvUlBst4+XtUk2RAqY80Cxl6pXh4eGSf00bEGQd6LQ4iETzY6H9obrX8UkmAthC4E56ozqvXHjSWRHSesedCf2Ufi3NIhHzqEz6S18GPR6aAQMmIdoF0CyWwMkhp7uEx7Ix6Ee+vyRdWKL41Q33hghrlkWI/bcnUajzYbTaubDPnqy6XzjiApM1hgmBCkKI6QFFTQLGvjyFpcRxOMBxJMgSFdIGHkWrp2xyoC1BIYvY2FN2Sbe8dm0M8FGNfLDh9lkc9xiCjTsT7N7dspK3vCydIzRfWKI/MrhB/JQtEd2t5H0/c4BUbjliLEiZHgQt15RwIqwT/5wzf7vkTlKuDEjkw0N5ZVGczNx2xnnv/oD5361ELAkamdS70h8xmExebiToDjsTsueND9MNsdMFm8MVM/sBIHUA9PIbCsIm4QNL5sIf2NRNQcIRkitIA7ZtWKi6fVSEtqysSVqtC9jfbohqr2thlXuOmWhAALJgk4455gZAAfGq9DnSlQpVuWlgrn72wVkZH3L706Q3JlZs7rYxzw4x0ggrpUAWCOHMWLGJyoDtpTwWkrPRDt1hwR8RC4DR/3rmgNCg0lysEbQnn6RMUOjzGikCAkEyQjYC1kcSwiDglwHnjpc3XNfgXGTYPnvRgDigiiVcG6XaaBSt7KGgGK9zRy1DicC1cZ8BVtTLunBdw/IoGFbq7NkTxUQeHMhLN8SwSVGiHTwDiprPzdJtjf7d1Sbb6YTGoe/psyCMxwgqf5gwakZvJAoHl5jVVBeC780O3lKikmeVZfziHGJJJW4nPffK2kciwWeJFCt1bPQJTQjJA7E6xuoTFUerArZBxIKQQ3DrHX+qmXc4hMzfVZkchfplGFIGAc2dWnM2B9ihr0GwUqQJ6Mu1HLMVqtvXaqBmB/v8EaaPAZoOnaj4VudywrSwQt1WoFPvjzFH+FM4Byrk1MSyuzVnnxhjDNpHMZyFRJ5g2V9pi7HmnBSdiNse1UxTIlDgqFzYWKQvQpgKRJJwui1MCHNYYdnaYN2baB4tB/eNBY6njfLh5QiDA/gRDUneXsIkSoD3JcrZsEVbI4UKFOBZikwMbDhmLctGnsYq3GngCNoPapTFHie4BIGID86vlvyQERm56dvpQpJBWN+kPCIAunWPHEeMmO0MjIGmysndbjfNGakEIQoA+g0O3TrHcOAiRFKtrS+ROxAlgVRYI2xSHS442B3ZHrAVx03lZN4+B8UT8BGzGxW4X+aU1DoQVssNtu4TAGPI+72lARYhuE928fRzY0GGdt6fLvDqT9lfu1R87lBh6FaV8QwCYNkdLr32xbvOA0/PXHjIWF+V4rltdJK4vEJ3VuCUADiUZ1rTod+WqX2MNT8QHwK31kon+Jg0+sSPFII3QTbZsM7FEWutzoaACAVqTDKv3GY9EdT7BTdstPfYVr3yi3VCcg0Rm2aRQJPjvfcYd0SSrdnru2y36EjXHG+QN5eLrxZLzQuWaDXx40FjSFrPnZKsvPSlW8/tPUk92J5njsn+5IJ+fsSfiWUICoNt8nNvzoyl75pZuOyvVi0YDU0rElQGXkbASgJWHjPpNh4y/derh0K3x+qfXJ1YQlr89ZOaycJBIgEMJG6sPGPeZDEPe4Pz1jtTLh+O5W0rpJyCSyNQycaXTmxMIsLPXVv+4W7vX4kO/r8HoTLL6X2xI/Om57dri336cej5l8nCm18wExoGeBKvJV3tjRDKc4aYCepEANHXaDzIO2em5ho2Spk7rgaPJkTu9zzZVQbq5IkBd+fhTAhAG/HxL8nvrWo2/50MU8m6N1//0/diu/TE7r895YqGwxm0967BI8MLO1E2bDxvfHMrxK/dq9y/fo92Ur/s7t0Z51o3FLxLgt/uMG1Z8knrYyQB1Is0R68oH18R2beywqn0U+N1efcGKPXpG18wUDuBQnDW0xVjWZhonwxPxE1BEGm8oFpF06J9VIBC8tV+/0I2I7+82F/2iSSspGqGbbLnizHHSy26tRUoAAcADa+OP/Pv6RLNh89DJjt/Ubv7t/X+M7tobs/PuxRmSSYdbdz+CtJDf/6f4L/5za/K/B9sQTFk8/Or25Ksvbkvdp+cxy83MMnHZ+BB1XCiEIC0+z+7QlizbkfplwnTuhfPytuTv7no3+lb7sVkHQbpQxLM7Und8fNS8lg+TBxwB0JpgePPj1OO6jQH3MziHuOGwueg/tiTfbo+z2Zm0NyLd/IYTAtgCxSOM424n58kU2NBu4r0D+nsLJinz6RC8VGwGubXX+ut//DDxsI+PzKo+ueSyKeqPfvuJvjiVQULvoEiwcr9Ru+qQGf3aNPXNORXi0xPDwvscQNLgpTu7rG/8oUV/YEunBWUYk441lkvY1WXB1WYu0oUUftusX/O7PXr73AoxMqlAWMM4REpgtcVY44ftZjVlGJZo3+tn+m976IPYy04fLQGgUuDlj1M3/uGgceMtM9Tvn1stPyVS6JQS6/jrMQ6Rcw7N4uGNR6xFL2xPLo1q/M+q+xAAIQr83XuxV1+6vKCttsh9QXRKiEUJIgAcDzAEwFutxgU7e6z4wknKU1VBYbMkQPuky7qmLW7P3dBh1UdSDI0lImh9ZgFdnoifgCRAm14sLI8Ddzut9lIkEfxsQ3IuY9h43gT5GkUiR4QBxFy3eIlm8nEbDpsv/cum5NzCUZTRMJv4RRKZP15a+/Z+Y34mkxCZApxxvLg9efWTW3F17JjZKxGggAIhgcA3zHPO8SG6fmcnGjP54GSanqpvPGKVfHTYvBZI/7dECFQKkGG6xzkV4iuzS8XHNx+1StwMUgGRIJ5i+Mn/JpaqcnLpwioJs8skqCJJBwdRoCNuY0fEwgdHLHDGERbJSQescoHg3g/i7//s4tCZlSFhm5v7KvGRljKFNNvAfDfbNxIBDsUYfrEludjg6eArPwVEQiAToEAkWfnuPREfAEmi8bmFArrizLHl5KfAw+sTMy86bOxfMF5+p7ZQ+Hdy7JfinCNp8Imbj1o/e/uggd29NipGYLRgPrnuDN9t77QaOzN1rSRIW+VBAJXZ6FiWObdKfua13XqjmuFiNUFazOURFtp729mBhd96u28rZ+5mlJQAxRIBZ8CqVgPL9xs4foKmEMBHCcJCut7rUK6naxwPfBjf+tBFoYmFPtrqvFeAIBAtk7FRIEBoEAvFzd7bQHgiPgCFftp6fqW0/OVd2jWFLobKYolg3RELKw6al8oiuXRigIIjHbxxOMUQPmYdjnUBB4CKAG36ar36ynM7UjeVuHBXGy3MKBOXhRXyPGOn56xrXJBuu32m75Gfbk7eXZrBtIqQ9Lp2pjn8AUCkQHuc4an1iXXfnR+cEZBIxOk1CgO0VRYANoKTznsbmwMQkEhkerGwnAruRcUnANUKQakARFMMsRSDaHNMUgiKJOJ6bfR05Kqp6j2zigVoeS47wQHkq76mLJDEV6cor0et/A1T2bL0hsqlU9Qf/fUUZUXEHDlDsUiALZ1WxRs7U0+6ifItDQnNufa3zxRPSgZhYom05rwyMZLM8CsnSL9I4hhd9x4KBQpp+7uzAwt7SPYLIQ8GR9rqK/HRvIidQGEtmKg8YGRgGDghZnGElfzObCQK7Utn+BZfXCVFOg1naYZzicaAqMmr3RSKmVEuvV4gjuxAak/EB6EiSJsuqZUfKFVz/5FzAAZLVykaq9QWi2t+PMf3o71uHapd8IUqCV+uk9GXJ+u4LEibb69XlnXouRW4pM3xV9NVlPpp3mYa/ZT4acstZ/qvWjBO6us2h1/IoxbHNbXymm/O8X/Jzfnlfto0rVRcP5INME/ET8I5Ncqz51eKqx2mvXZEv0U4t0LEmaXCmBVySmDNn6Q8/sPZvmc6cjwdZxyYVizgb+YEIOax+rMskMSCOuXBeWVizpaOUjbHOeMkfH2GDwbHsJiQE8LC+lvn+C/7Qrmo5WuAHIgOg2PJ3MBji+b6L1dF98VjLpmiPjCShXIk923YEQm062cFbptTJCRypq0E+EqdsuzWs/znALnNAT3S8Ymk78rp6j2LG9RXYjkSOcaBSYUCfnBhqDAgEZ+dx/B7AKgMCU1fP0O9jUjZX7PWbI7GcVLf974Y9ImUSPlamhqICWFh/T+dF5py9QR5s57nl5pzIMaARy8K3XbVVOUekRLHwUjHM71EXH71FOX1fM9qhoon4qeg2EdalpwXmj2tQLCy/bGLFLisRl5z01n+r4oE+X7XRyQ+kfR9qcG3+LYZ6guqwwx5J6PfKK0tErB0QUFQFUgf58iCD4QzCGDNGy+/8E9z/N9RsuiNYzDg3Cqp45/nB6slITPRyhYFCmn79heDc2+ZqT4TzFOyMQ5gfFjAf10dnjavSnohW5WR/mqm/xvTigUr60urWbieJ+JDoFglLT9YWFB6frW02ScSWNz9s2fHijyXKQRfO0N96vZ5gQsBYDgEZaTiE0nf9TN8t317nv+2qQXUEmnai8TNM+cALJ52W7uiVl794MWhQkVAItt9dsp5k5Qnlsz13zkhSMHgzirvvzeZAldMlNfedW5wmiySYb+3E7nuDN+dP7gwtPCccrGlUCafFjnPBv0eRoQA4/wUN8/wPfXwJQXBUj9tzk4LaWSKxI8uLig8q1yMSBQZaUB/n2UBKFRJs0CQ0aCbkZ84Axc1BsRtDuJgUiqQzMpODQc+AX3f/kJw7nv79bvXHTDuaOqz67r0tPIKJD0anhjkwJGe2nGkK5oQAkzwU8wsFtZeNs33/clFwurjjzVYukKQyYf+LCMOlh0450KPBUcp9SzOwRnBcOShaKyWX6grkVa/36Ldvfmw+Y09cRboMxhkQiCQ9PM88Vb6n7nNARPpwbKhUGhZOEV94Owq6aV838PJOHeC/Ex5SGha1az9cEuXddnBJAPj6Ug/CgAn3B8/9j820u9TSCKYHaaRS+vUH50zUX5BwOfFQGMcMZtDcvA+ddsAy8E6TF2hsPofLwhN3tph3fhhi3bX7l678WCKIWWlByEBQ/Pe4jhmCPG0iV2mEEzw08TMMvH18+uUR6tCQs5KPioUiR9cGCr9n2bt0Q/260v2JZgYM9Pfk3Dcb9X/Xva/i0B6mdQ+9tuVKgT1Idoxa5z06/Nr1UeLFOIqEKkfwjP4wVp7rfmbDxo3GSYPOllYJAAmlIhrz61RnnHd+DCiMwQ2HtIXHeiy5rdE7QUHEryiz+To0tnnLAy/SFCiEBRKBLUB2lQTFtZOq5RXzCwXl514zZ4Uq1l3QL+jN8EmUjr0KaBpI/D1eYGvDuXYg3124we7tbtEAUOu9s05REEk2kWTlUdKA0JWrRsnHE2yhm2Hja8diFjzWxPssrYkQ7fBETX55zwwShSCsERQ5aOYUiAsr6+QVpw9Xn5Rpn9ufRs2Ait3a/FHtyRR6mC6bzFgfKGAxy4J+TJdb+1ne4d5Q0unefH+XvuC3TE2+6jOkbDSf/oFISCm722Cn2JqAV09uUR85+wa5aUCmbSdeD3GIb75cerRlMZKiIO9W9PmgZlV8m8aKuXXRZqZhXgymiPWlXs7zQWHeu3GAwm24HCSoV3jSNkcEvm8ocGR9tziBCiWCcpVigl+2lYTpGsnloprppZJ75T7aVOu+joQnUlWv7XNuKmt15rbmuDXtKcYeg0ODiBqpn+3oEgQktKBS4UyRbWfNI0P0PWVReK2s6rkV0Ky8+pWA5GRiHsA7XE2uzNu16cMVpLSWPhTi5UAokA0v0ojfplGKguEbYUZjrgegMWhHonZs7oT9uSkzksMkwc445/OEnwqjagy6SvyCweqC4T1J3M+GUki3k9U59WH+qzGmMYqTJMHTIur/SIuiURTZNJXEhBaqsPiupGwLJQpBkPgSNSe3ZO06+IpVmHZXO3ReU23xu/on9lSghXlKmkKyrRDkUlfUKUdZUGhuTyQX+EeCAaI7XE2qydpT0wdq4eqGSxsWVyVJBJXJJqQRCQCCo2U+IVdRWr2NcATcY8xy0gUcY/0QJ0yebh/8KIElpuQ+bGClzvFw8NjRCESaCHZGxyHiued4uHh4TGK8UTcw8PDYxTjibiHh4fHKMYTcQ8PD49RjCfiHh4eHqMYT8Q9PDw8RjGeiHt4eHiMYjwR9/Dw8BjFeCLu4eHhMYrxRNzDw8NjFOOF3XuMYTgYB2I2EHRgzpicw8h3KXkPj0HwRNxjzCJQok8pFbFklgpZGHoCLM6BsI+CEpKv8pweHoPy/wGeoXK/dhFVUQAAAABJRU5ErkJggg==;" parent="1" vertex="1">
          <mxGeometry x="700" y="477.5" width="73.8" height="80" as="geometry" />
        </mxCell>
        <mxCell id="KWAuoRxqSmageYxoOzQl-45" style="edgeStyle=orthogonalEdgeStyle;rounded=0;orthogonalLoop=1;jettySize=auto;html=1;entryX=0;entryY=0.5;entryDx=0;entryDy=0;entryPerimeter=0;" parent="1" source="KWAuoRxqSmageYxoOzQl-37" target="KWAuoRxqSmageYxoOzQl-5" edge="1">
          <mxGeometry relative="1" as="geometry" />
        </mxCell>
        <mxCell id="KWAuoRxqSmageYxoOzQl-46" style="edgeStyle=orthogonalEdgeStyle;rounded=0;orthogonalLoop=1;jettySize=auto;html=1;entryX=0.022;entryY=0.49;entryDx=0;entryDy=0;entryPerimeter=0;" parent="1" source="KWAuoRxqSmageYxoOzQl-5" target="KWAuoRxqSmageYxoOzQl-8" edge="1">
          <mxGeometry relative="1" as="geometry" />
        </mxCell>
        <mxCell id="KWAuoRxqSmageYxoOzQl-47" style="edgeStyle=orthogonalEdgeStyle;rounded=0;orthogonalLoop=1;jettySize=auto;html=1;entryX=0.007;entryY=0.5;entryDx=0;entryDy=0;entryPerimeter=0;" parent="1" source="KWAuoRxqSmageYxoOzQl-8" target="KWAuoRxqSmageYxoOzQl-9" edge="1">
          <mxGeometry relative="1" as="geometry" />
        </mxCell>
        <mxCell id="KWAuoRxqSmageYxoOzQl-49" value="ARMAZENAMENTO" style="text;html=1;align=center;verticalAlign=middle;resizable=0;points=[];autosize=1;strokeColor=none;fillColor=none;fontStyle=1;" parent="1" vertex="1">
          <mxGeometry x="290" y="309" width="130" height="30" as="geometry" />
        </mxCell>
        <mxCell id="KWAuoRxqSmageYxoOzQl-50" value="" style="shape=image;imageAspect=0;aspect=fixed;verticalLabelPosition=bottom;verticalAlign=top;image=data:image/png,iVBORw0KGgoAAAANSUhEUgAABLAAAAJ2CAYAAABPQHtcAABqZ0lEQVR42u3dCZgcZZ0/8AmXgCieqIAKyUx1MIIHrvcRFdEkhBw6q6srZiY467EsRDJVNaBru+rq7n93lVVXs2R6AF0PFNddvPHA+77vAy88EASS7p6EM/1/K3TcAAnJ9Fnd/fk8z+8ZUDJT/b5vvTXvN1VvDQ0BAAAAAAAAAAAAAAAAAAAAAAAAAAAAAAAAAAAAAAAAAAAAAAAAAAAA9JkkSQ6dnJx63ORkemocx68P/z4Tx+nF4eslcZx8LtTXQ30t/H8fqv9/rwn1ovXrpx61bt26g7QgAAAAAC1VLBYPTJJk2eRk8uY4Tr8Tx8nNoWoN1o2hvh++3xvjOH7qxMTE/loYAAAAgEbMywKmUO+M46TSRGC1p9oUx+l54ec8WpMDAAAAsEf1u61eGsfJz9sYWu2uvjk5mY67KwsAAACA2ykWi/vFcfy3cZz8rgvB1W3rJ5OT6Wg4rHl6BgAAAICh9evTE7J9qXIQXN2qJieTr65fv/44PQQAAAAwoIrF4sFxnJ4Tx8m2vIVXt970PX59ONYD9BgAAADAAEnT9Pg4Ti7LcXB12/pakiQP0HMAAAAAAyBJkufGcTLbQ+HVjroqTdPFehAAAACgj8Vx+poeDK52ruviOH6+ngQAAADoP/PiOHlDj4dXO2pbHKcv0qUAAAAAfSRJkjf2SXglxAIAAADoN33w2ODu6uYkSVboYQAAAIAelu0X1afh1Y6qJElyrJ4GAAAA6EFxHD8ijpOtfR5gZXXZ1NTUPfU4AAAAQA+J4/gucZz8YgDCq+2VJMmFeh0AAACgh8RxfO6ghFc7anIyHdXzAAAAAD0gjuOnDVp4Va8rp6am7m0EAAAAAORYsVjcL47j7w1ogBUqfYtRAAAAAJBjcRz/3eCGV9vrhsnJyQVGAgAAAEAOFYvFA+M4+d2AB1i1ycnkv4wGAAAAgByanExOG/Twql43uwsLAAAAIGeKxeI+cZz8Uni1o+J/NioAAAAAciRJkqcLrW5Vf8oeqTQyAAAAAHIijpP3Cq1uXUmSPMfIAAAAAMiBYrF4cBwns0Kr29W7jA4AAACAHIjj+FnCql3WpmKxeIARAgAAANBlSZLMCKt2XWmaPsUIAQAAAOiyOE4uE1btuiYnk783QgAAAAC66KyzzrqfoOqOKv0fowQAAACgi5IkWS6kusO63CgBAAAA6KI4TieFVHdc69atu4eRAgAAANAlSZJMC6nuuEIbHWukAAAAAHRJHCcfFVLtMcB6upECAAAA0CVxnHxDSLWnNxGma4wUAAAAgC6J4+SXQqo9BVjJ6UYKAAAAQJfEcfI7IdWeKp00UgAAAAC6JI6TKwRUe7wD6ywjBQAAAKBLkiT5rZBqj5u4v8xIAQAAAOiSJEl+IKTa4ybupxopAAAAAF0Sx8kXhFR7DLBGjRQAAACALkmS5EIh1R3X+vVTjzJSAAAAALpkcjJ5nZDqjuuss866j5ECAAAA0CVxHK8VUt1hXRuaaZ6RAgAAANAlaZo+TEh1R/tfJZ80SgAAAAC6qFgs7hfHyaywancV/4tRAgAAANBlk5PJpwVVu64kSZYbIQAAAABdFsdpIqzaZV1fLBYPMUIAAAAAuixJkmOFVbu8++oSowMAAAAgJ+I4/p7Q6nb7X601MgAAAAByIkmSVGB1q7rujDPOuJuRAQAAAHegVly83+Z1i+6xKY3mz04OP7ycLHxsNY1O2FGVdOSZlbQwmlU1LjyvkkYT/1e3/O9ZlZPh5Tv/udl04fGVZHjRlrMX3P/q4vBdtTSZdevOPiKOkxsEV7fU5GTydqMCAACAgVNZv+CwarLw2FBPrybRKeW0kFSSkTdW4uidlSS6JPxvXwlffxzq95WkMBu+1jpY15TT6FeVNPpO+OfPhWP5YPj388I/v7YSj/zdLUFY9PjNk8eMXLH+uDvrzf4Ux+k7hFe3VJqmf2FEAAAA0FdqQ0PztsTDR1Ymh59UjkfGKmnhNZUkelc1ib4cvv421A0dDqTaXZV62PaJShxt2B7GxYVnzabDD7smmX+oEdGbJicnHyq82n731aeNBgAAAHrWlcVFh2yeGnlUOY1OLSfRv1XT6OJKEv0w1NY+C6iarau2h3fZ3WVx9Mrsccfy1MKoNjq0r1GUb3GcXCTAmnySkQAAAEDuZftPZXtPZftHVdKoWEmiC0P9INTNwqmm6oZ6O16YtWvWvlk7Z3ewGXX5MDU1FQ3yXliTk8n/GgUAAADk0mxcOHz7Zudx9PpKHH3eHVUdr03ZPmA7Qq3ymdG9jMruiePkDQMaYG3NAjwjAAAAgK7L3uxXTQvPyB5tK8fRhypJ9CcBUu5qW6gflZPo/NBPL8nenFibOH5/o7czisXiwXGcXDZ4AVZ8tt4HAIDBWvzst2bNmpE1a9euHBsbmxofH399+Pq2sfHxDdtrbOzVocbWrl37xPD/Ha7FaKds36pqGp2w/e6qJPq6xwB7tba/mXH7XVpZf9aKiw4wutsnjuOnxXGybYACrK+Ha5cxBQAA/W5iYuJ+4+PjL1ozPv6xsfHx60LV5lA/Gxsbe+OaU0992mmnnXYnrUkzrlh/3J3/HFjd8jjgDcKf/qtqElWzQCt7A2I5iR6f7Vtm9LfW5GTyugEJrypxHBf0OAAA9K95a9auXT62du1nx8bHb55jaLXLGh8fvybUa9esWXNfzcveqk6OPLQSj5xdiQtfrCTRjQKegayrs83hq3H0gsrU8L2dFc3L7qaN4/TSPg+vtk1OpqN6GwAA+jS4Gh8fXzU2Pv7NVoRWu6mt9ccN76+5ua3auiMPyu6yqqSFcypx9BvhjbpNZY+Jfj27C2/73Vnectiwqampe8Zx8uM+fuvgWXoZAAD60CkTEw8YGx//ZBuDq9vW5jVr155eLBb30fqDbcvZ0RGVdORF1ST6YCWJtghp1F5XFnLGI2/dnIwsqxWPOtDZNDdpms6P4+SKPty0fYPeBQCAPjS2du0LxsbHN3UwvNq5PnXqqacerRcGS/nM6F7VJDpl++bdNl9XLdoMvppGF1fSwmjttGF77u2lqamphXGc/K5fwqskSWb8xQgAAPSZbB+UsfHx87sUXO1cV46NjT1Kj/R5aDW18J5ZaLU9ZLCflWpvXVtOowvKyfBybzXcuxArSZLf9sOdV8IrAADoM9lbAcfGxi7KQXi1o2azjeP1TP+FVtnjgZUk+mSomwQrqhubwFeTaGM1HnlabXRoX2flrsVxfHgcJ1/r1Q3b4zgt6kUAAOgzL3nJSw7p8H5Xe1s3rlm79jl6qLfVikP7ZBuxZ3fAZI91CVBUjup32QbwmyePGXGm3t769evvHMfxu3ssvLp2/fp0ld4DAID+M29sfPy9OQyv/vyWwvHx8cfopt6zNZn/gHJaSKpJ9EtBieqB+noljSauLC46xNl7a3Ecr43jpNoD+119OU3To/QYAAD0oTXj46/McXi1o64aHx+fr7fyL3vzW7Zpdn0z9m1CEdWDlb358sLsrsHa0NA8Z/Ut0jQdjuPk4zkNr6pJkrws28dRTwEAQB8aGxs7aWx8/OYeCLBqY2vXfmtiYmJ/vZZP5aloYVj0vzlUWQCi+qh+UImjl7gr6/9MTqbPjuPkF/nZ6yp+55lnnvlAPQMAAH3qec973l3Hxsf/0BPhVb3WrF2b6Ln82LG3Vf0tgu62Uv1c5UocbahMDT/Imb/9jbUHxHH6ojhOft2l4Orm8PMvnpycfLjeAACAPrdmfPwNvRRe7Xgz4amnnnq03uuua5L5h1aTwunVJPqFYEMNWG3b/nhsWhj1BsPtQdZ+cRw/K47TS2+5G6rtwdU14We9aWpqKjITAwDAIIRXa9YsHBsfv6EHA6zsUcIP6MHuyO4+CYv3//QmQaW218+qceEMjxfeInuML47TyWwj9ThObmphaHVV9phgqJWnnXbanbQ0AAAMkLHx8ff3ZHhVr1NOPfU4vdg5s+nww8ppdEFYsN8ktFDqdrW5khbOqU4uuq/Z4hZJkhwax/HJ4etr4zj5YP1Rw5v24i2Cm8PXb4evM5OTyWlpmh5fLBb30aIAADCATj311CPHxsdv7OUAa3x8/D/1ZPuVk+jx9f2thBRK7aGqSVTNgqwtZy+4v9nj9kZHR/eN4/jwNE0ftn791KPWr09PCP/8lCykCv/7MVnopZUAAIA/WzM+/speDq/qteWUU065p95svWxj9nIyvDwsxr8slFCqobph+x2L8cgxZhQAAIAGZH8DPjY29us+CLBq4XP8nR5tZXC1eL9yOrImLL5/LIBQqiV1c6iLqpMjDzXDAAAAzMHY2Nij+iK8CrVmfPyDerQFwdXQ0LzsjWqCK6Xa9+bC7FHc6vqCvfsAAAD2xvj4+GS/BFihqqOjowfo1caFRfUJlaTwDQGDUh27I+vCzemCYbMPAADAHRgbG/vfPgqwamvWrHmCXp27bHP2Shp9VqCgVHf2yKrE0YYtZ0dHmI0AAABub97Y+Pif+inAyu4o061zDK6S6DMCBKVyUVvCOflvlanhe5udAAAA6iYmJu7VT+FVfSP3N+nZPdty9oL7b38rWhJtExoolbuqVNKoWCsedaDZCgAAGHgveOELF/VdgLV27Qf07O5dsf64O2cL47BA3iokUCrvVfh1NYlOMXMBAAADbWxs7Cl9F2CNj39Tz95erTi0T7YQDoviPwgFlOq1Gvl0dXLkoWYyAABgUAOsZ/dbgLVmfPwXevbWKnHhyWER/G0hgFK9/cbC7LHf6uSi+5rVAACAgbJm7drRPrwD68d69hZbzzzmgWHR+98W/kr1VZXL6chkbeL4/c1yAADAQBgfHz+xDwOs7w56v9aKi/erJoXTt28EbbGvVL/Wd8vJwse6kgEAAH1vzamnProPA6xLBrlPZ9OFx4eF7dct7pUaiNqWPVZYPjO6lysaAADQt8bHxwt9GGCVBrEvrz3jqLtV0sI52T45FvVKDVxdXUmjidrQ0DxXNgAAoO9MTEzsPzY+vrWvAqy1a18+aP1YSQujYQH7R4t4pQa+PlOJR45xdQMAAPrO2Pj4l/spwMr29RqUvqtv0n6JRbtSaqe6rhKPnJ3thecKBwAA9E+ANTb2pj4KsLY998Uvvvsg9Fv9rqtrLNaVUrupb1cnRx7qKgcAAPRLgPXXfRRgfbXf+6s6uei+lXTkfyzOlVJ7UVvLaSGpjQ7t62oHAAD0tOc973l3HRsf39Injw+m/dxX9buu/mRRrpSaY32pPBUtdMUDAAB62tjate/uh8cHT3nhC6O+DK7WLzgsLEDfbxGulGqitrgbCwAA6O0Aa2zspF4PsNaMj3+sL8OreGR1WHheZfGtlGpJpYVLtybzH+DKBwAA9JyJiYn914yP/6KnQ6yxsZP6qU9qxaMODAvNcyy4lVJtqE2hnuPqBwAA9Jwe38w927x9Xr/0RSUeOSZ7g5hFtlKqnVVOowtqxcMPdgUEAAB6RrFY3GdsfPwbPXr31VP6pR+qSXRKqKrFtVKqQ/XD6vrCca6CAABAzxgbG3t6DwZY7+mHtr+6OHzXShy902JaKdWF2lpNCqe7CgIAAD1jzfj4W3sovPrj85///MN6vc03x9EjwwLyMotopVSX66JN6bF3dyUEAADyH2CtWXPg2Pj4t3sgvLppzdq1z+j19q6k0URYNN5g4ayUykn9rJosPNbVEAAAyL1TXvjCaGx8vJznAGt8fPzMXm7j7C2D1aRQslhWSuWwtmT78bkaAgAAuTc2NvaksfHxah7Dq+wxx15u2y1nL7h/OYm+apGslMp1xdGG2sTx+7siAgAAuTY+Pv74HN6JtSF7Y2KvtmklXbg4LAz/aHGslOqR+kz1rKPv44oIAADk2tq1a584Pj5+TQ6Cq21ja9e+JhzSvF5sx1o47nJaSMJi8CYLYqVUj9Xlm6dGHuWKCAAA5NrY2Nj9x8fHP9/F8KoSjuFZvdp+VxYXHVJJCu+zCFZK9XBtrcbRC1wRAQCAXCsWi/uNj48Xx8bHb+5wePW58HMLvdpus3Hh8LDw+7rFr1KqLyotnFMrDu3jqggAAOTamjVr/mJ8fPwTHQiufjc2NnbqUI8+Mpipri8cV0kKv7boVUr1VxXeVysefrArIgAAkP8g69RTn7ZmfPwrbQiuLh9bu3b96OjoQb3cPtW08Iyw0NtsoauU6seqJtGXbe4OAAD0jLVr1z54zfj468bGxn7d5B5XF42Pj588Ojq6b6+3SSWNJsIC70aLXKVUv2/uXp0ceagrIQAA0EvmjY2NPXx8fHxibHx8Q6ivhbo61A23Cauq4b/5Sfj6/vD1FdmdXKeddtqd+qEBaqND+4YF3b9b1CqlBqjKs1PRUpdAAACg501MTOz/3Be/+O7Pf/7z79yvnzF702A5jj5kMauUGsC6oZxGp7raAQAA5Nim9Ni7V+LCFy1ilVIDvS9WHL3eFQEAACCHZs865n5h4fZdi1ellNpe/14rDu3j6gAAAJATm9Joflis/dyCVSml/q/KSfT22sTx+7tKAAAAdFnlrGMeHBZqv7NYVUqpXTxOmBT+t7buyINcLQAAALoVXiUjTwwLtE0WqUopdQeVFi69Jpl/qKsGAABAh5UnR04KC7MtFqdKKbU3VfhGZf2Cw1w9AAAAOqQSF56VvS7eglQppeZUP6xOLrqvqwgAAIDwSiml8lw/no0Lh7uaAAAACK+UUkqIBQAAMKDh1Y0Wnkop1ZL6iRALAACgleFVWhgVXimllBALAAAgn+FVEj1HeKWarD+F+nmor4f6VKgPlNPogkoavaWaRK8rp4Wkko68qBpHz8/C0s3JyLJqGp1QThY+djZdeHx5Klq4KY3mZ29w25Qee/cddcX64+68t+O4NjQ0b+c/m9WWsxfcP/u+4Rgekv2cSlx4cvZzw7E8MzuOchK9sBoXzgjH+/flOPqX8PU/Q11YSQofC1+/FOr7oX4baqs+Vk3Uj2bPOuZ+rjYAAACNhldp9OywuLrJAlPdpraE+lkYH58NX99VSUbeGOrlWQhViUdWh39+YmVq+EHVs46+T210aN9BOFeuLC46ZNP6wtGb4+iRs1PR0moSnVJNo3WhfV5bTQqlchx9KLTXd8K/X2H8qF3tieXthAAAAA3IFuE2bB/YcOqH5ST6cCUeeWv4mtbDmBOyUOraM466m7OjObXiogOyu7+yO8zqgd9p1WTkn0K7vye09VfC1z8ahwNZ33Z+AQAAzEE5iR5fSQqzFpR9WnH0m/D1k6GP31ZOCnF2p93mqZFHZXdMGf05CbnWHXlQFhhuD5Lj6CXVuPDPoc/eX39s8TrjuG/Pzc/Xiocf7AwAAADYg+rkyEPDQupai8mer2srceGL1SSaKSfRWdlbJLO9niyO+yDcGh3aN3tcsZosfHoljv62kkZvyvblCv37S+O+9yu7+zG7S89IBwAA2I3N6YLhsID6g0VkT9X1oX6wfXPxNCqWk+Hl2cbk2ablRvTgubo4fNdsQ/rtj33G0euraXRxGBuXOU96rt4/KPvHAQAAzMmWs6Mj3MGR+/rDLZuBF16TvSkvCxwtctkblanhe4dx85Rwjr8sjJ13ZPuceUFD3h8nHHmrkQsAALCT8tTCe9bv4rFozMtjRGn0q1v2PBp5+eZkZNnsWcfcz0illa5Yf9ydb9lIPvrb7E2J2SbioW50/uWnqmn0j0YqAADAUPZGtMMPrr/5zIKxW4vUJKpW0sKl2SNf5aSwojq56L5GJt2aD8qT0RPK6chkfdP43ztHuzw/xIUzjEwAAGDAF6tD+9QXqRaKna2fl5Po/EpSeHG2aX6tuHg/o5G82prMf0D2pspKMvKGahJ92V1aHa+by3G00kgEAAAGVjmJ/tXisCN1WTmNLqik0cS16cKjjDx62S2PHkaPL6eFJIztS0JtdY63vbZsjocfbfQBAAADJ7v7x6KwbfX9UP9eiQvPqqxfcJjRRj+rrTvyoEq6cHEljl5ZSUY+Hcb+deaA9rzEYeuZxzzQiAMAAAZGNS08w2NALa0rQ12Y3WG15ewF9zfCGPRAq5pGJ2R7uoXz4uuhtpkjWlY/uPaMo+5mlAEAAP0fXiXRQ8IiqGwh2NzjPJVk5KNhkX5mdX3huNrQ0DwjC3Yte4NmNY6ev/0x2iT6g/mj6fp4beL4/Y0sAACgrxeSlTj6jQVgQ/XHW/axKoxeFRfuYjRBYyrJ8KLt+2fF0eezDcrNLY28uXRk2kgCAAD60vZ9apLCNyz+9rpuCvWFchKdld21ZgRB61UnF923nBbGw7l2kTtD5xxirTeCAACAvlNOordb9O2xrqum0cXleGSsfGZ0L6MGOqdWXHRANVn49EocbcjueDQf7Tlkz/YaM3IAAIC+UY0LZ1js7X4/qyy0qibRKdck8w81WqD7asWhfcpJ9Pj6RvA/M0/ttq7elEbzjRgAAKDnVSaHn+SNg7erciUdeUc5jVZlj1YaJZBf2UsSNsfRI+th1mXmr9vVt2rFww82UgAAgJ615ewF9/cozq0fD8zutLqyuOgQowN6U7YJfD3M+r15rV5x9E4jAwAA6Em14lEHlpPoqwO+sLs5e9NZNSmcbk8r6Lc57pbHDCtp4Zxwrl9lU/foZUYFAADQc6pJoTSwi7k0+k6271f2hjMjAfpf7bThO5XjaGU4/z8Q6oYBnfturMSFJxsNAABAz6ikIy8axM2MK2n0ptl04fFGAAzw/Ld+wWHZ3UiVeOR7AzgPXpk9Om4UAAAAuVdNFh6bvVlvYB4RTKJLsn2tbGIM3NZO+2VdOUB3oH62Vly8n94HAAByK9ucPCxgfjwAi7TLK3H0yi1nR0fodWBPskcMq8nIc8Pc8ZnBCLIKr9brAABAbpWT6Px+v9uqkhZG3V0ANDxPxoVC/a6sP/XzfFlNoxP0NgAAkDthQfaCPl2IXZEtNjel0Xy9DLRK9qbWLBDfHoz369zpRRYAAECeZHcUhMVKpc8egflGNY6eXysuOkAPA+00GxceUU6it4e55/p+mkfLcfSRWnFoHz0MAAB0Xba3S1iofLOPHnu52KMvQDdUzzr6PuW0kIS56Hd9E2KlI5N6FgAA6LpKGr2lDxZZmytp4Zxr04VH6VGg227Z9D06Jcyv3+mD+fXG8tTwY/QqAADQNZuTkWW9/jbBsEh82VVx4S56E8ijajzytDBXfaLH59qfX7H+uDvrTQAAoOOuPeOou2UBUK8upqpJ4fRsE2U9CfSC6uTIQ8tpdEGYv27qyXk3jd6iFwEAgI4LC5J39eAi6pvZYzm10aF99SDQi7I3omaPPIf5bGuPzb/bqmnhGXoQAADomPqr33vob/4Ll4Z6ip4D+sWWs6MjKsnIG8Ict6Vn5uI4+s01yfxD9R4AANB2lanhe4eFyB97ZLH0+XIyvFyvAf08J1fj6PWVpDDbG28ljM7TawAAQPsXS0l0UQ8skr4guAIGam7+c5DVA3dkpSPP1GMAAEDbhMXRC/IeXFXT6AQ9BQyq2bOOuV8lGXljzvfIuqJ8ZnQvvQUAALTclnj4yLDouDani6Hvl+PCyXoJ4BZbk/kPqCaFUo7fWnihXgIAAFouLDb+O4cLoMsraTThrYIAu1aeihZmYVH2FsDc7YflLx4AAIBW2pyMLMvZwufqclpIauuOPEjvAOzFPD418qhKMvLpfM3lhV9fWVx0iN4BAACadlVcuEv26vOcLHiur8aFf772jKPupmcA5i57wUWYS3+cm7uwkuhf9QoAANC0Slo4JycLnUsqU8MP0iMAzalNHL9/9vh1mFevysHcftPs5PDD9QoAANCw2bjwiBxsAPyj2SRaojcAWmvzukX3qP8lxY1dvgvra/YyBAAAGlIrLt6vkhS+0cVFzVXh5784Ow69AdA+1WThsWHO/UQ3Q6xqUjhdTwAAAA0saKKXdWkhs62cRheUz4zupRcAOueW/bEKv+7S3F/eEg8fqRcAAIC9li0iwmKi0oUFzLfLU8OP0QMA3ZG9uCPbWL1LjxVepAcAAIC9Vomjd3b20ZGoWkmjYraxsNYH6L7q+sJx4Vrw+Y4/SpgOn6j1AQCAPcrugMoe4+vcgmXkvVvOjo7Q8gD5UhsamldOC+Nhrv5TB0Os79rQHQAA2ONipZpEX+nQIuWKSjryTK0OkG+V9QsOy/Ym7FyIVXixVgcAAHarGkcv6NAC5cLy1MJ7anGA3lGeHDkpzN+Xd+AacbVrBAAAsEtXFhcdEhYNv2vzouT35aSwQmsD9KZrzzjqbpU42tD+R81H3qC1AQCA26mkhde0cTESFjqFt11dHL6rlgbofdVk4dPDvP7rNl43bihPRQu1NAAA8Gdbzl5w/7AQmW3TIuSP5WR4uVYG6C/ZX0rU78ZqV4h1iVYGAAD+LCxA3t2mxcdF5TOje2lhgD6+hqSF0Xa9qbCaFp6hhQEAgKFqEj0kLBJubvGio1xJowmtCzAg15Kzjr5PNY0ubnmIlUbfqRWH9tHCAAAw4Mpx9JEWLzg+t2l94WgtCzBYakND88I14KWhtrT2ulL4S60LAAADrDwZPaGlG7WnhXNqE8fvr2UBBlclHjkmXBO+28Lry09qxcX7aVkAABjURUYSfaFFi4srZ5NoiRYFIFNbd+RB2V9qtCrEKseFtVoVAAAGUPZmwNbsT1K4dDYuHK5FAbitahKdEq4VlRZcb36bhWJaFAAABki2IW62MW6Ti4ls4/dX1UaH9tWiAOxOeSpa2IJrTq0aF87QmgAAMECqychzm1xIbC4nhRVaEoC9USsedWA1KZSavPZcdVVcuIvWBACAgVhELN4vLAJ+1swrzTdNDi/QkgDMVXYXVbiW3Nh4iDXycq0IAACDsHi4ZT+SxhYOcfTuK9Yfd2etCECj6m/A/UOD16Kr3YUFAAB9rjY0NC/88v/9BhYMN5XTQpL9ea0IQLO2nB0dUU2iLze0F1Yysl4LAgBAH6vEI6sbWCxsqqbDJ2o9AFop2xernERvb+C69Pvsz2pBAADoU2Gh8LU5LhIur06OPFTLAdAO2Z292R2+9TfbzuH6VHix1gMAgD5UTRY+fW6PaERfrp519H20HADtVkkLo+Has2UOAdavaxPH76/lAACg3xYHSfSZOSwM3lcrHn6wVgOgUzbHw48O16Ar5vAXLadoNQAA6CPlqcLj5rAgeJ3N2gHohk3rC0eHa9EP9/Ka9cNacWgfrQYAAH2inEQf3ouFwLZqGp2ptQDopk3psXevxNHn9yrESkeeqcUAAKAPVM465sFZOLWHRcD11XTkr7QWAHlwxfrj7rw3f/lSTaKvaC0AAOgDlTg6dw+//Fdnk2iJlgIgT2rFxftVk5HpPYVY2d5ZWgsAAHrY5nWL7lFJCrN38Iv/1eVk4WO1FAB5lO3JWE1G/mkPIda7tBQAAPSwchKld/AL/+8r8cgxWgmAvKskIy+/g+vZDVvOjo7QSgAA0IOyRy8qcfSb3fyy/4fK1PCDtBIAvaKajKzf/WbuhddoIQAA6EGVpPCXu/wlP45+szldMKyFAOjBa9uLd/Nikqtq6448SAsBAEDP/ZIffeG2v+CX0+hXmyaHF2gdAHr2+pZGE+GadvPtr3GFca0DAAA9ZDZdePwu/nb651uT+Q/QOgD0unISvXAXd2J9W8sAAEBv/WJ//m0fG9x65jEP1DIA9ItwfXvp7f6yZnL4SVoGAAB6wDXJ/EMrSWF2p1/or/S2QQD6UTUunHHrzdxH3qFVAACgB1Ti6CU7/TJ/7Ww6/DCtAkDfXvfSkX/Y6bq3dVN67N21CgAA5P0X+aTwjeyX+GoSVctThcdpEQD6XTUu/PNOIdZLtQgAAOT5F/jJkYfu+Bto+4AAMChqQ0PzKnF0bv0a+C0tAgAAOVZJozdlb2WqxoXnaQ0ABkltdGjfcA387yzEmp0cfrgWAQCAPP7iXjzqwPBL+9XVJHqZ1gBgIK+F6448qBIXvlhJo7doDQAAyKFqMvLcSjzyVi0BwCArnxndq5xEX60VDz9YawAAQM5krxLPHp/QEgAMuk2Twwuq6fCJWgIAAHIk27w2e4RQSwBA/dq47siDtAIAAAAAAAAAAAAAAAAAAAAAAAAAAAAAAAAAAAAAAAAAAAAAAAAAAAAAAAAAAAAAAAAAAAAAAAAAAAAAAAAAAAAAAAAAAAAAAAAAAAAAAAAAAAAAAAAAAAAAAAAAALuyZMmSOy1fvvzxJ5988pO1BgAAAABdd+KJJ945C6xCJSeffPIlobaEqoV6q9YBAAAAoOOWLFly1xUrVpwQ6vUnn3zy50NdXw+sblsCLAAAAADab8mSJfdesWLFc08++eT/CPX9UNt2E1gJsAAAAADovJNPPvnlexlYCbAAAAAA6DwBFgAAAAC5JsACAAAAINcEWAAAAADkmgALAAAAgFwTYAEAAACQawIsAAAAAHJNgAUAAABArgmwAAAAAMg1ARYAAAAAuSbAAgAAACDXBFgAAAAA5JoACwAAAIBcE2ABAAAAkGsCLAAAAAByTYAFAAAAQK4JsAAAAICWW7169f1OPvnkJ65YseKE5cuXPzP88+iOyv63UI866aSTRkZHR/fVWuyJAIseMS/Ma0dkc1+Y99aEelWY6/49/Pt09jXUUk0EAEDfO/HEE++8bNmy+Y3U6OjoAVqwMRMTE/uHNrx7I7V48eL9BqGNwvg6JCzMnhUWaRtCfSHUNXMIGK4L9Z1Q7wr1orDgO9qo47YEWHO/XoRz8gnh878wnFP/Fr5+NPz798LXX9bPz5vq7VMJ9ftQPw711VDvCf/d2eHryc7FvRPa6eDQZsvr89/v72g8hv/u/2kxAAAG4ZfkZza4gKuddNJJD+nEMWaBTTjOpJEKx/iYPLZ7fWHSULuvXLnykZ04xiykDMf5+rlUtrBt5mfWQ6u/Cd/nI/UQqtbC+kmoVy9duvSBXQ5NxkN9vYl6Tq/ML2EMPbi+AJ9zZXeWFIvFffb2Zy1ZsuRO4c9dOJeqhy+NjKVvzfXc2Itz5xF57MMw3zw0m0vD8X2yhefk5aHeHObnp/ZKIB+O941zHV9hTN67kXk3tPfb5tLWAiwAAARY+QmwDmz0GMPnO0uA1fDYePhcjy18ri828rNWrVp1WPh5r5njXVaN1s3hZ30o1FO6dM4dnR1DE8f/5V6ZX+qL/kY/53vm8rOyu4M6MHbaWeN56bfR0dFDw7n80nBM32335w7nw9Xh6z9njwfnfCx/tYG5+qg5zgvvCHVjA/OuAAsAAAGWAGtwA6zsToAGFlLfm8vPCJ/lbvW9XLZ0IzQIP/tj4evDurAY/miTi/6FeZ9bsrunwrH+tonP+QwBVmctXbr0vuGceEs4lmoXPv912Z1Hcwl9OnzOfrxdAVZo81PCf19uYh4TYAEAIMASYA1ugDU6OnqPBo7vl3Mce7/PQXCQ3Q311iwA6eBieHWTx/yPeZ9b6nslNfr5fjvXjfgFWI3L2q7+mODmHLTDluxY8vYihuyOwFYHWNkjhuG/u7gFQbwACwAAAZYAa6ADrH3Dz9s2x+O7ak/fN7vLI/x3H8hhgPCz0C+P7dCY3i/8vN91MuDpwoL/TU2ct69pJIQRYDV0DTgp/OwrctgeX87TnYb1falaFmBlj0w2sQebAAsAAAGWAEuAdZsQYtMcj2/rHr7fcaF+neMQ4aYwZk7r0Bh4bTPHmm2Andd5pf74YKMBXRaaDguw2mt0dPSgMNbPaSCk7mRlj9Uty8mc/fpWBVj1/a5+3sJHoQVYAAAIsARYAx9g/Waux7e7t4plC9Fm9nnpZGUL+3bf4RR+xgOywKyJResFeZ1XwvE9uYn2/0wjP1OAtfdWrVoV1d/K2Qvtkm1qPpGDOfvsVgRYq1evPrLVj04LsAAAEGAJsARYJ5/807ke37Jly+6+i897ajNhTZfqvbsL41rYvs1s5p5ttH2XnAZYb23inF0jwGrrnP/o8LOu7LX2CXPIui6P6TObDbAmJib2D//759vQNgIsAAAEWAKsgQ+wvjvX48vuMLjN9zi5B8OrHfX27HG4No6DVU3eKbYmb2O7vnfaHxv8TJXw5w8RYLXtfM5eHrC1lW8ODPWlbH+obK7N7pQKdXoY138fvr6rPn/c3KqXLYSf8VddnLNf2myA1cy+cAIsAAAEWAIsAdYdj4+vzPX4Vq1adcxOC7YntnjB3I16UxvHdrObuX8qh2P7hCY+z8ZGf64Aa4/n8pLwM25owXFmd2/9R6inLVmy5E57+rn1N+09L9RHWhBmXZ89ntqNcZ31TzMBVr39awIsAAAQYAmw2rNo+0wDbf4X9bG1MPz7tS1YoGX7xVwUaiq7AyMLxeohyWioF4V/fkv9OLe0MVyYaOM5+JomjmtbtiF0nsZ2OKb/bOLzPE6A1Zb55rHh+882eXzfD/WCbD5uYqwfXR8fNzYzH2ShWBfm7Oc2GmBldyW26o2DAiwAAARYAiwB1q6P82MNHOOT63cWfb2JRdnPQhWztxbOYSwfHGpF+DPvqN+p0cpF4tbwvR/epnPwAU0+YvnyvIzrer83ur/ST8K3mNfoz66HBCfMpbLH3xrdaL7+uFwrq9COPqlv2H5NkwHyC1r5UoPss4b6bBPH9MFmxkqDx7y60QArjLW/afP+YAIsAAAEWAKswQ6wQvv9bwPHeHJ9D5xGPt/nsrcVNrvv1OrVq+8Xjv11Lb4r67IlS5bctU2L4480E/Z1ejF/B5/jGU0swtMuzH//2+DxvrUX5vfR0dGDwrF+p4mxdf6uXsrQCtk5Hr7/ZKPhbfZiiA6PlZMaCbBCHxzQxFsHsyD+U9lcVr8DLLv79EHh6+HZHYdZ/y5duvS+q1atuqffZgAAEGAJsAY6wAo/7wON3A3QwF47P86CqzaM76ObCCl2NZ7OadN4WNXkHRiPzcl8UmrwM9x0283/BVgtOX8bfZzzujCmxjrUB9neUOUGjvGPo6Ojh3Zwzl7aSIAVPt/KBuaZT4evf52FVH5LAQAAAZYAa+8WwO9v5G1hcwkuQv1TM/vq7GV7v7RFjxXeFNr/+DaM8ezRu982Mc7f1u0xPTExsX84jqubeCSsG/Nf3wZY4bP9ZYOf7dpOB6L1PbqqDRzrv3SwPZc0EmDV9+/b2z/z8U7O7wAAIMASYPVTgHVRu/ZtycKO0A5P79RnCeP1MU3uBbSjvtbsI467aetXN3FMm7LHibo8l5zUxFh4pgCrdbI7k8Ix/qGRc7IdAe1ejv+nNbC5+/WdunMvm6saaM+HZ3ez7cV/e1X2Ugq/kQAAgABLgNX4ovK9bQqwfhlquNPtHtruofXFYrObJj+rDediU5u5Z3fcdHlMX9Dgsf9pyZIldxJgtfRzndPgfktP7uZxh58f53UD89CmJ7ZpLsz2/TvcbyMAACDAEmA1t6C8sA0Ltp+Gz3//brV9dodJOIbZJj/Dt4fasHF6+L4fbmKsf6hbbZoFUNldYA0e+xu6OP/1XYCVzcsN3MmUBUGn5ODw54VjuWSOx765E3th1d9a2eq3B76v3Y9PAwCAAEuANSgB1ntavGi7sht3Xu1m3G9r8hHIlW04rpVNHNON2RvJutSeK/I+jwxKgBWO7X8a+Dxvz8vxr1q1KtrLx+52DoL+rt3HFcbpU1s8F74/2/vObyEAACDAEmC1ZjH8rhYu2LaGekSOFvpvbvLzfLYNY72pzdxDvaxL88h/NXi8X+/y/NdXAVY4ruMaCGZ/38m3+e3l53jDXPel68AxPbmFc+EXQpsf4DcQAAAQYAmwWrdoe2cLN20/LWdj/+BwXD9r8jMtbEOb/0MTjyR9r9PtWD8/Nzd4vC8VYLV07LynRx8dvJVsY/a5vjW0HefibcbKk1p4F6o9rwAAQIAlwGrxgvgdLVq0fXyoDXtGtaAfljb5uf6pDcd0/2Y2c882qu+ROeT6VatW3VOA1RrLli2b38C4+U473qjZor559xw/yyvbPBc+sUX7Xj3bbx4AACDAEmC1/jgvaMGiLbuTopDjc+DTTXy2P4yOju7bhmP6UBPH1NFN0ZvYJ+1dOej7vgmwwmd5VQOf43l5PS9PvsVcPsuX2ty+j2/BXPhJv3UAAIAAS4DVnkXk+S14dPDf8nwOhL54bJOf79FtOC9XNHFMf5yYmNi/Q/NH9hhmtcF2O1GA1RrZXVThmH45x89wRafGSSPqb7bcOofPc1M77+gL3/9xLbj76lF+6wAAAAGWAKs9i7bzmly0XRfGyRF5Pw/CcX65iTH2qjaM+aY2cw/HdFKHxvGzGzzGy9tx59qgBliNbDAePvs5PXBefmaOn2u0jWP9sXl76QMAAAiwBFgCrP8bH6Um704q9cJ5EPrjuU18zra8Aa2ZzdxDvbdDAcNFDR7fP+Rk/uuLACt8jrc18Bke1wMB1r/M8TP9SxuP5T+aDLCeNwQAAAiwBFhtW7RNNxlgPb4XzoP6GCs3+DlvbsejS01u5t72DdJHR0cPCT9nSwPHti2M4QUCrJaOlV/N8fgreX58cKfP9dI5fq7PtHEu/Ewzd6IuWbLkrn7jAAAAAZYAq32Lto1NLNp+OZTDNw/ewWd9RxPj7MQ2nZ/NbOb+4jaP4ec22FafztH81/MBVuiHBzWwF9PHeuGcbGCerLTrrYpNBlif8tsGAAAIsARY+Q2w3tpL50I43tVNfNapNh3TyU0c05fa3F4faHAj61NyNP/1fIAVjuXMBo7/X3vk+nTiXD/b6tWrj2xTO3+mievQa/y2AQAAzS8QBFhdMAgBVja2eulcGB0dvUf2OGCDocz72nRM+4bv/+sm+mBhO44rexxqjm+I+/MdMtmjhwKslp6j/9PA8U/0yPXpKQ18tifnLcAK9Ry/bQAAgABLgJXTACsc51G9dj6E4/5Wg5/35208R1/VaB+EcfbaNo3fUxo8H8/N2fzXDwHW5Q30w4oeuT6tbKBvXtimdv5ML8zZAADQtwRY3TEAAdamoR7a/2qnz9vom8ZuaNfeO9kjUU1s5v7b7C6uNrTTBxsM1B6bs/mvpwOsVatWHdbg8T+xF87HMF7+poHP9sq8BVjtfqECAAAIsARYAqzGA6zv9OL5kG183sT5cEQbj+uDTRzXU1t5LGH83S17y2EDx/KToZyFmr0eYIXjeEYzbwnt03pzzgKsa/2mAQAAAiwBVk4DrPD5PtGj58PjmzgfHtPGfmhmM/fzWzx2xxo8jjiH/d3rAdbLBFa3q/fkLMD6mt80AABAgCXAymmAFer9vXg+rF69+n5NjLW/bNdxNbmZezXUXVo4Jj7awDHcGOpwAVbLj/8cgdXt6oM5C7D+x28aAAAgwBJg5TfAuqgXz4dsH6t62NLIXWentrkvik0s6l/QimNYtmzZ3Rt8fPDinM5/vX4H1vsFVrerS3IWYL3dbxoAACDAEmAJsNrxmX/XYID1d+08riY3c/9Ui9rmhQ3+/NUCrLaM1a8KrG5Xn8tTgBXmhbf4TQMAAARYAiwBVjvOiR82uFBNO9AfFzfYH9vC5zq6BT//kgZ+9p+WLFlyJwFWW8bD7wRWndlzqok7sP7ZbxoAACDAEmAJsNrxmb/R4Fh7VZ7HTfizZzfzs5csWXLvRh6vDO3ybzme/3o9wCoLrG5X381TgBXOu9f7TQMAAARYAiwBVjs+8+cbXKi+tt3Hlm3mHn7Orxrsk5+GbzGviXZ5cZ7niQENsG4UWN2ufibAAgAAAZYAS4A1CAHWl7pxh9Mcjq/YxDn7mCbmik/n5XEuAdbQ0MTExP7Cql3WTwRYAAAgwBJgCbAGIcD6VoML1XWdOL4mN3NvKHhZunTpfRv5meH8e4kAqz2WLFlyV2HVLus7AiwAABBgCbAEWIMQYP2owYXq3/RA8LJpdHT0oAba5G8b+Flbly1bdncBVtvG6X2aCHm29XGA9VUBFgAACLAEWAKsQQiwftfgWHt+B8/bk5pY4I820CafbeDnvLMH5r+eDbCWLl36wAaPfWuov87GQZ/WkwVYAAAgwOq5ACvUKwRYAqy9VSwW92l0Y+xwLq3o5HE2sZn7B+fys1avXn2/8GdubuDnPE2A1dZzs9DEHHI3V785t7cACwAAuryA6/cA6x/z2O4CrHyq7/XU6Fh7WIcX1K9s8DhvzD7nHOaIMxr4GZdnb0zsgfmvZwOsbP5tdKyGvjnE1W/O55sACwAAuryA6/dHCM/JY7sLsPIptO3xjfbLqlWr7tnJY21yM/eXzWGsfrGB8+5VPTL/9WyAFcbbMU2ErYe7+s15LhRgAQBAlxdwuQ+wmnxd/MY8tvsABFjv79Hz4fkNft5KlxbV/9Pg8X5rb75/OMePaGDD723Lli2b3yP93csB1mFNzCEPdfWb87kmwAIAgC4v4HIfYNUXD43eaZLLjaT7PcAKn+9jPbpI/acG++X7XTp/T2ri7sSFe9Eejbx98FM9NP/1bIC1ePHi/Rp9m2A4P5e6+s15bhBgAQBAlxdwvRJgVRpcpP9vv7V7LwRY4fN9pUcXqR9pcJH639043mY2c9+bN3SG7/2JPL+NsQXnYc8GWPXxek2D4zV19ZtzWwuwAACgV4OUDgdYVzV4nN/Nabs/v88fIfxpr50L2abj4bg3tSsMapewQP77BvvoG3f0fbM31YX/5oY5fs/NoS0O7qH5r9cDrG80ePzvcfWbc1sLsAAAoMsLuF4JsC5v8Dhnwx+fl8PFUNznAdb12SNOvXQuNLOBezgXntqt4169evX9sjcLNjiWFtzB3NBIyLqhx+a/Xg+wphs8/svzOC/mmQALAAC6v4DrlQDr+40eZ/a2thwuhjb0eYCVjY+RHlugNhoqbsvuVurysTe6mXt8B9/zogbuRHt0j81/PR1grVix4u+a2APt4a6AczrHBFgAANDlBVyvBFgfbSLwWZzDxdDX+j3ACnVyjy1QG+2TH+Xg2Je1cq+y0dHRg8L/X53j9/vxUI/d1dPrAVY4/ic1EWC9yhVwTueYAAsAALq8AOqVAKuZIOVFOVsI3aXRR756KcAKY+ucXjkPli1bNr/RN7qFekO3j7+Jzdy3LV269IG76PeTG/hekz04/zUaYOXiUcl60Djb4Gf4dbbvm6vgXs+FAiwAAOjyAq5XAqxiEwHW+TlbCD2nic/SS3dg/WKoR+7ICcf66iaCuqfk5DO8osHP8LJdfK+57q1049KlS+/ba/NfI29ZzNuc0kQIl43dla6Ce31+CbAAAKDLi5+eCLDCca5t9DizO1Nytmj+7wEJsLJ6ct7PgSVLltwpHOcVDX6+aycmJvbPw+eob+Z+QwOf4dKdv092N1cD7fE/PRpKfL3Bfn9vjj7DRBPn5+ddBfe6nQVYAADQTb0SYIVFwKOaCVLCnz82D+29cuXKo5p5fLDXAqzQ7u/rgXNgbRN3sPxXzhbZH2jgc9y4bNmyuzdzroV2WNGjocRPG+z3D+XlM4R5+IhwTDc3cZ6udiXcq7EiwAIAgC4v3nsiwKrv9dJM8PMPOVkEvbnJO5quCm1xQAePt9k7sG4OC7gH5XX8L168+MBsL6AmArqn5+nzhONZ2uBnec5Oc8Jr5vhnfx/acb8eDSV+3GB7fTNnn+PDTZyjP8vuQnQ13GMbC7AAAKCbeiXAqi/Ov9fEIu233X7Ua9WqVcc0+IjXznV5hxdtzQZYWX04x+M/aeJz/XQoZ3t8NbGZ+9t36vNvz/HPFns4lPhWg31fydk4PqnJc/RfXQ33OFYEWAAA0OWFT88EWNnGyU0+zvasbgYL4Rg+1YIw6HcdbvNWBFjZI1fPzNvYX7ly5YIsiGhiPK3L6UL7FQ30z9XZXVThM91/jm9jvGlXbzHsoVDic02M6/vk5XPU55fLmvgs27K791wR73CsCLAAAKCbeizAekGTIcoPu/WoU/j5U60IgrLHtTp83BtbdNxXhTo8Zwv+ZsKL6s77RuVJo5u5h/Pj8eHri+f4Z/63x0OJdzYRYC7P2Vx+RpPn6JVhTh9xVdztWBFgAQBAlxc9PRNgrVq16rAmNyvOFtwv6cLCZ1mzG7fvVFd0+NhbFWBl9YVsz6k8jPtsUdnk3XyvzfN53cibLsO58bpsc/I5/rllPR5K/GMT4+DNefos2d544Zh+3uQ5+oulS5fe15Vxl2NFgAUAAN3USwFWfRHx5SYXaNVVq1ZFHTzex2U/s4Uh0JUdbu9WBlhZSPLusNDet8vhzqlNfo4/hc9waM7P6yUNfK6fhNoyh//+193uyxaMhVOaCXuyO/ly9nme24Lz9Lt5ultSgAUAAPRqgNX0o3jZZvBh4X2PDhxrdufVbCsDoCw86eUAq17v6OKjnC9owd1wL8v7eV1/RPKXbei7nevlvT7/ZY/M9eq+ersxLxzXV1swR2YvAii4QgqwAABAgNX4IuLwFj2O9+VVq1bds13hQVi0/H22wXWrQ4Nss+0+CLCyRd3HOn0XU/i5Z85xg/Jd1Y+WLFlypx5ZcL+8jeHVjeH8P6IPpsB59f3ZGm2H7+TtLqxly5Y9OBzX1hb08eZQz3OVFGABAIAAq/GFxEUtWoT/vNWfIft+4ft+vo3BwbX9EGDtuMsj2zi83Z9hyZIldw0/712tCG3CMT+qhxbch7dw77Xb1vv7KJh4e5Oh8lk5nNeTFp6nM+0K+xuR7aOXBWuhhgVYAAAwQLJHYHotwArHfEILF+LZ29r+udk3yoUF48Lwfc6b411XX2vkroh+CbDqlbXXm1auXHm3Nhz+vNAvfxW+/29adPfba3rw/P7vNoWPJ/TRHLiqyfbIXizxwjx9pvojpJ9pYZ9fE+r0iYmJ/bv1ecL596TQV2+pH0s2Bl8qwAIAgAESfsF+Tq8FWM0sJu5oc/ewQHpbtjDP3ua1N8ewdOnSB4Y/NxHq0gbejvjrUA9r4DjLfRZg7bxALi5ZsuTezR5ztr9W+F6rQ32phcf31b0dF3nS4Gbue6qfhm89r1/mwNBGB9cfl2s24CyFr/dpJJxpx+davXr1keF4ftfivv9tdsdZqHu1u1+y+bW+yf50qN/vor3/S4AFAACDFWA9rxcDrLB4eXQL9jPabZhV3wj5/GzxEers+iM5xfD1nPD1g/VNjhv9/ttC2z0120i+kWPrkQDrNw2EelldH+q92Z1Tc9loPwuXwp97cnY3XajLWzweLu/Vt7K1YzP30Den9ds8WD+vW9E+12Vv2szedLly5crFq1atOiZ7/G7ZsmXzw/92bDjvHxP+m2dkdzPVA69vZG8zbNfnCsfw0Cz0bsMceV2oD4fP9DdZ0NTkYc7LwrbsDqvsTrb6nax7M2Z/KcACAIAB0sxr5LsZYNUXne/u0N1Brd6I/d92ChfmGvJc3yMBVrZP2T80+2hWaKsfhq/vDOP0tVlwUr/jbaK+IXsx/O8X1B/FnG1jmPmwXj7HW7yZe6XTm+93qI2GGwxcW1GzbZ7jn97GvdB21FXZixnC1zeHemX2eF/9PH1ZFv5nL7XIgpzw7/8aakN9Xrm4fn43s+H84R0cIwIsAADocoA11sMB1r129WhJzuvi7BG3nRZF1871e+z85/McYI2Oju4bvn6yF0PGem0N58fSXj/Hly5det/6Xm+t2PvqLf06F7Zoo/+Gqt17S9UfFb+hh8/F3Y3HZwmwAABgQCxfvnxtE3cS/UUOjv/ENj5K2Oo7r75y4okn3vk2i6JfzPX7jI6OHtILAVb9z98n1E96cHFczR7z7KNw5v0tCgyO7eO58Oj6o3HdmBvavqdUNp7b9Dhh1+9mFWABAMAAyPYwaWIB8bScLM5f3gOLrW/t6lX09T1w5vS9wvc5rFcCrEx9M+mf99DC+JpwXjy2n87z+r5LzYYFn+73+TB8zn/pxphbuXLlgk58vmwPrtCPV/dRiPVlARYAAAxOgLWuicXDaF4+Rws3YW7HYy4fW7JkyV130/6fmOv3a8GmyR0NsOr984BG7jbrQn2zU2FCJ9Uf57yiyQDrmf0+Hy5evPjA8Fl/0IU7iR7ewbkyOxe/0CcB1g3ZWyQFWAAAMBgB1tlNLB4mcrZAf2sOF1j/cUd7VmVv3Gtgsbuo1wKs+sI527Ps4zkOGi/o1GK4G+qbZzfaPr/p5N5rXZ4TH1t/G2YnA6yndDio2y97CUIXN65v5Xn7BAEWAAAMgLBwek0Ti4czc/h5kjzsiZU9phPq+XuxKPrPBr7/E3sxwNoRNNbfRpanfcsuH4S7i8LnfGETbfSyQZoXw+d9cif3iwrjb2WXwroTws//UY/vg5UIsAAAYDAWam9o4m++/y6nodzju7zn0sUnnXTSEXvZ/v/UwPdf3asB1k59lG2+/+Nuv2UwC3BHR0cPGoRzvb6JdyPttHl3j8D2+dz4iE499hrG4Zpufc7sDYhZQBlqU4+FV9uyfdk6tRejAAsAALq/SGvmsaIX5vVzjY6OHhqO780dfnX810KdPJfjDIubNM+PbrYrwNpp4Xx6F96MVsn2TNvbkLGPzvUzG2yvfx7U+XHlypV3C5//7R24Y/D0HIyP+9Tvjrw258FVdsfYP3R6rzoBFgAAdFlYyL+7ibsGnp/3z7ds2bL54VjPC3VdGxdUl4ZFytMbOb5G3gIZ2v2sfgiwdsjezlgP8n7T7jdBhrZbPzo6eo9BPNfD5/9kI5tkh765/6DPk9k+S6G+2MaxGefls4bz45BwnpyWozeH3hTqS6H9/76T+/8JsAAAIH+L2k818Qjhs3rlc2YhSf0xmS+1aOPib2RBUvi+UTPHtXr16vtl+9DMpcLPHu6nAGuHbGPpbC+q8GffEeqqFvRRFlp+NtusupsL35wEMA9q8C6it5slb3U+PC7b7L8Fj9ttycZmtn/TsmXLHpzTjzuv/hjlP3b4cd+t2VsSQ9v8W7Y3WHY3rZEHAABkC7LvN3EH1uN78TNnb8PLwrfsb8ZDfSx8lp/UF5S7+pyz2SbfoT4c/tzrwn//7JUrVx41QOOjYwHWzorF4j6hrR+VhY6h3d9WD1p/G+qabE+m+s+4uf7vvw7/zQ/D14+GelO2N1u2Cfeg7G21l/043WA/Pkzr3V4YWweEeWBx/aUR76zfnZOFPJeF+mmor++o+hyT3QX66vDPY+Hrcb34RscsOA/H/9z6vomfq597jYZUN9Tn1S+Eek9ox1eF+qtsvGWPFhthAADArhYlVzaxCDm8zxalhy5btuzuS5cufWD2NQtRjI/uBFi0TvYIYOiP6xvow09qPe7I4sWLD8zmy5NOOukxt7lL9IkrV648fufKgrvly5cfnc2t4Y/O03oAAMBcFh/71fcXaegRGIuQ/ifA6n0rVqx4S4N9+GStBwAAQNdlb3Fq4u6rH2jB/ifA6m3ZHm0Nvonz81oPAACAXAiL1Gc0sYH7+7TgQIwRAVYPC+fpfze4v91TtB4AAAC5EBaqpzexgfsZWnAgxogAq0eFc3RJg33n7isAAABytcB9WxOPED5CC/Y/AVZvGh0dPSR7O2MjfXfSSSc9VQsCAACQG2Gx+v0Gw4lKL74GnobGiACrN/ttusF++4LWAwAAIDeWL19+r7BY3dbgIvejWnAwCLB68tx+ZhOPBj9JCwIAAJAbK1aseFYTi9y1WnAwCLB6rr8Koa5tsM/eqwUBAADIlUbfThbq+tHR0XtowcEgwOod4bw8NLT7jxrsr+uWLVs2XysCAACQG6tWrbpntmBtcKH7AS04OARYvWF0dPSA0OYfb+KlDP+oFQEAAMiV5cuXv6rRhe6KFSuerQUHhwAr/0ZHR/cN7X1hE+HVH0LdRUsCAACQG6tWrTosLFbLDS50L8/u9NCKg0OAlW/Z20BDW7+zifDKnnYAAADkT1isvruJu6/WacHBIsDKryVLltwp23i9mfAq1CfDt5qnNQEAAMiNsFh9YRML3WtGR0cP0YoDN2YEWDm0bNmyu4c2vrTJ8Kq6cuXKBVoTAACAPAURLw51QxOL3X/QigM5bgRYObN8+fJFoX1/3GR4ldULtSYAAAC5kN011UQIsaN+Z5PnwSTAyl1/PC+7c6oF4dUlQx4dBAAAICeL3aeFuqwFi93nac2BHUMCrBxYuXLl3VoQRO+oP61evfpIrQoAAEC3Q4dHhPpwixa7nxtyp8YgjyUBVpetWLFiefYG0BadzzcuX778KVoVAACArhgdHT00LEyfHxaon23RQjer60Idp3UHlwCre1auXHl8aMePtvB8roU54iVaFgAAgI4YHR09YNWqVdGKFSuWhkXpK8PXT9TDplqL63StPdgEWF1p8+NCXRhqW4vP52mtCwAAQCcWtmeGur4NQdWu6uIhjw4acwKsjshetrBixYqx0G6fb8f5nIXcExMT+2tpAAAA2m758uV/1aHw6rfhZ91LiyPAar9Vq1YdE9qr3Mbz+ePhfD5YSwMAANARK1eufGQHwqtvL1u2bL7WJiPAar/szqjQXpvadD5/eHR09CCtDAAAQMesWrXqnm0Or97pTg12JsDqjBUrVryvHY8BL1my5E5aFwAAgG4ECte0YaH7p+wNhlqXXYw3AVYH1Pe/auXbBs9dvHjxfloWAACAbgUKX2txeJW97ew+WpbdjDcBVgcsXbr0vqHNbm7B+Xzz8uXLEy0KAABAV4XF6btbFFx9KdSTtSh3RIDV0bb+epPn9FWhnqElAQAA6Lrly5e/pslF7qXhe5ykJdkbAqyOtnWx0fN6xYoVHzvppJOO0IoAAADkwvLly9c0sB/O1aHeFha5x2pB5kKA1TmNvGU0O7fD1/Hwx+dpQQAAAHJjxYoVT9jLxe1PQr35pJNOeqrNnGmUAKtzisXiPqHdrtjL9r0x1IYlS5bcW8sBAACQx0Dh8PoC9tr63RdZUPWp8M+l8PXlK1asWLpq1ap7ailaIQtIli1bNn+u5cUADZ/f5+0huLohnOMXhK8FrQUAAABAxy1fvvwvdxNc/SHb/27FihX310oAAAAAdM3KlSvvlt1lteMuy/rdVstGR0cP0DoAAAAA5MKKFSvGTjrppMfYuw4AAAAAAAAAAAAAAAAAAAAAAAAAAACgB9SGhuaVpxbeU0sAwC1cFwEAIIcqceEV1yTzD9USAAz8NXFy+EnVOHqqlgAAgJypJgufXkmiT9WKiw7QGgAMqkoyvKgSj3yvNjq0r9YAAICcqRWH9imn0a8qSeG/skcKtQgAg2Y2LhweroO/DvVqrQEAADlVSaJXhaplX7UGAIPk6uLwXcP179uhtm2aHF6gRQAAIKe2nnnMA8Mv7jffEmIVXqxFABgEtXVHHpQ9Rl//S5xPaBEAAMi58Iv7x+u/wG8rx4W1WgSAflabOH7/ahpdXL/2ZfUcrQIAADlXSaNn7/RL/E3Zv2sVAPpRtlF7uNa9a6fr3tW14lEHahkAAMj7L/PFRQeEX+Cv2umX+Rs2JyPLtAwAfXW9GxqaF65x/7nT9a5WSQvnaBkAAOgR5Tj6l1v9Qp9EWyrpwsVaBoB+UUmjN93mWretkgwv0jIAANAj6pu533TrX+wLs9U4eqrWAaCX3XLn1cgbbhNeZfVxrQMAAD0m/CL//tv/cp+FWCNP0zoA9KLt4VVaOGcX4VXN4/IAANCDskcGd/ULfqjrynHhZC0EQC+p73n15t1c235WKw7to5UAAKAHhV/ov72bX/SvL8fRSi0EQC/IwqlqUijt5ppWq8Qjf6eVAACgR5XTwvhuf9lPousr6cgztRIAeVYrLt4vXK/ecQfXs81XF4fvqqUAAKBXf+k/bfhO4Rf7K+7gl/6bKsnI32gpAHJ8HbvoDq5joUbeqKUAAKDHVdLCa+74F/+oVo2j12spAPLk2jOOulsljT67h2vYtvLUwkhrAQBAj9tydnRE+AX/hj2FWGGR8CYb4AKQB7Nx4fBwbfruHv8CJo0u1loAANAn7nDj21vX+2vFow7UYgB0y6Y0mp+9VXBvrlvlJHq8FgMAgD6RPV5xy35XexVifWpTeuzdtRoAnb9eDT8mXIeu3KvrVVq4VIsBAECfCb/sv2cvA6ysflaOCwWtBkDHrlNpYTRcf7bs7bWqmg6fqNUAAKDPVJPoIdlmt3MIsa6upAsXazkA2n+NKpwerjs3z+Ea9c3a0NA8LQcAAH25QIg+OIfFQVbXhz9zipYDoB1qxUUHlJPo/Dlem2rlNFql9QAAoE+Vk4WPnesiYftdW2nhNd5QCEArVdYvOCxcYz7XwHXpB65JAADQ7wuGtHBpA4uF7E1PH7a5OwCtMJsOP6yaRL9s5HpUTQp/rQUBAKDPZZveNrJg2LG5ezVZeKxWBKDh61BceN5cNmu/TV1WKy7eTysCAMAACAuALzQRYlWyN0VpRQDmojZx/P7hGvLmJq4/tXJaGNeSAAAwICqTw09qZgGR7YtVTUb+qTY6tK/WBGBPqpOL7tvgflc714/dfQUAAAOmkhQ+1uRCIqvPbDk7OkJrArDb601ceHK4Xvy+6WuOu38BAGDwzKYLj9/+hsHmQ6yrNicjy7QoADvL7tKtpFExXCduaj68ir7jzYMAADCgKsnIe1sQYG1/pLCSFs6pFRcdoFUBqKxfcFi4Nny8RdeYWjUtPEOrAgDAgCpPLYzCwuDGVi0wykn01U1pNF/LAgyuahw9NVwT/tCqa0u2d5ZWBQCAQV9oJIVSCxcZWW2qpNGElgUYLLXiUQdW4+j14Tpwc0uvK5PDT9K6AAAw4LYm8x8QFgjXtTjEyurC8tTCe2phgP5XSYYXhXn/W62+llST6INaFwAA2K6cRP/ahgArq8uraXSCFgboT9nG6uV0ZLJNfxFyUzWJHqKVAQCA7a4uDt+1xfuV3HqD9zjaUCsefrCWBugf9Tt4P9Wma0eowtu0MgAAcCuVZORv2rcI2V4/LCcLH6ulAXpbbWhoXjmJXrh9z8P2XTM2ZW8y1NoAAMCtFySjQ/uGBcO32xxibb8b68riokO0OEDv2bS+cHSYyy9p87WiVk2jdVobAADYpUpceHK7FyX1TXl/WY1HnqbFAXpDdtdV9obZMIdXOnCd+FnttOE7aXUAAGC3wsLh/Z0IsXa8qXDzukX30OoA+bU5XTBcSQuXdurasDkZWabVAQCAO7QpjeaHBcTWDoZYf6gm0SnZ3+5rfYD8qK078qBKGhXb9IbB3dUlWh4AANgr1SR6XQcXK7dU9rf7U8MP0voA3Rfm5KeEufnHHb4W3Fg565gHa30AAGCvXBUX7hIWEr/teIi1/W/5C6/O/tZfLwB03pazoyMqych7uzD/18pJ9G96AAAAmJNKPLK6GwuYel02OxUt1QsAnVErLt4ve/NfmH/LXZn34+g33lALAAA0JCwqPtDFEGv7XigeJwFor2ocPTXMt9/t5nxfTgor9AQAANCQLWcvuH+HXpl+x3uixNGGytTwvfUIQOuUpxZG2dtguzzHZ3WR3gAAAJpSf6SkloO6upoUTs8ec9ErAI279oyj7laNo9d3+O2Cu6vylnj4SL0CAAA0pTY6tG9YYHw9JyFWVt+3PxZAA/P5xPH7hzn0paGuys2cHo/8nZ4BAABaoppED9n+KF9+Qqyw6Cl8sZKMPFHvANyx2tDQvEpaGA1z58/yNI+Xk+hr2V+S6CEAAKBlKsnIG3IVYO200Xt1feE4PQRwe9U0OiFnd9HuqJtmJ4cfrocAAICWyl5vHhYcl+U0xLqpmkQb7aMCcIvZdOHx29/kms85u5btwaWXAACAtihPFR6XhUV5XRCFuj57Y+GWs6Mj9BYwiCpnHfPgchpdEObDm3M8V/+gVjzqQL0FAAC0TTmJ/jXHiyJBFjCQKsnwoh4IrrK6cTYuPEKPAQAAbVU7bfhO2ZsAeyDE+nOQFRZLh+s5oB/tFFzd1BPzclx4hV4DAAA6YnMcPTJ3byW849pSSQvnbE3mP0DvAf0g2wC9khTe1wN3XN36rYPFxfvpPQAAoGPCwunVPRRg7agbbrlTYXiRHgR6UTmJHl9No4vDfLatx+bf67L9ufQgAADQUdnfouf01ex7U9uyBWA5WfhYPQnkfr4dGppXToaXV+LCF3t0zq1Vk+hlehIAAOiK6vrCcdv/Vr1HF1TbKy1cOjsVLc0WiHoUyJNsz8FyPDIW5qof9vY8G322VhzaR48CAABdU40LZ/T0wur/6mfVpHD6lcVFh+hVoJsq6xccVk4LSZiXftsHc+u116YLj9KrAABAV2V3LoUFygf6JMTKanO24bsFF9Bp1cmRh2ZvTt3+4ok+mVPLabRKzwIAALlQnlp4z7Do+k0fhVi1W96yOPLe8mT0BD0MtMv2/QTjkdXZ48x9Nodm9WY9DAAA5EoW9NwS+vTdAiyrH2eP82xet+geehpohdmzjrlfNq+U0+hXfTpvfre27siD9DQAAJA7lbjwij5diO2oraEuLE8VHqe3gbnKHrmuptEJ2TwS6oZ+nSurSVQtT0UL9TgAAJDPxVlxaJ+wePlkn4dYt+zrkkRfLceFtTZ9B/Yk25S9moysz14WMQjzYzWOXqDXAQCAXKuedfR9wgLmD4OwSNv5rqzsrors7gojAMjURof2HYS7rW5XcfRuvQ8AAPSEajzytLCQuWmAQqwddVlYvL3SGwxhgOe/JHpIJRl5Q5gPrhzAOfAH7koFAAB6SjkpxAO4eNtRN2ePUpbTkTXXJPMPNRqgv2UbsleTwunhvP/mAM97m8pTCyOjAQAA6CnZ43TZoyQDvJjbUddV0+jiahKdcsX64+5sZEB/uPaMo+6WndfZ+d3Hb2Dd69C+PDlyklEBAAD0pCywyV6lLsT6c23Z/hbDZHh5beL4/Y0Q6C214lEHZudvOY0uqCSFWXPajn2vCq8wOgAAgJ62OV0wHBY411jk3a6y/XH+s5oWnlErLjrASIF8yvZ0qiSFvwzn63tCVcxdt6sPeIEFAADQFwZ4U/e9e+V8ElV3PGZoA2Tovk3psXfPzsftbxgN56d5arf1Y/v8AQAAfaUSj5xtsbd3YVYlGXlvNS48b/O6RfcwcqAztsTDR1bSkReF8/DjoW4wH+2xNpfjQsHIAQAA+sr2Td2Twvss+uZUN1XS6LPltJBUkuFFRhG0cE4qDu2zOR5+dCUtvCaca98y38xtbsr2AjOKAACA/lwwrjvyoGoSfdnir+G7s34Zvr75ln2zjjrQiIK5ubo4fNdKXHhWOY3Oq+9DZ25paC4qnG40AQAAfa18ZnSvsAD6mUVgS95oeEl2d9ZsuvD47G4SowturTY6tG92ftxyF2N0SajrzR3NvnEw2mBkAQAAA6ESjxzjzYRteavhhZU0mth65jEPNMoYVJvSaH52Hmw/H5LoWnND66qcRB+uFRfvZ5QBAAADoxpHT7VRcnvfDhbqP6tJ4a+zzamNOPpVeSpauD2wSkfeEcb8b537batveksqAAAwmAvPeGTMorBj9fsdd2jZEJ5etuMOq3IaXVCJo984tztSv9ty9oL7G30AAMDAqr8BzAKx8/Xb7K2Q1TQ6szxVeFy2wb7RSN5ck8w/tBqPPK0SF15RjqMPhXF7tXO341WuJtFDjEYAAGCg1YaG5tUf/bFQ7G7dUE6ir4av/16NC8/bNDm8wOiko3PB6NC+lbOOeXA5jU6tJiPTYSx+P9TNzs3uzgvZW0+NTgAAgGzhOnH8/tUk+qDFYu5qcyWOPl9JC+eE/jkle/TQ2w5pyTlfXLxfNp62j6swvrJxFv656pzLVWXh4XOMVgAAgJ0XtOuOPKiSRp+1aMz/40S39NPIG8tpYXw2jf7iivXH3dkIZnc2r1t0jzBenlhJR15UiaMN5ST6WhhH1zmX8l6FFxu9AAAAu3B1cfiuYeH0dQvHnt0k/pIdd2vNpguPt6/WYKkVFx2w466qahy9vppGF4cxcVmobc6P3qpyEp1lRAMAANyBytTwvcMC6kcWkX0WbGV33qSFpJwML8/eIpftd2S092JItXi/rP+qaXTC9jdaZo//Zf17S1Blv6r+qH830gEAAPbC1jOPeWBYRF1uIdnXtaWSRt8JX/87exyxmhROLyeFFdXJkYdee8ZRd3MWdE91ctF9N0+NPCr0z7NDn8Shf/6jnEQfDl9/GvrrRmO3fyvbPD97sYazAAAAYC9V4pFjwoLqKovKga1rQ327ko78T/j65koy8vJqHL2gmix8evaYWravkrNkbrIN+GfPOuZ+s5PDD8/uhAtt+jeVNCpWk2hjOY4+Etr5h6G2GnsDWxe5MxIAAKAB2UI7LKqusbBUu72LK4l+Hupz2+/kiqNzw9fXVpPoZdv34ZqKlmZ3Em1aXzi6H+/qyh7nK58Z3as8FS0sTxUel93BVo4La8tJlJbj6F/KaXRe9nbPUF8O7fJbd0+pO9jz6sO104bv5KoDAADQXIh1tUWmalFtqsTRb8LX71fiwhcrychHwz9feMvb8Qr/L9t8vBxHU9l+XfU7lLJ9nkazyvZ92lHlqeHHZBvV37Y2TQ4vyPaIqkwNP2hX/3/2Nr4d32M2iZZs/75x4Xnbf04yctr2nxtHr8yOo/5oZamSFN6X7TNVf3vfT0L9Ifxvs/pSCa8AAAByJNsXKSy0/mSxqZRSLQyv4ugjteJRB7rKAAAACLGUUkp4BQAAMGAhlo3dlVJKeAUAAJDjECuJHiLEUkop4RUAAEC+Qyx3Yiml1JwreyulDdsBAAA6qBKPHFN/m5yFqVJK7ani6J21ieP3d/UAAADosK1nHvPAsDD7scWpUkrdUY38R604tI+rBgAAQJdsXrfoHtUk+rIFqlJK7eKxwTh6vSsFAABADlxZXHRIWKhdYrGqlFJ/rm3VNDrTFQIAACBHso2JK0nhfRatSikV3VROC+OuDAAAAHkMsUaH9q0m0UaLV6XUANd1lXhktSsCAABAnkOsoaF5YQH3WotYpdQA1h/LU8OPcSUAAADoEeV0ZE1YzF1vQauUGpA3Df508+QxI2Z/AACAXguxpgqPCwu7qyxslVJ9Xp+89oyj7mbWBwAA6FGb0wXDYXH3EwtcpVQ/VjUplGrFRQeY7QEAAHpceWrhPcNC7zMWu0qpPqptlTQqmuEBAAD6SO204TuVk+jtFr1KqX5402A1GXmumR0AAKAfQ6zsDYXxyNlh8XezBbBSqicrjn6zOY4eaUYHAADoc9W08IywELzaYlgp1VOVRp+tTi66r1kcAABgQGxN5j+gnERfsyhWSvXInVcbahPH72/2BgAAGDC14lEHVpNoxuJYKZXj2lpOR9aYsQEAAAZcJY0mwiLxBgtlpVS+qvDr2bjwCLM0AAAA9RBr4eKwYPyjBbNSKg9VjqOPbF636B5mZwAAAG4dYq1fcFi2aLR4Vkp1sW6spFGxVhzax6wMAADALtWGhuZVk8LpHilUSnXjkcHyVOFxZmIAAAD2ymwa/UVYUF5mQa2U6lC9f1N67N3NvgAAAMzJ1cXhu4ZF5bssrJVS7XzLYHbXpxkXAACAplST6JRQVQttpVSL64fV9YXjzLIAAAC0ROWsYx4cFpvftOBWSrWgtlXS6E21dUceZHYFAACgpWrFxfuV00ISFp/XW4ArpRqpchr9qhpHTzWjAgAA0FbVZOGx7sZSSjUQXl1wVVy4i1kUAACAjqhNHL9//W6sGyzMlVJ7qN+XJ0dOMnMCAADQFZvj6JHZRswW6Eqp3dSFm9ctuofZEgAAgK7KNmKuxoV/DgvVGy3WlVLbK45+szkZWWaGBAAAIFeq6wvHVeLCFy3elRrourGSFs6x1xUAAAC5VRsamldNolPCIvZPFvJKDVoVvjEbFx5hJgQAAKAnVM86+j7ZG8fConabRb1SfV+bqknh9Nro0L5mPwAAAHpOZXL4SWFx+yMLfKX6s6ppdPGWePhIsx0AAAA9rVY86sBKHL2ykhRmLfiV6pv6QTUeeZoZDgAAgL4yGxcOr8TRhrDwvdniX6meravLaSGpFRcdYFYDAACgf4OsdOHxlTT6rCBAqZ6qG7IAunxmdC+zGAAAAAOjnAwvD4viywQDSuW+LqlMDT/IrAUAAMBAyh5Dyt5eFhbIm4UESuVvn6vZJFpipgIAAIAgeyypGkevDwvmLUIDpbr8ZsEk+mUljSZqo0P7mp0AAADgNracHR1RSQvnhEX0dYIEpTpel2d3RNZOG76T2QgAAAD2YOuZxzyw/sbCG4UKSrW9rrrlzYJHHWj2AQAAgDkqT0ULy2l0QVhg3yxkUKrldXUljYpXF4fvarYBAACAJlUnRx4aFtvvCXWT0EGppuvKSjLy8muS+YeaXQAAAKDFNqXR/PoeWTZ7V2qOVU6jX23f46p4+MFmEwAAAGiz6llH3yd79Cksyq8VTCi1x/rZ9rcKThy/v9kDAAAAOizbuye7oyQs0H8vpFDqdvXNahKdUhsd2tdsAQAAAF2WPRJVSUdeFBbs3xdaqAGv7M2dF5YnoyeYGQAAACCnykn0+GwBX1/ICzTUoNQfq3H0+q3J/AeYBQAAAKBHzMaFw+v7ZF0l3FD9W4VvbN/fat2RBznrAQAAoEfVikcdWE4L42Gx/3Vhh+qT2lpJR96xOR5+tDMcAAAA+kxlavhB2WNW2eNWQhDVg/WDclpIymdG93I2AwAAQJ+rFRcdUE6Gl9f3yrpBMKJyXNdU4mjDbDr8MGcuAAAAbbVhw4b9p6enCzMzM08IX1eVSqW/Cf+c7Fzhf1sf/r9TQp24cePGB19wwQWHabn2mz3rmPtVk8LplTT6jrBE5aRuDnVJJS2MZmGrsxQAAICWm5mZOXB6evrxodJSqXRRqB+GuiFUrYG6OtQlof4p1LPD9z5KC7cxzEqjvygnhf9XTqNfCVFUx0OrtHBpJY5eUj3r6Ps4GwEAAGi5Uql0/1B/G+qToa5rMKza2/peqH+cnp5+TLFY3Efrt0clGV5Uf4vhZcIV1e59rbK3ZjrrAAAAaLkLLrjgztPT02tLpdIXQ21rc2i1u/rDzMzM69yZ1T614tA+5SR6fCUtnFNJot8LXFQrQqssHN00ObzAGQYAAEBbnHvuuUeXSqX/CLW5S6HVrurmmZmZD4ZaWqvV5uml9oVZs+nC47M7Zipx9PlKEm0Txqi9qC3ZnlbZXmtbzl5wf2cSAAAAbTMzMzMSaqaJ/aw6VV8977zznqrH2q+yfsFh1SQ6pf42w7KgRu2o7fuoxdGGbCP2K4uLDnG2AAAA0O7g6m6lUumNPRBc3bY+ft555x2vBzujVjzqwNkkWlJJozdtf0RMiDOId1l9spxEaTVZeKwzAgAAgM4EErXavPoeV1f2WHB1q0cLQ52zYcOGg/VoZ2V3Z2V339T3zvq6gKfv6sasX6tx9PpqGp2QBZhGPQAAAB117rnn3qdUKv1vDwdXt6qZmZlfTE9PP1nPds+WePjI7HHDUDOhfiEA6rm6vhIXvhi+vrYajzytVjxcKAwAAED3TE9PryqVSn/ql/DqNndj/UuxWNxPL3ffNcn8Q7M7d7K30YWvF1eS6E9ColzV77N+yTbsz95CWVt35EFGLQAAAF2XPTI4MzOT1IOeWr9W+IyfCV/vrcdzNv6KQ/tU4pFjyunImkoy8h/1xw63CJI6UleENv9o+PqqzcnIsvKZ0b2MSAAAAHKnvlH7h/s5uLpN/SzUg/R8/s3GhcPLyfDy7XcCpdEF9Q3ibxI6NfgYYGi/rB1vubNqePnsWcfczygDAAAg9+r7XX1rgMKrHbU51JOMgN6TPc42my48PttTq5KO/EOod9T3Z/qjkCq6IdTPK0nhY5V45K3ldGSynBRWbEqj+bWhoXlGDwAAAD3nggsueMD09PRPBjC82lGzNnfvL1cWFx1STaKHlNNoVTWNzqwk0ZtDfSDUlypx9Jv6XUi9HFBtDvXDSlq4NAvusrcAVtJoIttPbNP6wtG14mJ7vAEAANA/zj333CNLpdKvBji82lHVjRs3PtGIGBzZHk+VZHhR9ja9ahw9P7tLaXsQlBTeVomjd1aT6IOVJPpcJY2+U06jX4V/vqZNj/NdecvdUtv3+/pEqPeHn3deJS2cE47l1ZVk5LRKXHhWearwuE2TwwtspA4AAMBAOf/88+9ZKpV+ILz6vxBrenr6MUYGd+SK9cfdeVN67N2zqqxfcFj2WN6Omp0cfnj2WOOOygKyP///6wtH7/hzWdUmjt9fawIAAMAd2LBhw8EzMzNfEVrdrq7IHqk0QgAAAAC6bCYQVu22vnXBBRfc2SgBAAAA6JJSqbROSLXHuqhWq3lbGwAAAECnZXs8lUqlGwVUe66ZmZmXGDEAAAAAHZTtezU9Pf0T4dSc3kw4bOQAAAAAdMj09PRbhFJzrk97lBAAAACgA0ql0mNDbRNIeZQQAAAAIHeKxeI+pVLpq8KohuuajRs33sNIAgAAAGiT6enptUKopusfjSQAAACANvj3f//3O5VKpd8KoJqu2enp6cONKAAAAIAWm56efpHwqWV7Yb3ViAIAAABooQ0bNuw/MzPzC+FTy+q6UPc2sgAAAABaZGZm5rlCp9bW9PT0pJEFAAAA0CKlUulSoVPL67LsrY5GFwAAAECTzj///KhUKm0TOLXlLqwlRhgAAABAk0ql0j8Km9q2mfs7jDAAAACAJpVKpR8Lm9pW12Yb5BtlAAAAAA0677zzFgmZ2v4Y4ZONNAAAAIAGzczMnCVkavtjhG8w0gAAAAAaND09/QkhU9vrh0YaAAAAQAOKxeJ+pVKpImBqe23bsGHDoUYcAAAAwBzNzMz8hXCpY/UkIw4AAABgjkql0osFSx3bB+tlRhwAAADAHJVKpXOESx0LsN5hxAEAAADMUalUukS41LH6ghEHAAAAMEelUulXgqWO1a+MOAAAAIA5KpVK1wmWOlbX12q1eUYdAAAAwF7asGHDoUKljte9jTwAAACAvXTeeectECh1vB5k5AEAAADspXPPPfc4gVLH30T4UCMPAAAAYC9t3LjxYUKlzlZo80caeQAAAAB7aXp6+hFCpc5WaPPHG3kAAAAAe+m88847XqjU8QDrEUYeAAAAwF7auHHjsFCp4wFWwcgDAAAA2EsbNmy4l1Cp4wHW4UYeAAAAwF7asGHD/qVSaZtgqWO17cILLzzIyAMAAACYg1Kp9AfBUsfqD0YcAAAAwBxNT09/XrDUsfqyEQcAAAAwR6VS6XzBUsf2v3qXEQcAAAAwR9PT06lwqWMBVmrEAQAAAMxRqVR6inCpYwHWiUYcAAAAwBy94x3vuGupVLpZwNSRurcRBwAAANCAUqn0PeFS2+uHRhoAAABAg6anp/9VwNTempmZeYORBgAAANCgUql0gpCp7ftfLTHSAAAAABp04YUXHlAqlcqCprZVZcOGDQcbaQAAAABNKJVKbxc0ta3eboQBAAAANMljhG3d/+oZRhgAAABAk4rF4j6lUuk3AqeW1x9C2+5nhAEAAAC0wPT09CsETi3fvP0VRhYAAABAi2zcuPEe2YbjgqeW1XXnnnvufYwsAAAAgBYqlUpvEjy1rM41ogAAAABabOPGjQ/M7hwSPjV/99XMzMxRRhQAAABAG5RKpf8ngGq63mgkAQAAALTJf/3Xf929VCpdLYRquMoXXHDBYUYSAAAAQBtNT0+/VBDVWM3MzJxmBAEAAAC0WbFY3KdUKn1WIDXn+uqFF164rxEEAAAA0AEzMzMLS6XSVqHU3m/cfu655x5n5AAAAAB00MzMzOmCqb1+dPB0IwYAAACgC0ql0nsFVHusD9VqtXlGCwAAAEAXbNiw4dBSqfQzIdVu67Lzzz//nkYKAAAAQBedd955C0ql0h+FVberTRs3bnywEQIAAACQAxs3bnxkqVSaFVr9uW4477zznmpkAAAAAOTIzMzMyiy4EV6VbghtsdqIAAAAAMihjRs3LiuVSlsHOLy6aWZm5jlGAgAAAECOzczMLB3QEGvr9PT0KiMAAAAAoAfMzMw8ulQq/WGAwqs/hc/8BD0PAAAA0EM2btz4wOnp6e8MQHj1g+xNjHocAAAAoAe95S1vOaR0i34Nr8674IIL7qynAQAAAHpcqVR6dqhNfRRcbQ71Aj0LAAAA0EdKpdL9Q72/D8KrD5x77rlH6lEAAACAPrVx48ZlMzMzv+i14Co75unp6WfqQQAAAIABsGHDhv1LpdJEqN/1yBsGk1AH6jkAAACAAbNhw4aDS6XSulCX5fGOq+zYpqen76KnAAAAAAZcsVjcZ2ZmZnmpVPpoqJu6GFxlP/uj2aOCF1544b56BgAAAIDbOffcc+8zPT390pmZmc90KMy6MdTnws87PdR99QAAAAAAe23Dhg2HTk9Pn1wqld4Y6muhtrYgsNo6MzPzlfD1TeHryuxnaGkAAAAAWqJYLO5XKpUeFOrZMzMzLwv1hunp6XeFf7+kXl+v16Xhf/9I+PqeUOdk/234+qxzzz33uOx7aEkAAAAAAAAAAAAAAAAAAAAAAAAAAAAAAAAAAAAAAAAAAAAAAAAAAACgH/1/oITVIxxgGQsAAAAASUVORK5CYII=;" parent="1" vertex="1">
          <mxGeometry x="685.71" y="175.01" width="198.57" height="104.25" as="geometry" />
        </mxCell>
        <mxCell id="KWAuoRxqSmageYxoOzQl-51" value="" style="endArrow=classic;html=1;rounded=0;exitX=1;exitY=0.5;exitDx=0;exitDy=0;edgeStyle=orthogonalEdgeStyle;strokeWidth=3;flowAnimation=1;" parent="1" source="KWAuoRxqSmageYxoOzQl-40" target="KWAuoRxqSmageYxoOzQl-21" edge="1">
          <mxGeometry width="50" height="50" relative="1" as="geometry">
            <mxPoint x="520" y="435" as="sourcePoint" />
            <mxPoint x="570" y="385" as="targetPoint" />
          </mxGeometry>
        </mxCell>
        <mxCell id="KWAuoRxqSmageYxoOzQl-53" value="&lt;font style=&quot;font-size: 30px;&quot;&gt;ARQUITETURA ON PREMISE - TCC&lt;/font&gt;" style="rounded=0;whiteSpace=wrap;html=1;fontStyle=1;fontSize=30;" parent="1" vertex="1">
          <mxGeometry x="-310" y="-30" width="1580" height="60" as="geometry" />
        </mxCell>
        <mxCell id="DFUhws0RuYqCm8shGMYr-1" value="" style="shape=image;imageAspect=0;aspect=fixed;verticalLabelPosition=bottom;verticalAlign=top;image=data:image/png,iVBORw0KGgoAAAANSUhEUgAAAIkAAAB0CAYAAACxKBEOAAAACXBIWXMAAAsTAAALEwEAmpwYAAAyCElEQVR4nO2deXhV1bn/P3s6+wzJyQBJDCQQIMwggwiCYMERixWqVitevQ7Vqy2t2tra1hZnW3/Vqk+12uotre216q1WLVYcQUVUEGQeAwkkEDIQMp1hnz39/lj7ZIDMoJH75Ps8+4Hss9dew37Xu971TktyXZc+9KEjyL3dgD589dFHJH3oFH1E0odO0UckfegUvUYkB2MNIYAKbL0SR235W1UiqrZd6sRApZto1f5K7G735wBmqAJbBzhgx0LHq209Qa99jPfff/9Htm0rEVUKSZKEa9lqQFHrLMvS04Oh8gVzznmso/K7Du4v3F1UNKe0fP/kcGq4vKCgYNW0UePe6ahMVe3h0AeffrzIcRxl6vTTnhmc3r+y5e+H6uv0lStXLrIsS7/4wvkPtPWONes/P3v//v2n5OXlrZ0yYeJR9ZU1HM784JOPF0UtMwzguq4qSZI1MCt7y6hhw5YNycgub+u9G/btmbxt27YLYo4VlGXZjjt2yOfzRWzb1jUXY2zhiGVTho38sKP+fVHoNSL59mdv3o0sg5EAJHAdsG0Iq6Bp7Jtz9pJ8pPojy1Xiqg98+NYrj332xjxiMWi0QJJgewA+68+SS79/1Vm+zFfz4aiyWekZkUs+/8evQeOzKTOWDYZWRGJX1+cv2PLKQ6gqLm0TydQ9H7zNxq08YV3wVFtEUhTSCq9Y8drd+BVwJHHT5wPHAE3jwau/e+fC7BEP50GkZbmfxMoefeujpbNQdTEOrgyWBVgg2fzEN2/swGEjVuciGd0Z5+OB3mfrk09hZt6gDUZcsNQ1fjsTny/S3uMvv/LP3z32yfJ5pMTrmHLqx/NyCt43TNP3zroVV7O7aMgPnnj82U++d/uQcp9u5EKrAW2srg0hSYCELMv2ke/WNM1AVSEe73F3LMvSMQyQFJi3oAhdbwTXx/aNYygr4/ZHH737vLseei7PFyxqWU5VFAOfDnoATp9ZebYjVemaZjSY8aDPJxsjBwxaLiP1uF3Hgt4jEgWQYc2E82ZMKcj/uCtF/rFv5zU37XjvRsI2j5177fU/mDL9f5O/vTv1zFfOfvI3GxrK9zH2jT8Vu/NvOmpED6h2FpIfDJsU0z2KEKt9io4qgdy2gvEAbggV0OCjVGny+ZA5BGpaPrPXJxUQCoMpsaxg8qLzcge8CbB+8rkTJ91zy+dkqHyt5JNXakecOa5lOdtxFBIWpIbZMWPexBHQ5rLUG+j13U0sFsvs6rOrPv3kehrqYejQt+ZMmb665W/ZBOpuvuyyhej6brZupbGqIXxkeVVVDWQZbBtJkqwjf7dtW8WyQNN61hnAwYVEAmyb9LS0A8n7AYhx0klQX0eiDS237TgqZgJkmQToPW7AF4Be4SQVoCO7oLmcsftfSzncD+pswgdrGR4IGL+78PIZ04MZ61qW2QwFj5Tvmk5KBmNHn/zJeNjb8vfxsPfRzJF7H/Op9xKL8Xnpnjmzsia8ClAFahZYuiRHsA1QJQxd9R/Zrphf0bFdkCTKEkY4z6e3kmskJAtThoRMfoKqI7kIgIHix4lCagpP6nXX6ISebYTUlTRMo7oClADXyynrjiyX4bgGKTqYNYx/9Q/FuC74dLASzM3K2fD76QvObKu+LwO9L5Ns3QK6DhVR6vGzNpSix414GsE2nq2uAtdiQDhc2+770jMOk0jQ0NCYm7yVBRaInQaJBPhCQnY4Ao7jKCgK2DaGYYQ4gki6ggS2TkoKqCp/eeHvtx6Kh261bJtlDWVgW5CewRnDJ75wZDnXdYUsZJqwfTtEo16jLJaNHjfBnG7rYo3+8tErROIASA44sPTsH1w7MSd/WYqiGAF/oH5HTfnJ4zNyj5ppOVB2WvZgPmks5e2GmsHJ+2uxhu2P1IQUVZdT9bDFoco8NIUUTT9q1uWlhGtICYADxdUVkyf0T9/Q8vdPaysuIKKAL4Cu60fJLLlg4AIu5CSkyiN/BxgTMbaTcCEagS07WCrLkLDAF2CGGuIvC28ZUohecmS5VFc2MGXIGsz//Od1DJV803ItpVSx4na6I1spKL3CReArwEnS0tLKBw7s1ySkjU8vOIpAkhgzdOjqTzaVTeWjlV/j5HkA2DjyXY/8dkN1JM6MUyaL7aPPxxkzprzY5kvCaVB1iP0HDkxg1MhWP+0rK5uMbUNaOkcuNV3uTyi1CssCVeXSa659PTsjozgsa/UDFa18VsrApYVQ0lY5n6ZGUDUw4oxKyyYTigZDDaT2pBnHFb1DJLYNCcBK8EFqYnoabE+HGhvUKIQAxkBpyyJZYH3//PlX/GnV27toqNKll59a8ueL/uPZIaRU/eQXP+fyhxfzws6PwXTh7DPbnOUAv8ib+up9u96cv2jFKzcfOnVEzVmpA5faoC6L7J3/4Iql84nJPDh8+pJ22+5EIQAH/E5uWz+XYhYQNcAX4DvZQx89J6V/hwq+JFKjhoWTgJBGBVANY8sgEoBoJlT2ljwCvUQkuYpiYNugqtyxZMniD3zhxRmmA8ABx0BTNf584y398lLCrQYmQ/JXfveHP3rq9088fiMbN46+etviqwv6ZVESjUJDA1gm9DuJ26bNfKq9ui887+t33Lf58/k0RrjzwV/f/Uh2/7sBakv3QCBARm4e5555VpuKNACCIZAkEqbZ5g5EQbYIhyFqiN1SF+FL6mgqK/n6E/eCEf9AV3VGuw4nNRh8c9yEx29Y8O3vd/V9xxO9tgUeFdMh7oBRw5uHdvD8/h08f6iED+r2827kIKkmR8kEg6H+iczRNx267s6czJxcqK6kZG8x7ClhipPOXTMvYuiew2y595HF7dV7Kv4t7o/ulYYOKwQjTm11FbW7iyDcn9PHTqrfcMOP+k1EKWqv/NCIBRGXyaba5rLoWoaKEQPLIk1Wuzz7R8SloqF1NnmH47BnL0RqMQ6WsL56H8vqyjlQXzuqq+863pB6yzPt1doDF+9L1bKqFDvTj2oMc6Qin6xaFSSybdtWv6ec9DRAhWupOZJqVeGoWchNuo2VMLmWeGbZ4f2jBgbDRYP0/kUBpEhptGZUiqbXTNNCG9qvHZbD9CiESqp3TvD79PqTwgOK09FqTod2ZSKA56i7uNqI5l5mZyzJCfqPIuSPcSbst2oK1ITD6GC/1SNRuqQU22RHCvY21E8IhEI1h2Qn84Ai5dZjpOl2Ij7I1cpOJfBhoRpudxn9ItFrRNId1EQb1cxgylHKr68KKrHVbJSvbPuOFb1OJFWem0BLLvFFodRtDOVLKe3ahfrQNnqdSDrDAczQALS+D9uL+MoTCUAVrprF0baWPnw5OCGIpA+9i163Avfhq48+IulDp+gjkj50ij4i6UOn6COSPnSKPiLpQ6foI5I+dIo+IulDp+gjkj50ij4i6UOn6COSPnSK40YkVU7vuEIW42SW4HY5wOt4ogrU5NUb9X9Z6HHnimrr8svLy09uqKkbEIvFMw3bCvr9/vqM/ukl/fr3L8rMSC/uqcd5dyAjWyaWvwrlC7cUV0Xj+sGqqrH7KysmRCKRTMN1QnHHulvX9Tv6Z2SWDModsHp0Zma7ro8nKrpkBS6FcDnkv1G1Y+Fd69f+hKItKg2HReS77F1IYFpgGIACaRmQ3p/rpkx79dwhI5+bGOr/YQZUJQOluoJSCH8er5714L9feXZVwBfCMfRk8BQuIEmcGjfqR0bd8MSRox6/fOpZPx2AdMy+J5U4agw52ACZ71cXXfz2zm0LX92yfjLV5SABmgyOIxyvAWRN3DddUFQYNIyfnjbrqQuGTno6A6kqA6nyyOD1Y0W1FVdXb1x/5byqbX8Sd0QcE673r+My0ZIi84ePem7miDF/Hav3W93TNnSJSJZ8tmrxUx++d/fqqlLQJPAhgqo1L1Iy+dEUjzElbEEwjgLRGD4thavHn8yVs84+Z2b+4C6FGIAgks123Slf/+mt7xH0gWuKaD9VBcsWKSeicQZGbRbMmLn655dce+bxIJJyLH3ZZ5/E/+eDd3i3shxkR/RbV0CWABsURbQDwLRFdJ4jg+1AwgFHRkbjrnPmMu/U6eMmp/TbcqztaokPN6+f99/P/XXpX1KSGRBaEIkNOK6YjpE4915y+V8vnTX79hEEehSE3iaRVIIag+BGNzH1whf+/DY7NoBfFR/FtsDvh6gBrguqJO7LsvjblEUjk4kdNMQgBxXBZSaeysvnXX7BN9Ff70oDl0UPnX3+/Xe+TYpXj01zvSAqcuGGwtM2/OFbV07sySAkUQyZLxzcefPPXnp+MbHDIuTSBjQdTEfkC/Eroh0J1+uzCYoEqg9wRNtcEU8MCMIx4Rffvuqpa4dPuON4xc9IHzzoUlUJO2vAlwGRGPhCgjhwBbdzXZBskDXcH/2mx3kr2hVcSw5X1S26//632bZNVOaIuBhUFRobxQcPhsRvti0GMDk4UgvCkSRQNREX4/PB2s+46Je3L129a9ecnjb6i0BFNBZ68fV//e5nv/3tYmprRWaAZPuNuOibzyf+dpzmPmo+8XfC8JLOIPqrec/aNjgO9z39xxsf/NNTHx2wjGNObdV4eH820aj4Fj6fqCM5SY+E40Asyqade6b2tL42ieRzOzJr9hN3sc+uAtWAoA6WLOJkLAdCQegfhkiNWGIk2cs34oLmIBzHHXHZFuCKMkYcZAtSJaY9/9h7t76/bGlPG34kGmX0nuwyqkB9F2P6SX//feNPP1u6kAwbNEv0yZVA0TyCsMA1wEqAT4agBE5E9M+VBHfV/WC40GBCvQMRGWQVJBPyA/yh6rNRA//+SOMr1M89lr6+XVk8j1gEFBmCQbATYvxdUyz7Dq0JxrZ4cue6R3ta31FEctA09dvuv+89ZFnk6ZAkkBVwbLHeqapgw7GYaKDjNHMQRWkWZJNrts8Hsaj4XdfFO2MxSCR48+OP5/W04W2gR8FLlQ21Bbf/6oFV7Nkt2pvkGNCCe2rNfVOUZs6alEksS3AS22p+BgQ3Mk2RQiIeF33fW8LuspLpx9LRoqLdzVw45HFzWW5ub0t4HH31pk09rvMoIlm0/JW1m6kHKQYBbyY0NAqZxK+CGQVVBleDegMMS6zXNoLLOLaQQXyO4CqyDSkpIrI+YYmZ5mhg6jxw+TVX9bThreBAvQJWN3IzlEL4NRrmjnvhv3ettashQ4WABnoq1Hg7N1cCJwayKfohSYKj1kThUARcP6gu+CSRJcF2wDGBBARcyNBBdcTkqk/AfpvFM+e/+KO8k+/saVc/5tCEn0T2XommgW1CSBP1K7aQP1yziYlju4AMisxao4K/1+1f2JM6WxFJSW197ksrPxyLqoo11TDELJKkZoEMxMyxLPAHWnMQx2mmZscBMyFmUzzWPLs0DcwEv7juO09NGFzQJeH1i8Iz/3zxDYr3NHOOeFy0Oy1N/O26gvv5/Z5s4nELf0Bwkfo6IQ+At8NzxbjJilhaE4YYl4QBaemMOGUK3559/m3H0ubi8n1TaYyIOlxXtCMQaC0sHwnvu61et+7KntTZtIaXQviRXWufRIuDogupPKDD4SgEUyBaKz5wSirUNDAmPJC7Zpxz24JhY5/WslOblGY7y6sL1xXvuvjDTRt//ee9O4gGFUg0gG2Izhyq44LT5nD18Al3Hs9IeRNwRX861QWUg/7r7aue/tfajyA9U3z4uAOyH2IWaIqYkZoqCKOuHiyNIeFs/iO3kFOnTGH4yEL8qt6vwOtDdWlV/qqtmy5asmfjPa8c2BEmmICMTLHrSFgMV1NYsfAG/7HqS67Yv+mXpLhCNpJcUBIQkiGSAEkFVxH3nRYEo6mgODxasn7uI3yj23U2EYkPjH+s/HA+Pp+nHHPEeqqqYibourhfVwczzuCJ866YNhtp9ZEvHJHbvygjt//Dp86YvuQcs/HUn/z75Rd2bf08hBMTM3XyZL63YOGZdm+l7QFqzXj27//xv5eSkiK4XCAoBlXVhI4jHoO0oGivLEMoxLRpZ5b8cvb510/G/6ENqiI0NU3j1z8/q/TC/DMfG86ZLw+o3PbL36/69/Vs2QyKD3IHcM/Viy45LjaQvSX5aBokGsHvcUC/v31OYtugqxCJQFkpB6oPZw7on9GtydnU7r3YhQdqKsGWwLDBUsUlS2IQ4yZYCpDK8rMumdEWgSSRBdYwqFygpby+c/5VKe9e8b0LLvUN4Ox4iA1zvz16Lsry45ddUKadTVqbOACh37z/5gtY9YJl4xeylayKnLKaC6k6ROrFzi2m89r87171yexvDpmH/51cMPIgkvz3yPePhtInskffUPSN7+Y8UDiHufvh3bMvv+DbWuZLOcfIRV7bt24hIRfcmOB2jitkID9CD0VC7MIkCeKGp9xUvFXBBwGJZzd9+lB3622aCZWxw/mAoDzFU5w5tphd0YjYySQcGJBPjuov604lYwcVvvOz224bHo1GM3ND/XvVtnHIaMz955rV09E0sZRIQZr+r+vgWoKD9usHh+p4+Hu33TEpe9jL3a0nrARq/uOyhWlzZs8ZOywnf83xaPuuot2zicfEN3FNbzflyYypqRCpFQ/KspCzLEvMn4QBugQufL5p03zmdG8H3kQk9UY8C9UVNggXsFzBOWIGpAQBA+w4JGLdTiGZA0aOFCwi1Fa2vOODgBBIOp2pz25bf3dtQxWEPfW+K4kZ6VfASQjdg+NAZZQ7z5j/4g+zh7Wf0KYDCBuVWp+f07UctZ1hJ0buo4d2XY+aAN0HMVtwecUUNqOgD7DBiQvZRPE3bzRchJyCxotVRZk3mPWzztLCXU5B3sSn08Lh8iZNYlIPIMve7HLF7MrIhIoKimsqJxyPjh9nlHTloVdWrlxIMCQ4pqq17mtyUFUVMjO5/My5t3xxze0edtXsnVoWiQoTQbLNkiyupM4mFGrWCNt28/99vmZ9luuycfPm+d2pu4lICuXwFkxZUGdSgaYiDHWxhKgo0giaxTf/+7f/eKbu4I2lcFRC3V6BBJorW9mdWJjfqqmcWxTZL+QOV4V4QrBt1RG7r6APYiYctnjuzPm3jGxDbqrqwYkTxwPP7t18M6mS0H8YptBuuyaYhtBiy55WW3WFRhjEcmN7hj9TEju4tAA/3PXpj7pTdxORKGCTm9vaLuE4QhYBQTTJTMnRKNc//NCTDz/z1AcHDlZmH49B+DKwp7h4VpOdSdWEkiupb0jaWQDS0pg5blK7yfUqsY6ZUKqId+sdG0r3TUVRBEeHZpuR6wrTQZJzQLMGFmgqo7XQIu/ZQ3ms68ejNHMSqHx23Ix7iEhi/UpzIUWCRAT8OsRtQYkBTdxXD/FY/bYJA5++o0Ja+kf3x+Wbf/cWsVllXvbELxs+p3M/lZX7i+ejAwHPkosGcSCuCNkkJg4OuGDMuKK2TrkAyEKxslGP2bkpC3+X37H5wO4JO5z6kLB4u6KtkiM024oDmILg08OQmws4grPImrgcSexaXVk8r8ZZu33rpV2tv9Xe8dRTT12SzL3eZAENBgUlJm0SluXZZTShTdU0WLOGhx59ZNGtv7rvg5eXvf5QSU1tm+krextbiovHNs02yxL9ND0fFcNoslVNHjPm9a+SS+LevXunkkg0yx6uK5YZSQbcZvvQoMEwcpTnb2O21pKbZjOHkWU+W7u2y9pXuYJ4005lVEpqyeJTZ75OgwP1cSGL2HFQzeZlyFIgYoEUgoQMaGJws4JsDUS5ef3SG4csWXxAeu2/3V+WbPnd3mOUW2KyHGpaY6FZLeLa4nLEOCVkp0Nf0w1QuL6mUuh+Et7arsqC70lR0EIQcSFuM7Kg8MPOPOiKIXMvhPdCeDdkr4NR62BUMWSWQrgMQmUQKoVwEWSvgbGrYexKmPwO7qyu9n83sexbD376O4IJUOOIhsvgBIAQOH6QQgyutrh/4Bh+NWIy1CYEh7Qt8JkQdD2nsCDEJIhp3F21fc5rOF3aC6s5+I0qEmoWPgvgkvnfXHTPri3zSFQ321t83nKTSIDiUaZtift2onn9c5xmbvP5Ou77bMuiVVF30XXzFtx5xmlTH80LBL5In9fCjn5swAo3S/ggDmJyxZbXdb2ZBwRDZBLqVCP54Werb/zoszX327ZNQoL9PmGzyku4+NzkMCmYtktCgvKAgqHKVNkxwn6/kTt17oyxI4Z1mOkRYF+8YmSjaeokD85ocmZymw+SQiUjGGT0SUOQ8EG//lBVK5aZJhdTT8ZMzjfL5NOK7WdfmDNmWbKuCiw9B/UoNYKX1M7XNGvG4yv55IZbTjnt0XvXYiWE/qAhIgSfgA6JuBjYgCaS5Ju613BbWCUlWdh+FAvsCO8NSuW9lX+7m89fu/uKr81bfvspc64dj1TS2eAk0Ybx20P3lNz1scbsZvYriUFzPS8u2RNaJRlkH4OhU4XftsbqyX8s3iBU4poLqif0Jg2cEmIHpWjiXiTJ9g1A1T+dNnvO2E7SgQK8U7pjYbkc89wRbcH9pCShe0IrKueo2UwkjIPGopyhPF6/Rrhb2pIYK9URO1XXFfYd1+aBtZ/96P6vj2kyOLZFINDOSPcPZ5Y984tfXkXOSWLwQiHBIRy7WZMXiwlradIzTZLEb6oqnpMkCKWI5yQJolH+59VX5tz+0H3FRbW1+Z0NTg/Q4YeNG/HmZS/pNQeeVlJu7S/SBbiuqzZ5n3V0JWWf5M5J18E0RfkuYPuePbOa2ihqbv2ALNo7YljhHUA/FzdnyqRJt6EozW1ocqmUm/8G2La1S31tk0iGQeV1cuZfi75106Bv5Y4qJ+5ArFZoJE3PbU4JwqEGSFFBd4UzsOPNUBzBVSxDGLhkDVJVSI3zhnuA4X95cN8/6iouLe+C5lbG8eSPI8ZHav234jYfWdIWFLCTHvZiZ2B7PiKudwGySz9Lon8X7ErvBBiLzxWzVVOE7UdWRX8Vn+C8PlmwQkX3NKA+4Ydjw1DHv72zOraYlQUvxyvGorre8uKKHY3sCvOoJAufEVvh7MGjlgxBqylEqvzP0ZMeJuwXwqrjCg4iec7csiL+r8oQbeCZih2LOmtHhzx7WGb/0sVXf3/Gzddc8zSjxghq9vsFx/BOeRK2Hm8WWmbz7if5nGEI9wIz4flbaFBVyZ2PPvJCVW1dh3LE8YRP80WaZBJo1jGoarOG0nGI2l3bmYZ8vojgrk7Hl09v7cFmmSBJXeIkJXv3zsCIN9vRJKnZ0TnJWSQJ0jMoSM1rTdgFBS3U8i28B90WejBg7YaNnW6FO13Yx0HJo/kTb3AX3i6tufjWM34YGrFhYLkJMa/SRExQpq4JvwVLFt5nhikIRFGgrhbcVHDSoM6GQCpbQwYTlv9180fEJ3fWhia/zSPvSc2X3MluJBzwV4qYFI8ryS5N5+05tjc7bWKJOBWQ11mTNMNUsTwvPNcFSxJaTRNx2YCtiH8NU/h/yJ5gH9I5qFodqglKMDL/vG/TT1AdoUXFEbIgHqFIHiu1fdw1cPzjR5a/c9Rpj+NKwi9XJdkgmmQwbPApPFWyddYazLEdtaVb0t+U4cM+/MmN35v2p1/9+szx37iwiNSw0KMkT32yrGbpW5LEDNI0j6PEhTVZ94uPYhiwaxdbineeU20lvnCdRIocqG/lwZ/8f3Jrn/TnjcWIGPG0Lr205Xrf3tXEsTwPekdofM12TrlIIkYitKV03wTR3mQ7W3yuFnWPKhy+4sjyp42Y8HKT1jzZ5yR3a9nv0n1UNx7uUEbsth9MDhjnasHlG6edO9z9wf3S38668rap+gCxy7EkcCxB8QlbcJS45ekkVOF175oeJauQcLlz2bJfR1RfF8zDnuCX5B6uJC7vnuY2Rfq0iX5I5WpqhnfOjtX6PZIklkOfCikubx8qvbyz1kyNuEVEXWg0IWJDowMxIO55hSXiwjVJscTOR7aE17xqgd/hUMDuUH/0Yvmm721L8XYkWBDygR0RRIYPInFQAlzkZpZepg5+6cjyc9GWX5M1qhRV8VwKEPFBsid/aT4hR/pU7tv+eYc+Jk0zuKc53r826ZSnxk465dV36g9c/OOPlv+aTz4Sy08oxQv5dDssf7C6iiqzMX+wlnJcI9zawsn9s1hX1ShU00dqIwN+wQ0lmW27d5/BgOEdvuuMGTMezxw/cl2dJgUBMgw7CtDo2sF/l+y++NOP3ykk0XPt/fY9e87AtsUS7noxPXpALKqOd+KobTNq6LAV7b1jwvjxL7Niy81oPiH8a5q36tieoC4E61UbN4xlynnttqWJSHp6AEAeRPKgaGJ4wIO3nX/Fg3tnLci+9X//tumfez/PRpGbQz9dT6ho0pgiGhxr4PMDpXOnDB7dPpE43jqsQNP5yUnaa8f3t612zh5U8M660h1n45c8LuIKry1XFj4Zsg9sk+dKN09/iLl6R/6ok4MZK+YGM9oMWU1L2NFPLeNuwaW8/jteWz1P9jGN7Gjv3VtpyH/+UPF0wX0sz1/VFG4CliNkH1WHRpf/yh1/T3vv+c6wiffcsuy5m0UcgSOiGlxXcBQ76ZiuQ1UJK+uqp89M69+m78txcbtsicEpocq7r/mvaXx9Xjl6F3yTZJmq6uovZZczZtSoZa3W5ZaySVLXI0lQWkpJdVWHAnU2WO2ZARzHUUgYXda5HIl9hw+cTDzarGdR1Gav++Ru0nEgNYVBA4a0qx8KnZRWw8A8UUbTvC2x0xwTZVtNMtO2HTvaVdHLlaCW4x7Xw4rHQ8nBqd8YcpKcKbSEsi20kprbHBPiiSUEVEqNSEGnLz1ST5JEUrboAqYMLHiVQJqYUQ6A3ELQ9nxJdB9YJjM+eG3VWhjVkT2oPb2MLMs2mqeJVuTmKymEyjI2WpsUtBMz9+XdmxYJgvUMrbIrOJLtfWBFhZjJz3NGP9dZnxePn/YcUVv01UXoSZLx2q4CbgJUlZu2rFlcBG26fXgipHSU0Ldxd3GPY0cBEqCfM6ELDmzitO9jqarLyNT0ypNHjmzmHJ5upEnHk9RnSBJs2MDbu9Zt60k9UnJnl/T96AYSWPr63UVzhdJLEkRhe3FOsio+smWBLAnO2Akmjh//MnpS3mrRriR38TTo9u4i6lwzs613yFlgtZwRZRB6pqb4xgnPP/Sp9OyD7h8SlddvhoLudvYQbvbyxGHhWJwADEdcSYHRdoUcYDsY/fp1nC6iPS4C3eIkfohecdp0IaSalpBFXEdoRA1XxN1YjtjxBB1+9u6LbKwsO7sb3QYgnHAimBI4ipAfEhqYGlgaOCpIKqYsH3XCOcAH0bK5a+L1gmu4QncDtuDI+DwjsMTIYBaT0geu6KgdVbjqxHDW8vMzB3qpQFoYN5MT0+cXMooU490dm7/T1nuOkkkqonUFj/zlL08KPcZObrz3nj8uXfnOz7szSAAqklW2tQsbFkWhf0Z6t7zvewoLlFn5oyeSGm5el5NJcVQvEEuWm2dbTQ2P/f73b6zdt7tbcbS2batNPrTdRFFJ8awmzWhSz5KMCkxyPE2jMCtnQwh/XUfvykKy/KiR0YWF76Drzd53mibeZXoKT28cPly9uk0fk1ZEsgEKp/zt8c1bGysgM1VYgNN8/OzNF6+XnrrLnbnjo1UvYc3rzEfkA+yp33//X29TVyfYmU/xcnjI4POyAiFklZH1BjdlDWpXQm/aBumOkGkUL6zLVcRlAbZFic/J3N3OmppELhjTYcPvzlpwDzFD7BpMxwtPiIhIOMX7EP4gyDr/8jcy5bnfrxr98dLipVhn74Tcyg7klE9gwk1a/HIy08GKCq4UqYOQDboBUgwUmTTbbdMd4ZE9ny0k3YKUqHjedkU8kCWJvqpBMB0WFUy5czCdpxvLBeOHI6begmOKfkqOiB1OGJ6bhAKNFvgUlh7elX0obh7Vt1Y3HnrumTeoOCgoK+LF2jTGhOWyuoqPnvuf6R8Fli798aAxH16XP+7xvPy81aGCrJJk+crquvA7W9cv+sPqVfd/UL0P0lKARPNaH497nTYgNQSWxcxJp2wJ4Isch9OxuuQNV4mtzh45aQljxy1mx04xUN6p4sSjNNlFWtp5GuvZvvS1gm+sWPX2NQMGMX/s5JumDhn6Ypriqw+mhy2AWG1M3VJSMvtXe9c+bW77vIBIDWRmQp0pgtuS8omiQDyOoqrxI9u2v3p/rohxkj0FmGeQaxnFoMjgT6F/v67HLw0cPmgLGRnC8TthCu23oraOEtA0aGxkx44d582YMK5VjLYKUAH64rXvvPS3PesK8SMk/bg3S3VPuHERTkdWLb/Z9+ms31R+Oou1NAeDO4i9tyKJdTfsEwOewJM/EpASBivmbcccsOHaU8+4RUS2tS1YpNrUY0siDqhJASQ3yyieDSfLhiB0yH4BslGsbCjZteCGAZc9eO+BdXqj5+4XE23XPOWvlRC+GooK/YPC19c8xJLKepYc2v4k70afxLIgPVXIWjGaDWiKBGn9PI2m1uzsI8uepjNGbSI+oGW7KjHVP1dvv11kBfA8/hyEhRpHCK22C4bLzLTcoin+k7qlfPxa3pjy9zetzUXFcwRPOlJ7PipeSo2Hd3725IwJ4wa1LCsDrNu08dI/vvj8vKbcIqbpWXo96o9EhINR0rqb9ORK6hiSPq/JNT651UsKR36/uN9QL8r6/aKBk09hxvAxXc6hdjxRGEwpv2HhFXeg680+H8lcKskZZtuCLScM0ZdkP2IxMTYpqeL5pO6ipV7EdcR7m7zbPT1FQz3IMsFg8KjlZsvOnTc3PaeqgNvaaqsoYJlMHDZseXf7e+5ppz1NzJvQyTicpIyiqqKtgQArtm7NP+jYrVQiMsCe4n0zsF0xW02PaoWyHxIKEBQ+lRGgUVgekfzC4quFwVAg6oItgxsQPqRRz7vep0MsIvJoBBSRzySugBVi1ZzLTimFcGUHsSwNCmFkaMo8lOQgjsdRVGEdjbc0fnUR/zXy5Acu/8a3X6UBsHxQF/O0mqawPbkKYkehip1JXIaIBG4QSIVaC+w0sPyizwZih+TqgoO6PpEyLBaDujigi/E0VGrtRFbLtrzFoYv+nqjwdmtO8y5E0cQYyho4GqdHdesHGSPv7G5fL8se8QRaWPj5qDLICaG/srxdl2GDI1Nj1/LK/t23tCwrA1x04QW33HrNdc/hDwhLbTIbETSvhUmfC2j2ZTBNwWV8PmGrAbHegZBjktF/riueA9Fh0+TJRYtuOSkQLOluZ483Fg6b+vjF3/2uMJD5AyIALWm1TfY92e/k36oqrNlJLWgyK1TSG8z0/GpUFQ7XCJ9T227yIiM1lfy8vFYB91uLd81pGmefR6hyC85kC26Xl51TNDyQ1e1gex9S/Gvjx1eSSDRzPvB2TJ7nmxf98Onn61oZOGUQEvBvx864YuXVPz5jZu44qG70OqyBGRdScQBI1yDFBSUu1mE1KAbWND3ZRPZSVNjgNIIbEbsRn+cHYfsgYvPudTdfcGO//MeGQE0+1Hd0OneqTb3Q0npu8UnRRXXEJcugOJSrDlHo0MR/yGg8imNdAO/8Y8DYSz6+/sdnTFXSIJAi2ppo9N5vC80nsvhoiuTtWhpFALJfE7ogOyoiC5KBX6oXMJUehIZqCOlQd5jTh4xly/d/OmRaalqTf2s5Cf25kl0XiQmlAprgnIrH0R1PzrMULi4Y/0SnFNEG8qF+8Ygp3xW+ObbQtMquiCVWLfGNFBeCMn+u2DahOtG8y2nFo4dm56y+96Zbpy34j6uWk54huEJyj570a03usxWltS0hKcskbQ2ql5nA8FJ5yjLk5/Pmfb85Y/SgIb0ih/TT2z/KfnBu3uqHb//FKaNnnVGKojav28n+JPufzP2men1MZjjS/V70gN283huGZ2EOgKIw7sabPvzNVd+fmKGHWnGCCPG0vRUHs0W6CKU5ibCTtF/QJPMMLyzs8dgVFhYuJxj0ovoSLXZMSnMdiQRUHKSqqmpkslwrIskFYzbq6n+OmXHm+ht+PvxXF17OcCUkNKMRw/Nt8IRW2wDHy8+VsDz3RE/n4JpCao4n4HCcecE8Xjr/qpvcK2+RzkX/sDvZfjRNiWMYop5oQuRPdZPJZlyIOnAIJhgSPhFt0iPkgjETZd3WWQsGHbz6jn6PjZq9pLBW8XZnMQiYkC6DZoIRhboENFhCq2pYIpsTMfC7IBkQbQTDYaIc5onpF1B08wM5mwZOOWM6bDiy/+9v3fCdbEUBxyc0v1EVDB2sABgBqPFBTGNS2kD6B7NLe9rHQX5/zazCSZXURMD2Q0MMokmNuCtWB8cBVeKtT1benizXrsDYzxcsP3fyzNHnTp7Jysay857ctP6W7bu2FHCoXOx0JE9KjnkUqXuxpsnZlp8PBcMjT8z42m2n+XNW5CP1KC+JaZr+edNnlL+eqmZhuSoKIkzAcgQbVmzGGY4xdNDgZ3vy/raQc1K/mh8suPja6QsufviZvZ///I97ty9kx2aoqhJc1ecTE9yyIHFEPlXHgZNymTLy5JJLho569rwBI/7aDyr9EG2rrjK7LhQKBatOLxjy8WHLDKsaRp3rBNeo5gAkycKRItMcX31edlbRzEGd22o6w60LFl7bb1DeHasOlE2ujEd1fEFPrWAKlqEKo2KWnrV9fzweHuj31/fohPF9ZQfyVx8+MK+uru5JxXQfwLLxK2okPT29NDOnf1G/zMySYCBUk4t8XPOp9zbK4pFwWVX1hIqKirGNjY3ZrusS1eSgLMu3p6amkpOTc05BZta6AtXXpja111GbUEn3WZW4anY3FJc9Poa+ZThES/ZZgaPn/B8jjo6wGzdbQbKSCXTy2kiR9VXCftcMqZJi5SAb5bh6LlKn36rHRNKH3kUVlpp1HLIbdAV9RNKHTnHc3Rf78NVEKYSLsdt0KuoMHRJJJV2LV+3DF4fjmSdF7UBp2RH+zy83FZ6Afaw5VI9E8uN1lsfk/wL6lps+dIr/85ykD8eOPk7Sh07RRyR96BR9RNKHTtFHJH3oFH1E0odO0UckXyKqTlDlZN8WuA+d4oSi7ArQGyFNhfjgdnK/l+BmqkhtnmoFsAmrIAW1XgJ0iFi4ug/JkHHt9oLDirCyQUWUcSJ5yBGAA7ihrh57vwNyTWw9B6XsRNPSnlBE8u7qlbeUHjr06zGjR18xuGDEUWkXlr373o2bzfqpEydMeCkvd8hRJ4Xu23ugYOnOdffIsnylFYsRkBRs2Ra5ei3n6ZljJzwzcdiIVl7sq0t2z1qxdcP1lq5f6TgOeZL+QEOkMSstNVw+e/bsh0X4SedYs2/z/K3btz85JWvgTRdNmv5UjwehF3DCEMlOzNxnNqy+e/neXVyeKi/6RgsiKYVwDWb2LzZ/9OTaxnImDEmbsN4jkgrQ46Bb4P/X4b2Lfr7231cSj6GZqZiJBGTgHUIQuP6ygvQhv2PE+S1n+gqjdv7tH71xJT4vEK0x8XMCAQgCG5Yufuhb197TlXN+XyjZcePSD97kW4UnL5486dQXC1C/mt5rbeCEIZJUtBrXdXUsC9d1j0oAk4JWb3ln2ajy0am9ZLAcx1GJxyA1zA9O+/qrkiRZDwWNUwAmy2rduGGFy49cCurq63NxXQilUPiNCx8sMDCiicTiVXs2ws6d/PGf/1x80Q3Dnhiihyo7ar/jOCqOg+O6uQHUr7T32pE4YYgkDqEVmgMBieWB1tkDvLNp6rMTIpNSticzQJP11wBIceU6FD+k9eeG08+7aQSU/6aTeksDSiaqD9T0XbtGzvlpnU1/TWHxtlEzuXbdYjYe3MXLVcXf+1HeuA65yb99UhZ+lWIFouJsjBPGxfPE2gK3jPRv62cvAs5p5xlFUWxsGxoaUOg4pWerd0oSxONBAE1BtRzISQmRkRqG9HTKyg+2Spbbrg+IJGEnDyg4gXBCcZKgJBMNqFQozlFpJipAD8gKKDKyEW8zi1DIJoLfBSfBf656833LcdQtUiQE8LfBk26bnzeslTC8EzfXVlQRPqLJwTdAOR8ObpLhOauK940qCg2Xuf0G//0AhAZ4O6o2dy+KoiLLnGvqDIGa9o4N+SrihCGSBK7ez+cjaibAtlvJJBWg54DRGI0ALuE2IvbBkwtkcSbdR68vHYVtQ1Akq9swSbnoSCIJIEUs29a9/O4ZX3/m/1lnNkAoEOBfZVtBURmel2eNHDp8uQJWJbbabsiq66okEhiGsb0SVz1RCAROICLJRSo5XQ6UPO/KBViOvRsrexhqJQi54y2YtSIINEoMsuU2hciEa+uoJqSm8v4F1y/w+XyRhBPRLcvyF+TkHnViej7U55tOFUEfyCaU7uQ9NwQHojAwDLm5/Puy21rkvOogJadihQnK7OsfTOtOzMtXAScMkWSDNXTw4NUUrS5g9ad6ymnfapWw5pPDRWdTexiwGV04vM14WUmSrGRGhDPGjXi10kLNVjtWbAX8/jriceiXxpW3/4xTYjIPvfgiZfu3eocidhG1tWCapKekdjsjQG/jhBJcLxk86mEsFWqi3PDWC+s/wZ2wA3LXYY26843XFuOTmZkzlHly1ottlU/XfVWYNKV06IxAAMoT0XxkjZCl81M1n6tTB7Li0u+IMNMdu7hnzfI/tVVuffTQqG2Qv4bE2JeIzmPjFtCCzAplHnOo5peNE4aTAEzKG7z6wvnf/Pi1l/8x/bW33xy18eM16ycFMinauxfCCQgE+M7l377JEs7PRxGAaZp6q1OsugC/rtdj26iShAIDYo5TE05NtfnmRfv412u5z7/x72suHzPlzuGh1FaB3P/vtw9/dijFFxp40gCWbN0MfnEA98zTTz/q2JGvOk4oIgG4/5TZC6dYSvGTb79BSUMtJbWHISeTb2bmcMOFF3FKztBn2rONBOsillKrMTDRdSKZXB0rOisi019zrEycqixPUbdv0rmjLn/9g7qP6qr5wbsvf/TGhf/ZKs/Yaz4jFCmvgLK9IvWEGeCpCxfeOcKXcsItNyecFXgvhBsgM4ob2m1Vj4ok3MxwMKVyHMF1YaiRgQEdxOO+ah2aq6s+Yy6pXco7VoyVWRupz9VkxRgXSGvKjFCGFTqAVbCT+FgZyV5IWqvjRFaSmLy58eDUw5FIrs/ni56eMWxZJlSO6MLRbV81nHBEciSSgevdyXnSh+7hhBJc+9A7OOE5SR++ePRxkj50ij4i6UOn+P+AwZivrk70SgAAAABJRU5ErkJggg==;" vertex="1" parent="1">
          <mxGeometry x="-305" y="317" width="137" height="116" as="geometry" />
        </mxCell>
        <mxCell id="DFUhws0RuYqCm8shGMYr-2" value="" style="shape=image;verticalLabelPosition=bottom;labelBackgroundColor=default;verticalAlign=top;aspect=fixed;imageAspect=0;image=https://media.githubusercontent.com/media/nteract/logos/master/nteract_papermill/exports/images/png/papermill_logo_wide.png;" vertex="1" parent="1">
          <mxGeometry x="250" y="705" width="252.26" height="60" as="geometry" />
        </mxCell>
        <mxCell id="DFUhws0RuYqCm8shGMYr-3" value="ORQUESTRAÇÃO E GOVERNAÇA DE DADOS" style="text;html=1;align=center;verticalAlign=middle;resizable=0;points=[];autosize=1;strokeColor=none;fillColor=none;fontSize=20;fontStyle=1;" vertex="1" parent="1">
          <mxGeometry x="270" y="640" width="450" height="40" as="geometry" />
        </mxCell>
        <mxCell id="DFUhws0RuYqCm8shGMYr-4" value="" style="shadow=0;dashed=0;html=1;strokeColor=none;fillColor=#4495D1;labelPosition=center;verticalLabelPosition=bottom;verticalAlign=top;align=center;outlineConnect=0;shape=mxgraph.veeam.local_disk;" vertex="1" parent="1">
          <mxGeometry x="470" y="480" width="75.53" height="75" as="geometry" />
        </mxCell>
        <mxCell id="DFUhws0RuYqCm8shGMYr-9" value="" style="shape=image;verticalLabelPosition=bottom;labelBackgroundColor=default;verticalAlign=top;aspect=fixed;imageAspect=0;image=https://logos-world.net/wp-content/uploads/2020/11/GitHub-Logo.png;" vertex="1" parent="1">
          <mxGeometry x="623.13" y="697.9100000000001" width="131.87" height="74.18" as="geometry" />
        </mxCell>
      </root>
    </mxGraphModel>
  </diagram>
  <diagram id="aPV5eF92aUqwlmYad6rj" name="Página-2">
    <mxGraphModel dx="1434" dy="836" grid="1" gridSize="10" guides="1" tooltips="1" connect="1" arrows="1" fold="1" page="1" pageScale="1" pageWidth="827" pageHeight="1169" math="0" shadow="0">
      <root>
        <mxCell id="0" />
        <mxCell id="1" parent="0" />
        <mxCell id="SPIeKXi4mX8ZE-xKDE4x-1" value="" style="shape=image;verticalLabelPosition=bottom;labelBackgroundColor=default;verticalAlign=top;aspect=fixed;imageAspect=0;image=https://media.githubusercontent.com/media/nteract/logos/master/nteract_papermill/exports/images/png/papermill_logo_wide.png;" vertex="1" parent="1">
          <mxGeometry x="250" y="90" width="252.26" height="60" as="geometry" />
        </mxCell>
        <mxCell id="SPIeKXi4mX8ZE-xKDE4x-2" value="landing" style="sketch=0;outlineConnect=0;fontColor=#232F3E;gradientColor=none;fillColor=#01A88D;strokeColor=none;dashed=0;verticalLabelPosition=bottom;verticalAlign=top;align=center;html=1;fontSize=12;fontStyle=0;aspect=fixed;pointerEvents=1;shape=mxgraph.aws4.sagemaker_notebook;" vertex="1" parent="1">
          <mxGeometry x="150" y="270" width="68" height="78" as="geometry" />
        </mxCell>
        <mxCell id="SPIeKXi4mX8ZE-xKDE4x-3" value="" style="sketch=0;outlineConnect=0;fontColor=#232F3E;gradientColor=none;fillColor=#01A88D;strokeColor=none;dashed=0;verticalLabelPosition=bottom;verticalAlign=top;align=center;html=1;fontSize=12;fontStyle=0;aspect=fixed;pointerEvents=1;shape=mxgraph.aws4.sagemaker_notebook;" vertex="1" parent="1">
          <mxGeometry x="680" y="310" width="68" height="78" as="geometry" />
        </mxCell>
        <mxCell id="SPIeKXi4mX8ZE-xKDE4x-4" value="bronze" style="sketch=0;outlineConnect=0;fontColor=#232F3E;gradientColor=none;fillColor=#01A88D;strokeColor=none;dashed=0;verticalLabelPosition=bottom;verticalAlign=top;align=center;html=1;fontSize=12;fontStyle=0;aspect=fixed;pointerEvents=1;shape=mxgraph.aws4.sagemaker_notebook;" vertex="1" parent="1">
          <mxGeometry x="356" y="300" width="68" height="78" as="geometry" />
        </mxCell>
        <mxCell id="SPIeKXi4mX8ZE-xKDE4x-5" value="" style="sketch=0;outlineConnect=0;fontColor=#232F3E;gradientColor=none;fillColor=#01A88D;strokeColor=none;dashed=0;verticalLabelPosition=bottom;verticalAlign=top;align=center;html=1;fontSize=12;fontStyle=0;aspect=fixed;pointerEvents=1;shape=mxgraph.aws4.sagemaker_notebook;" vertex="1" parent="1">
          <mxGeometry x="580" y="222" width="68" height="78" as="geometry" />
        </mxCell>
        <mxCell id="SPIeKXi4mX8ZE-xKDE4x-6" value="" style="sketch=0;outlineConnect=0;fontColor=#232F3E;gradientColor=none;fillColor=#01A88D;strokeColor=none;dashed=0;verticalLabelPosition=bottom;verticalAlign=top;align=center;html=1;fontSize=12;fontStyle=0;aspect=fixed;pointerEvents=1;shape=mxgraph.aws4.sagemaker_notebook;" vertex="1" parent="1">
          <mxGeometry x="530" y="378" width="68" height="78" as="geometry" />
        </mxCell>
      </root>
    </mxGraphModel>
  </diagram>
</mxfile>
